<svg width="20" height="20" viewBox="0 0 20 20" xmlns="http://www.w3.org/2000/svg"><title>IconLocation Copy</title><g fill="none" fill-rule="evenodd"><path d="M-2-2h24v24H-2z"/><g stroke="#555" stroke-linecap="round" stroke-linejoin="round"><path d="M12.625 6.25a2.625 2.625 0 1 1-5.25 0 2.625 2.625 0 0 1 5.25 0z"/><path d="M15.142 6.517c0 2.84-5.142 10.626-5.142 10.626S4.858 9.357 4.858 6.517a5.141 5.141 0 1 1 10.284 0z"/><path d="M13.75 15.774c2.886.243 4.875.757 4.875 1.35 0 .83-3.861 1.5-8.625 1.5-4.763 0-8.625-.67-8.625-1.5 0-.592 1.976-1.103 4.843-1.348"/></g></g></svg>