<svg width="32" height="32" viewBox="0 0 32 32" xmlns="http://www.w3.org/2000/svg"><title>Artboard Copy 2</title><g fill="none" fill-rule="evenodd"><circle fill="#5AA057" cx="16" cy="16" r="16"/><g stroke="#FFF" stroke-linejoin="round"><path d="M16.98 9.471s1.862.625 2.57 1.962c-.808.137-2.04-.008-2.04-.008.921 1.995 4.548 3.04 5.323.902.754-2.081-3.504-5.341-5.853-2.856zM16.704 23.16h-1.402c-2.996-1.608-3.55-4.258-4.636-6.609 3.07-2.114 7.564-2.125 10.667 0-1.081 2.394-1.633 5.043-4.63 6.609z"/><path d="M23.583 20.522s-1.242-2.091-3.031-2.091M22.73 22.087s-1.112-2.091-2.901-2.091M21.875 23.652s-1.323-2.091-3.112-2.091M8.417 20.522s1.255-2.091 3.044-2.091M9.27 22.087s1.112-2.091 2.902-2.091M10.125 23.652s1.352-2.091 3.141-2.091M20.146 15.747s2.344-.924 2.708-3.5" stroke-linecap="round"/><path d="M15.02 9.471s-1.862.625-2.57 1.962c.808.137 2.04-.008 2.04-.008-.921 1.995-4.548 3.04-5.323.902-.754-2.081 3.504-5.341 5.853-2.856z"/><path d="M11.792 15.79s-2.282-.968-2.646-3.544M16 16.551v1.391M18.107 16.912l-.569 1.258M13.872 16.912l.57 1.258" stroke-linecap="round"/></g></g></svg>