<svg width="32" height="32" viewBox="0 0 32 32" xmlns="http://www.w3.org/2000/svg"><title>Artboard Copy</title><g fill="none" fill-rule="evenodd"><circle fill="#5AA057" cx="16" cy="16" r="16"/><path d="M8.333 15.667l8.334-7.334c3 0 7 2 7 5.334M22.333 16.333a1 1 0 1 1-2 0 1 1 0 0 1 2 0zM12.667 17.333a.667.667 0 1 1-1.335-.001.667.667 0 0 1 1.335.001zM20.333 19.333a.333.333 0 1 1-.667 0 .333.333 0 0 1 .667 0z" stroke="#FFF" stroke-linecap="round" stroke-linejoin="round"/><path d="M17.333 16.667a.333.333 0 1 0 0 .667.333.333 0 0 0 0-.667" fill="#FFF"/><path d="M16.667 20A1.333 1.333 0 1 1 14 20a1.333 1.333 0 0 1 2.666 0z" stroke="#FFF" stroke-linecap="round" stroke-linejoin="round"/><path d="M8.333 15.667v4a1.333 1.333 0 1 1 0 2.666v1.334l15.334-2v-8l-15.334 2z" stroke="#FFF" stroke-linecap="round" stroke-linejoin="round"/></g></svg>