<svg xmlns="http://www.w3.org/2000/svg" width="24" height="24" viewBox="0 0 24 24"><title>Group 6</title><path d="M10.13 13.88S9 13.5 9 11.63c-.62 0-.62-1.5 0-1.5 0-.26-1.12-3 .75-2.63.38-1.5 4.5-1.5 4.88 0 .26 1.04-.38 2.44-.38 2.63.62 0 .62 1.5 0 1.5 0 1.87-1.12 2.25-1.12 2.25v1.87c1.85.7 3.69 1.27 4.63 1.93a8.576 8.576 0 0 0 2.49-6.05c0-4.77-3.86-8.63-8.62-8.63C6.86 3 3 6.86 3 11.63c0 2.36.95 4.5 2.49 6.06 1-.69 2.97-1.31 4.64-1.94zM6 18.01a8.588 8.588 0 0 0 6.13 2.56c2.4 0 4.58-.98 6.14-2.57" fill="none" stroke-linejoin="round" stroke="#555" stroke-miterlimit="50"/></svg>