<svg width="22" height="21" viewBox="0 0 22 21" xmlns="http://www.w3.org/2000/svg"><title>IconCall</title><g fill="none" fill-rule="evenodd"><path d="M-1-1h24v24H-1z"/><g stroke="#F2B900" stroke-width="1.2" stroke-linecap="round" stroke-linejoin="round"><path d="M9.522 8.425c.528-.522.571-1.324.096-1.795L8.326 5.357c-.475-.47-1.289-.427-1.816.095l-.788.775c-.682.674-.835 1.677-.37 2.406a25.346 25.346 0 0 0 7.913 7.809c.737.46 1.757.307 2.438-.364l.787-.778c.528-.521.571-1.324.095-1.793l-1.29-1.274c-.477-.469-1.29-.428-1.818.094l-.478.47a25.807 25.807 0 0 1-3.954-3.901l.477-.471z"/><path d="M16 15.803c.417.41 1.3 4.523-5 4.523-5.293 0-9.583-4.234-9.583-9.458 0-5.222 4.29-9.457 9.583-9.457s9.583 4.235 9.583 9.457a9.323 9.323 0 0 1-1.676 5.346"/></g></g></svg>