<svg width="20" height="20" viewBox="0 0 20 20" xmlns="http://www.w3.org/2000/svg"><title>Group 6</title><g fill="none" fill-rule="evenodd"><path d="M-2-2h24v24H-2z"/><g stroke="#555" stroke-linejoin="round"><path d="M8.5 12.25S7.375 11.875 7.375 10c-.62 0-.62-1.5 0-1.5 0-.251-1.125-3 .75-2.625.375-1.5 4.5-1.5 4.875 0 .26 1.041-.375 2.44-.375 2.625.62 0 .62 1.5 0 1.5 0 1.875-1.125 2.25-1.125 2.25v1.875c1.858.697 3.697 1.273 4.64 1.931A8.624 8.624 0 0 0 10 1.375a8.624 8.624 0 0 0-6.131 14.69c.997-.69 2.964-1.31 4.631-1.94V12.25z"/><path d="M3.869 16.065A8.599 8.599 0 0 0 10 18.625a8.594 8.594 0 0 0 6.139-2.569"/></g></g></svg>