<svg xmlns="http://www.w3.org/2000/svg" width="19" height="18.925" viewBox="0 0 19 18.925085167532018"><title>Stroke 528 + Stroke 529</title><path d="M7.63 11.38S6.5 11 6.5 9.13c-.62 0-.62-1.5 0-1.5 0-.26-1.12-3 .75-2.63.38-1.5 4.5-1.5 4.88 0 .26 1.04-.38 2.44-.38 2.63.62 0 .62 1.5 0 1.5 0 1.87-1.12 2.25-1.12 2.25v1.87c1.85.7 3.69 1.27 4.63 1.93a8.576 8.576 0 0 0 2.49-6.05C17.75 4.36 13.89.5 9.13.5 4.36.5.5 4.36.5 9.13c0 2.36.95 4.5 2.49 6.06 1-.69 2.97-1.31 4.64-1.94zM3.5 15.51a8.588 8.588 0 0 0 6.13 2.56c2.4 0 4.58-.98 6.14-2.57" fill="none" stroke-linejoin="round" stroke="#555" stroke-miterlimit="50"/></svg>