<?xml version="1.0" encoding="UTF-8" standalone="no"?>
<!DOCTYPE svg  PUBLIC '-//W3C//DTD SVG 1.1//EN'  'http://www.w3.org/Graphics/SVG/1.1/DTD/svg11.dtd'>
<svg version="1.1" xmlns="http://www.w3.org/2000/svg">
<defs>
<font id="AvenirNext-Regular" horiz-adv-x="572">
<font-face panose-1="2 11 5 3 2 2 2 2 2 4" descent="-200" underline-thickness="50" underline-position="-150" cap-height="708" unicode-range="U+000D-FE48" font-family="Avenir Next" units-per-em="1000" x-height="468" bbox="-394 -411 1309 1192" ascent="800" font-weight="400"/>
<missing-glyph horiz-adv-x="512" d="M222 117v67h56v-67h-56zM225 234l-2 17q0 56 13 81q7 13 18 27.5t28 31.5q16 15 26 26.5t15 21t7 18t2 17.5q0 36 -22.5 60.5t-53.5 24.5t-53.5 -22t-28.5 -73l-50 8q7 72 44 104.5t91 32.5t89 -35.5t35 -95.5q0 -32 -12.5 -58.5t-50.5 -61.5q-37 -33 -43 -52 q-6 -20 -6 -72h-46zM462 50v617h-412v-617h412zM512 718v-718h-512v718h512z"/>
<glyph glyph-name="IJ" horiz-adv-x="734" d="M166 0h-72v708h72v-708zM334 144q8 -42 37.5 -70.5t77.5 -28.5q37 0 61 13.5t38.5 36.5t20 52.5t5.5 61.5v499h72v-504q0 -35 -7.5 -74t-28.5 -72t-58 -54.5t-95 -21.5q-77 0 -127 40.5t-63 103.5z" unicode="IJ"/>
<glyph glyph-name="ij" horiz-adv-x="498" d="M159 0h-68v468h68v-468zM173 648q0 -21 -15 -34.5t-33 -13.5t-33 13.5t-15 34.5t15 34.5t33 13.5t33 -13.5t15 -34.5zM230 -176q10 -3 21.5 -4.5t21.5 -1.5q21 0 34 7.5t20 20.5t9.5 31.5t2.5 40.5v550h68v-561q0 -28 -6 -54.5t-21 -47t-40.5 -33t-65.5 -12.5 q-11 0 -26 1.5t-28 5.5zM421 648q0 -21 -15 -34.5t-33 -13.5t-33 13.5t-15 34.5t15 34.5t33 13.5t33 -13.5t15 -34.5z" unicode="ij"/>
<glyph glyph-name="napostrophe" horiz-adv-x="581" d="M151 468q2 -19 3 -42t1 -38h2q20 41 65 66.5t95 25.5q89 0 133.5 -53t44.5 -140v-287h-68v259q0 37 -6 67t-20.5 51.5t-39 33.5t-61.5 12q-27 0 -52.5 -11t-45.5 -33.5t-32 -57t-12 -81.5v-240h-68v365q0 19 -1 49t-3 54h65zM30 571h-57l62 185h71z" unicode='&quot;n'/>
<glyph glyph-name="fi" horiz-adv-x="544" d="M452 0h-68v468h68v-468zM467 648q0 -21 -15 -34.5t-33 -13.5t-33 13.5t-15 34.5t15 34.5t33 13.5t33 -13.5t15 -34.5zM288 411h-110v-411h-68v411h-98v57h98v128q0 80 39 126t120 46q13 0 28 -1.5t28 -5.5l-12 -60q-11 3 -22 5t-25 2q-27 0 -44.5 -9t-27 -25.5t-13 -38.5 t-3.5 -47v-120h110v-57z" unicode="fi"/>
<glyph glyph-name="fl" horiz-adv-x="544" d="M452 0h-68v756h68v-756zM288 411h-110v-411h-68v411h-98v57h98v128q0 80 39 126t120 46q13 0 28 -1.5t28 -5.5l-12 -60q-11 3 -22 5t-25 2q-27 0 -44.5 -9t-27 -25.5t-13 -38.5t-3.5 -47v-120h110v-57z" unicode="fl"/>
<glyph glyph-name=".notdef" horiz-adv-x="512" d="M222 117v67h56v-67h-56zM225 234l-2 17q0 56 13 81q7 13 18 27.5t28 31.5q16 15 26 26.5t15 21t7 18t2 17.5q0 36 -22.5 60.5t-53.5 24.5t-53.5 -22t-28.5 -73l-50 8q7 72 44 104.5t91 32.5t89 -35.5t35 -95.5q0 -32 -12.5 -58.5t-50.5 -61.5q-37 -33 -43 -52 q-6 -20 -6 -72h-46zM462 50v617h-412v-617h412zM512 718v-718h-512v718h512z"/>
<glyph glyph-name=".null" horiz-adv-x="500"/>
<glyph glyph-name=".null" horiz-adv-x="500"/>
<glyph glyph-name="nonmarkingreturn" horiz-adv-x="0" unicode=""/>
<glyph glyph-name="space" horiz-adv-x="250" unicode=" "/>
<glyph glyph-name="exclam" horiz-adv-x="328" d="M200 192h-72v516h72v-516zM218 48q0 -21 -15 -37.5t-39 -16.5t-39 16.5t-15 37.5t15 37.5t39 16.5t39 -16.5t15 -37.5z" unicode="!"/>
<glyph glyph-name="quotedbl" horiz-adv-x="405" d="M100 708h60v-235h-60v235zM245 708h60v-235h-60v235z" unicode='&quot;'/>
<glyph glyph-name="numbersign" horiz-adv-x="556" d="M137 214h-102v60h110l22 162h-108v60h117l29 212h61l-29 -212h133l29 212h61l-29 -212h90v-60h-99l-22 -162h95v-60h-103l-30 -214h-61l30 214h-133l-30 -214h-61zM206 274h133l22 162h-133z" unicode="#"/>
<glyph glyph-name="dollar" horiz-adv-x="580" d="M263 664q-52 -2 -88 -36.5t-36 -91.5q0 -54 34 -84.5t90 -45.5v258zM311 46q22 1 45.5 8.5t42.5 23.5t31 41.5t12 62.5q0 51 -37 86t-94 53v-275zM263 333q-34 10 -68.5 25t-62 38t-45 55.5t-17.5 78.5q0 43 15.5 77.5t42 59t61.5 38t74 15.5v72h48v-72q24 -1 49.5 -6 t50 -15t46.5 -25t39 -35l-55 -42q-23 33 -58.5 49.5t-71.5 17.5v-275q38 -13 74.5 -29.5t65 -41t46 -58.5t17.5 -83q0 -42 -15.5 -76.5t-43 -59t-64.5 -38.5t-80 -15v-72h-48v72q-68 2 -121.5 31t-89.5 75l57 40q13 -23 33 -39t41.5 -27t42.5 -16.5t37 -5.5v287z" unicode="$"/>
<glyph glyph-name="percent" horiz-adv-x="833" d="M390 545q0 -37 -13.5 -69t-37.5 -55.5t-56 -37t-69 -13.5t-69 13.5t-56 37t-37.5 55.5t-13.5 69t13.5 69t37.5 55.5t56 37t69 13.5t69 -13.5t56 -37t37.5 -55.5t13.5 -69zM330 545q0 25 -9.5 46t-25 36.5t-36.5 24t-45 8.5t-45 -8.5t-36.5 -24t-25 -36.5t-9.5 -46 t9.5 -46t25 -36.5t36.5 -24t45 -8.5t45 8.5t36.5 24t25 36.5t9.5 46zM795 163q0 -37 -13.5 -69t-37.5 -55.5t-56 -37t-69 -13.5t-69 13.5t-56 37t-37.5 55.5t-13.5 69t13.5 69t37.5 55.5t56 37t69 13.5t69 -13.5t56 -37t37.5 -55.5t13.5 -69zM735 163q0 25 -9.5 46t-25 36.5 t-36.5 24t-45 8.5t-45 -8.5t-36.5 -24t-25 -36.5t-9.5 -46t9.5 -46t25 -36.5t36.5 -24t45 -8.5t45 8.5t36.5 24t25 36.5t9.5 46zM217 -31l-52 27l451 743l51 -27z" unicode="%"/>
<glyph glyph-name="ampersand" horiz-adv-x="704" d="M529 164l159 -164h-100l-100 105q-44 -60 -95 -88.5t-123 -28.5q-45 0 -85.5 13t-70.5 37.5t-47.5 61t-17.5 84.5q0 40 12.5 72t34.5 57.5t52 45.5t65 35q-16 16 -31.5 35t-27.5 39.5t-19.5 43.5t-7.5 47q0 40 14 71t38 52.5t56 32.5t68 11q35 0 66 -10.5t54.5 -31 t37 -50t13.5 -67.5q0 -35 -13.5 -63t-36 -50.5t-51 -40t-58.5 -32.5l165 -170l98 172h81zM404 567q0 44 -28.5 72t-71.5 28q-47 0 -77 -29.5t-30 -79.5q0 -19 8 -39.5t20 -38.5t25.5 -33t23.5 -23q24 11 47 24.5t41.5 30.5t30 39t11.5 49zM253 348q-64 -29 -97 -68.5 t-33 -96.5q0 -30 11.5 -55t32 -42.5t47.5 -27.5t57 -10q58 0 96.5 26t72.5 78z" unicode="&amp;"/>
<glyph glyph-name="quotesingle" horiz-adv-x="260" d="M100 708h60v-235h-60v235z" unicode="&apos;"/>
<glyph glyph-name="parenleft" horiz-adv-x="300" d="M98 288q0 -58 10 -115t27.5 -110t41.5 -101t53 -88l-52 -33q-32 42 -58.5 92.5t-46 108t-30.5 119.5t-11 127q0 64 11 126.5t30.5 120t46 108t58.5 92.5l52 -33q-29 -40 -53 -88t-41.5 -101t-27.5 -110t-10 -115z" unicode="("/>
<glyph glyph-name="parenright" horiz-adv-x="300" d="M202 288q0 58 -10 115t-27.5 110t-42 101t-52.5 88l52 33q31 -42 58 -92.5t46.5 -108t30.5 -120t11 -126.5q0 -65 -11 -127t-30.5 -119.5t-46.5 -108t-58 -92.5l-52 33q28 40 52.5 88t42 101t27.5 110t10 115z" unicode=")"/>
<glyph glyph-name="asterisk" horiz-adv-x="444" d="M252 565l140 45l21 -56l-141 -45l90 -121l-48 -36l-92 124l-92 -124l-48 36l90 121l-141 45l21 56l140 -45v143h60v-143z" unicode="*"/>
<glyph glyph-name="plus" horiz-adv-x="666" d="M363 333h225v-60h-225v-225h-60v225h-225v60h225v225h60v-225z" unicode="+"/>
<glyph glyph-name="comma" horiz-adv-x="260" d="M102 -140h-57l67 235h71z" unicode=","/>
<glyph glyph-name="hyphen" horiz-adv-x="320" d="M272 214h-224v57h224v-57z" unicode="-"/>
<glyph glyph-name="period" horiz-adv-x="260" d="M184 48q0 -21 -15 -37.5t-39 -16.5t-39 16.5t-15 37.5t15 37.5t39 16.5t39 -16.5t15 -37.5z" unicode="."/>
<glyph glyph-name="slash" horiz-adv-x="370" d="M63 -18l-58 19l303 725l57 -20z" unicode="/"/>
<glyph glyph-name="zero" horiz-adv-x="580" d="M290 726q66 0 110.5 -32.5t71.5 -85t38.5 -119.5t11.5 -136t-11.5 -135.5t-38.5 -119t-71.5 -84.5t-110.5 -32q-67 0 -111.5 32t-71.5 84.5t-38 119t-11 135.5t11 136t38 119.5t71.5 85t111.5 32.5zM290 665q-47 0 -78 -29t-49 -74t-25 -100.5t-7 -108.5t7 -108t25 -99.5 t49 -73t78 -28.5q46 0 77 28.5t49 73t25.5 99.5t7.5 108t-7.5 108.5t-25.5 100.5t-49 74t-77 29z" unicode="0"/>
<glyph glyph-name="one" horiz-adv-x="580" d="M358 0h-72v619l-128 -109l-44 50l180 148h64v-708z" unicode="1"/>
<glyph glyph-name="two" horiz-adv-x="580" d="M504 0h-453v75l290 293q16 16 31.5 34.5t27.5 38.5t19 42.5t7 46.5q0 31 -11 56t-30.5 42.5t-45 27t-53.5 9.5q-57 0 -96 -35.5t-50 -90.5l-71 14q7 37 26.5 69t48 55t64.5 36t78 13q43 0 81.5 -12.5t67.5 -37t46.5 -61t17.5 -84.5q0 -34 -9.5 -63t-25 -55t-36.5 -49.5 t-44 -46.5l-255 -253h375v-64z" unicode="2"/>
<glyph glyph-name="three" horiz-adv-x="580" d="M214 402h31q34 0 64 7t52.5 22.5t35.5 40.5t13 60q0 30 -11 54.5t-30.5 42t-45 27t-53.5 9.5q-45 0 -79.5 -21t-55.5 -62l-61 32q33 57 84 84.5t116 27.5q42 0 79.5 -12.5t66 -36.5t45 -59.5t16.5 -81.5q0 -63 -35 -105.5t-88 -56.5v-2q61 -13 102 -58.5t41 -117.5 q0 -51 -18.5 -90.5t-49.5 -67t-72.5 -42t-87.5 -14.5q-78 0 -136 37.5t-88 107.5l68 25q18 -51 60 -79.5t96 -28.5q30 0 58.5 10.5t50 30t34.5 47.5t13 64q0 40 -15.5 67.5t-41.5 44.5t-59 24.5t-68 7.5h-31v62z" unicode="3"/>
<glyph glyph-name="four" horiz-adv-x="580" d="M436 234h104v-63h-104v-171h-70v171h-324v70l300 467h94v-474zM366 627h-2l-247 -393h249v393z" unicode="4"/>
<glyph glyph-name="five" horiz-adv-x="580" d="M475 644h-295l-5 -219q23 8 48.5 12t49.5 4q50 0 92 -16t73 -45.5t48 -70.5t17 -90q0 -51 -17 -94.5t-48 -75t-74.5 -49.5t-95.5 -18q-77 0 -130 35t-82 94l65 29q19 -44 57.5 -70t85.5 -26q36 0 66.5 12.5t52.5 35t34.5 53.5t12.5 67q0 39 -13.5 70.5t-37 53.5t-55.5 34 t-70 12t-75.5 -10.5t-71.5 -28.5l7 365h361v-64z" unicode="5"/>
<glyph glyph-name="six" horiz-adv-x="580" d="M201 399l2 -2q16 12 45 19t56 7q46 0 85.5 -16t68.5 -44.5t45.5 -69t16.5 -88.5q0 -50 -17 -91t-48 -70t-73 -45.5t-92 -16.5t-92 16.5t-73 45.5t-48 70t-17 91q0 55 19 102t45 90l193 311h83zM132 205q0 -35 11.5 -64.5t32.5 -51t50 -34t64 -12.5t64 12.5t50 34t32.5 51 t11.5 64.5q0 34 -11 63.5t-31.5 51t-50 33.5t-65.5 12t-65.5 -12t-50 -33.5t-31.5 -51t-11 -63.5z" unicode="6"/>
<glyph glyph-name="seven" horiz-adv-x="580" d="M498 642l-285 -642h-81l293 644h-347v64h420v-66z" unicode="7"/>
<glyph glyph-name="eight" horiz-adv-x="580" d="M383 375q58 -17 96 -67t38 -122q0 -47 -18.5 -84.5t-49.5 -64t-72.5 -41t-86.5 -14.5t-86.5 14.5t-72.5 41t-49.5 64t-18.5 84.5q0 36 10 66.5t28 55t42.5 41.5t53.5 26v2q-24 8 -43.5 23.5t-33.5 37t-22 47t-8 52.5q0 43 16 78t43.5 59.5t63.5 38t77 13.5 q40 0 76.5 -13.5t64 -38t43.5 -59.5t16 -78q0 -27 -8 -52.5t-22 -47t-33.5 -37t-43.5 -23.5v-2zM160 533q0 -28 10 -51t28 -40t41.5 -26.5t50.5 -9.5t50.5 9.5t41.5 26.5t28 40t10 51t-10 52.5t-27.5 42t-41 27.5t-51.5 10t-51.5 -10t-41 -27.5t-27.5 -42t-10 -52.5z M135 194q0 -32 11 -60t31.5 -48t49 -31.5t63.5 -11.5t63.5 11.5t49 31.5t31.5 48t11 60t-11 59t-31.5 47t-49 31t-63.5 11t-63.5 -11t-49 -31t-31.5 -47t-11 -59z" unicode="8"/>
<glyph glyph-name="nine" horiz-adv-x="580" d="M381 309l-2 2q-16 -12 -45 -19t-56 -7q-46 0 -85.5 16t-68.5 44.5t-45.5 69t-16.5 88.5q0 49 17 90.5t48 70.5t73 45.5t92 16.5t92 -16.5t73 -45.5t48 -70.5t17 -90.5q0 -55 -19 -102t-45 -90l-193 -311h-83zM450 503q0 34 -11.5 64t-32.5 51.5t-50 34t-64 12.5 t-64 -12.5t-50 -34t-32.5 -51.5t-11.5 -64t11 -63.5t31.5 -51t50 -33.5t65.5 -12t65.5 12t50 33.5t31.5 51t11 63.5z" unicode="9"/>
<glyph glyph-name="colon" horiz-adv-x="300" d="M204 420q0 -21 -15 -37.5t-39 -16.5t-39 16.5t-15 37.5t15 37.5t39 16.5t39 -16.5t15 -37.5zM204 48q0 -21 -15 -37.5t-39 -16.5t-39 16.5t-15 37.5t15 37.5t39 16.5t39 -16.5t15 -37.5z" unicode=":"/>
<glyph glyph-name="semicolon" horiz-adv-x="300" d="M204 420q0 -21 -15 -37.5t-39 -16.5t-39 16.5t-15 37.5t15 37.5t39 16.5t39 -16.5t15 -37.5zM118 -140h-60l67 235h74z" unicode=";"/>
<glyph glyph-name="less" horiz-adv-x="666" d="M588 504l-429 -201l429 -201v-60l-510 238v46l510 238v-60z" unicode="&lt;"/>
<glyph glyph-name="equal" horiz-adv-x="666" d="M588 408v-60h-510v60h510zM588 258v-60h-510v60h510z" unicode="="/>
<glyph glyph-name="greater" horiz-adv-x="666" d="M78 564l510 -238v-46l-510 -238v60l429 201l-429 201v60z" unicode="&gt;"/>
<glyph glyph-name="question" horiz-adv-x="482" d="M274 192h-70v60q0 28 6.5 50.5t18 40.5t26 32.5t29.5 28.5l28 25q25 20 41.5 46t16.5 65q0 28 -10 50t-27 37t-39.5 23t-48.5 8q-54 0 -87.5 -33t-41.5 -84l-68 12q15 78 68.5 122.5t131.5 44.5q40 0 75.5 -11.5t61.5 -34t41.5 -55.5t15.5 -75q0 -32 -7 -56t-19.5 -43 t-29.5 -34.5t-36 -31.5q-21 -17 -35.5 -31t-23.5 -29.5t-13 -34.5t-4 -46v-46zM300 48q0 -21 -15 -37.5t-39 -16.5t-39 16.5t-15 37.5t15 37.5t39 16.5t39 -16.5t15 -37.5z" unicode="?"/>
<glyph glyph-name="at" horiz-adv-x="800" d="M412 489q-30 0 -52.5 -15.5t-38.5 -39.5t-24 -54t-8 -59q0 -14 3.5 -32t12.5 -34t24.5 -26.5t39.5 -10.5q34 0 58 17t39 42.5t22 54.5t7 54q0 19 -4 37.5t-13.5 33t-25.5 23.5t-40 9zM731 101q-59 -60 -138.5 -89.5t-175.5 -29.5q-86 0 -156.5 27.5t-120.5 76.5 t-77.5 117.5t-27.5 149.5q0 80 30 148t82 118t121.5 78.5t148.5 28.5q68 0 132 -20t113.5 -60t79 -100t29.5 -141q0 -60 -16 -106t-42.5 -77t-61.5 -46.5t-74 -15.5q-45 0 -66 22t-21 51h-4q-5 -11 -16 -23.5t-27 -23.5t-36.5 -18.5t-45.5 -7.5q-34 0 -61 12.5t-45.5 34 t-28.5 52t-10 66.5q0 42 14 82.5t39.5 72t62.5 50.5t83 19q38 0 65.5 -17.5t38.5 -42.5h4l10 45h62l-40 -186q-2 -7 -3.5 -17.5t-3.5 -22t-3 -22.5t-1 -18q0 -9 1.5 -17.5t7 -16t15 -12t25.5 -4.5q25 0 45.5 14t35 38t22.5 57t8 71q0 65 -21.5 114.5t-60 83.5t-91 51 t-115.5 17q-69 0 -125 -24t-96.5 -66t-62.5 -99.5t-22 -124.5q0 -71 23 -128t64.5 -97t99 -61.5t127.5 -21.5q89 0 154 27.5t116 77.5z" unicode="@"/>
<glyph glyph-name="A" horiz-adv-x="700" d="M89 0h-79l306 708h70l304 -708h-80l-78 186h-366zM193 252h312l-156 376z" unicode="A"/>
<glyph glyph-name="B" horiz-adv-x="636" d="M94 708h211q40 0 81 -8.5t73.5 -29t53 -55.5t20.5 -88q0 -56 -34 -97.5t-91 -54.5v-2q69 -8 114.5 -53.5t45.5 -123.5q0 -44 -18.5 -80.5t-52.5 -62t-83 -39.5t-110 -14h-210v708zM166 398h145q26 0 52.5 6t48.5 20.5t35.5 38.5t13.5 59q0 34 -13.5 57.5t-36.5 38.5 t-54 21.5t-66 6.5h-125v-248zM166 62h134q39 0 74.5 7.5t62 24t42.5 43t16 63.5q0 70 -47.5 104.5t-134.5 34.5h-147v-277z" unicode="B"/>
<glyph glyph-name="C" horiz-adv-x="720" d="M690 114q-18 -27 -43.5 -51t-59 -42t-74 -28.5t-88.5 -10.5q-80 0 -148 28t-117 77.5t-76.5 117.5t-27.5 149t28 149t77.5 117.5t117 77.5t146.5 28q39 0 76.5 -8t70.5 -22.5t60 -35t45 -46.5l-60 -44q-11 17 -29.5 34t-43.5 30t-54.5 21t-63.5 8q-69 0 -123.5 -25 t-92.5 -67.5t-58 -98.5t-20 -118t20.5 -118t58.5 -98.5t92.5 -67.5t122.5 -25q61 0 116 25t92 80z" unicode="C"/>
<glyph glyph-name="D" horiz-adv-x="757" d="M94 708h235q66 0 132.5 -22t120 -66.5t86.5 -111t33 -154.5q0 -89 -33 -155t-86.5 -110.5t-120 -66.5t-132.5 -22h-235v708zM166 64h143q80 0 139.5 25t98.5 65.5t58.5 92.5t19.5 107t-19.5 107t-58.5 92.5t-98.5 65.5t-139.5 25h-143v-580z" unicode="D"/>
<glyph glyph-name="E" horiz-adv-x="592" d="M166 64h379v-64h-451v708h439v-64h-367v-244h343v-63h-343v-273z" unicode="E"/>
<glyph glyph-name="F" horiz-adv-x="562" d="M166 0h-72v708h427v-64h-355v-246h330v-63h-330v-335z" unicode="F"/>
<glyph glyph-name="G" horiz-adv-x="779" d="M631 581q-37 39 -88 60.5t-117 21.5q-68 0 -122.5 -25t-92.5 -67.5t-58.5 -98.5t-20.5 -118t20.5 -118t58.5 -98t92.5 -67t122.5 -25q60 0 110 13t81 33v215h-165v63h237v-319q-58 -35 -125 -52t-139 -17q-80 0 -148 28t-117 77.5t-76.5 117.5t-27.5 149t28 149 t77.5 117.5t117 77.5t146.5 28q85 0 148 -25t108 -70z" unicode="G"/>
<glyph glyph-name="H" horiz-adv-x="718" d="M94 708h72v-307h386v307h72v-708h-72v335h-386v-335h-72v708z" unicode="H"/>
<glyph glyph-name="I" horiz-adv-x="260" d="M166 0h-72v708h72v-708z" unicode="I"/>
<glyph glyph-name="J" horiz-adv-x="492" d="M92 144q8 -42 37.5 -70.5t77.5 -28.5q37 0 61 13.5t38.5 36.5t20 52.5t5.5 61.5v499h72v-504q0 -35 -7.5 -74t-28.5 -72t-58 -54.5t-95 -21.5q-77 0 -127 40.5t-63 103.5z" unicode="J"/>
<glyph glyph-name="K" horiz-adv-x="628" d="M166 390h1l337 318h103l-357 -321l377 -387h-106l-354 377h-1v-377h-72v708h72v-318z" unicode="K"/>
<glyph glyph-name="L" horiz-adv-x="510" d="M166 64h330v-64h-402v708h72v-644z" unicode="L"/>
<glyph glyph-name="M" horiz-adv-x="886" d="M444 122h1l237 586h110v-708h-72v615h-2l-256 -615h-38l-256 615h-2v-615h-72v708h110z" unicode="M"/>
<glyph glyph-name="N" horiz-adv-x="764" d="M596 105h2v603h72v-708h-90l-412 609h-2v-609h-72v708h90z" unicode="N"/>
<glyph glyph-name="O" horiz-adv-x="850" d="M794 354q0 -81 -28 -149t-77.5 -117.5t-117 -77.5t-146.5 -28t-146.5 28t-117 77.5t-77.5 117.5t-28 149t28 149t77.5 117.5t117 77.5t146.5 28t146.5 -28t117 -77.5t77.5 -117.5t28 -149zM718 354q0 62 -20 118t-58 98.5t-92.5 67.5t-122.5 25t-122.5 -25t-92.5 -67.5 t-58 -98.5t-20 -118t20 -118t58 -98t92.5 -67t122.5 -25t122.5 25t92.5 67t58 98t20 118z" unicode="O"/>
<glyph glyph-name="P" horiz-adv-x="580" d="M94 708h200q54 0 98 -11.5t75.5 -35t48.5 -59t17 -83.5t-17.5 -83.5t-49 -59t-76 -35.5t-98.5 -12h-126v-329h-72v708zM166 390h122q85 0 129 33t44 96q0 66 -45.5 96.5t-127.5 30.5h-122v-256z" unicode="P"/>
<glyph glyph-name="Q" horiz-adv-x="843" d="M132 363q0 -60 19.5 -114t55.5 -95.5t88.5 -66t118.5 -24.5q65 0 117.5 24.5t89 66t56.5 95.5t20 114t-20 114t-56.5 95.5t-89 66t-117.5 24.5q-66 0 -118.5 -24.5t-88.5 -66t-55.5 -95.5t-19.5 -114zM819 0h-405q-77 0 -142.5 27t-113.5 75.5t-75 115t-27 145.5 t27 145.5t75 115t113.5 75.5t142.5 27q76 0 141.5 -27t113.5 -75.5t75 -115t27 -145.5q0 -94 -41.5 -171.5t-124.5 -125.5v-2h214v-64z" unicode="Q"/>
<glyph glyph-name="R" horiz-adv-x="599" d="M166 0h-72v708h208q52 0 96.5 -10t77 -32.5t50.5 -58.5t18 -88q0 -39 -14 -71t-38 -55.5t-57 -37.5t-72 -18l207 -337h-88l-196 331h-120v-331zM166 393h125q87 0 134 31.5t47 94.5q0 35 -13 59t-36 39t-56 22t-73 7h-128v-253z" unicode="R"/>
<glyph glyph-name="S" horiz-adv-x="564" d="M437 594q-23 32 -59 51.5t-87 19.5q-26 0 -53 -8t-49 -24.5t-35.5 -41.5t-13.5 -59t13 -56t34.5 -37.5t49 -25.5t57.5 -20q37 -12 74.5 -26t67.5 -36.5t49 -57t19 -87.5t-20.5 -91.5t-53 -63.5t-74 -37t-83.5 -12q-32 0 -64 6.5t-61 19.5t-54 33t-44 46l62 46 q23 -38 64.5 -63.5t97.5 -25.5q27 0 55 8.5t50.5 26t37 43t14.5 59.5q0 37 -14.5 61.5t-38.5 41t-55 27.5t-65 22q-35 11 -69 25t-61 36.5t-43.5 55.5t-16.5 81q0 51 20.5 88t53.5 61t73 35t79 11q72 0 123 -25.5t77 -60.5z" unicode="S"/>
<glyph glyph-name="T" horiz-adv-x="570" d="M321 0h-72v644h-237v64h546v-64h-237v-644z" unicode="T"/>
<glyph glyph-name="U" horiz-adv-x="710" d="M355 -18q-80 0 -131 27.5t-81 69.5t-41.5 91.5t-11.5 93.5v444h72v-436q0 -43 10 -83.5t32.5 -72t59.5 -51t91 -19.5t91 19.5t59.5 51t32.5 72t10 83.5v436h72v-444q0 -44 -11.5 -93.5t-41.5 -91.5t-81.5 -69.5t-130.5 -27.5z" unicode="U"/>
<glyph glyph-name="V" horiz-adv-x="623" d="M311 93h2l230 615h77l-271 -708h-76l-270 708h78z" unicode="V"/>
<glyph glyph-name="W" horiz-adv-x="972" d="M265 99h2l177 609h86l177 -609h2l173 609h76l-209 -708h-84l-178 608h-2l-178 -608h-84l-209 708h76z" unicode="W"/>
<glyph glyph-name="X" horiz-adv-x="649" d="M326 422l193 286h86l-235 -337l260 -371h-90l-216 319l-215 -319h-90l260 372l-237 336h90z" unicode="X"/>
<glyph glyph-name="Y" horiz-adv-x="602" d="M337 0h-72v305l-265 403h90l213 -343l215 343h84l-265 -403v-305z" unicode="Y"/>
<glyph glyph-name="Z" d="M535 648l-413 -584h419v-64h-510v60l414 584h-403v64h493v-60z" unicode="Z"/>
<glyph glyph-name="bracketleft" horiz-adv-x="300" d="M220 678h-96v-780h96v-54h-162v888h162v-54z" unicode="["/>
<glyph glyph-name="backslash" horiz-adv-x="370" d="M5 706l57 20l303 -725l-58 -19z" unicode="\"/>
<glyph glyph-name="bracketright" horiz-adv-x="300" d="M80 -102h96v780h-96v54h162v-888h-162v54z" unicode="]"/>
<glyph glyph-name="asciicircum" horiz-adv-x="666" d="M309 708h48l229 -433h-62l-191 361l-191 -361h-62z" unicode="^"/>
<glyph glyph-name="underscore" horiz-adv-x="500" d="M0 -75h500v-50h-500v50z" unicode="_"/>
<glyph glyph-name="grave" horiz-adv-x="240" d="M-10 708h91l100 -144h-59z" unicode="`"/>
<glyph glyph-name="a" horiz-adv-x="534" d="M385 302q0 61 -32 91t-93 30q-42 0 -78 -15t-61 -40l-38 45q29 29 76.5 48t107.5 19q38 0 71 -10.5t58 -31.5t39 -53t14 -75v-205q0 -27 2 -56t6 -49h-61q-3 17 -5 37t-2 39h-2q-32 -47 -72.5 -67.5t-97.5 -20.5q-27 0 -55.5 7.5t-52 24.5t-39 44t-15.5 66 q0 54 27.5 85.5t73.5 47t105.5 20t123.5 4.5v15zM365 234q-42 0 -84.5 -3.5t-77 -14t-56.5 -30.5t-22 -53q0 -25 9.5 -42t25.5 -27.5t35.5 -15t39.5 -4.5q36 0 64 12.5t47 34t29 49.5t10 59v35h-20z" unicode="a"/>
<glyph glyph-name="b" horiz-adv-x="637" d="M160 79v-79h-68v756h68v-369h2q30 46 78 69.5t99 23.5q55 0 99.5 -19t76 -52t49 -78t17.5 -97t-17.5 -97t-49 -78t-76 -52t-99.5 -19q-51 0 -99 23t-78 68h-2zM509 234q0 39 -12 73.5t-34.5 60t-55.5 40.5t-75 15q-39 0 -72 -14.5t-57 -40t-37.5 -60t-13.5 -74.5 t13.5 -74.5t37.5 -59.5t57 -39.5t72 -14.5q42 0 75 14.5t55.5 40t34.5 60t12 73.5z" unicode="b"/>
<glyph glyph-name="c" horiz-adv-x="500" d="M427 361q-17 27 -49.5 44.5t-70.5 17.5q-41 0 -74 -14.5t-56.5 -40t-36 -60t-12.5 -74.5t12.5 -74t35.5 -59.5t56 -40t74 -14.5q45 0 76 17t51 44l51 -38q-30 -37 -73.5 -59t-104.5 -22q-57 0 -103 18.5t-78.5 51.5t-50.5 78t-18 98t18 98t50.5 78t78.5 51.5t103 18.5 q47 0 95.5 -20.5t78.5 -60.5z" unicode="c"/>
<glyph glyph-name="d" horiz-adv-x="637" d="M475 79q-30 -45 -78 -68t-99 -23q-55 0 -99.5 19t-76 52t-49 78t-17.5 97t17.5 97t49 78t76 52t99.5 19q51 0 99 -23.5t78 -69.5h2v369h68v-756h-68v79h-2zM128 234q0 -39 12 -73.5t34.5 -60t55.5 -40t75 -14.5q39 0 72 14.5t57 39.5t37.5 59.5t13.5 74.5t-13.5 74.5 t-37.5 60t-57 40t-72 14.5q-42 0 -75 -15t-55.5 -40.5t-34.5 -60t-12 -73.5z" unicode="d"/>
<glyph glyph-name="e" d="M447 270q-3 66 -42.5 109.5t-112.5 43.5q-34 0 -63 -12.5t-51 -34t-35 -49t-15 -57.5h319zM516 248v-15t-1 -17h-388q1 -35 14 -66t36 -54t54 -36.5t67 -13.5q53 0 91.5 24.5t58.5 56.5l51 -40q-42 -53 -92.5 -76t-108.5 -23q-52 0 -96.5 18.5t-76.5 51.5t-50.5 78 t-18.5 98t18 98t50 78t75 51.5t93 18.5q55 0 97 -18.5t70 -50t42.5 -73.5t14.5 -90z" unicode="e"/>
<glyph glyph-name="f" horiz-adv-x="295" d="M288 411h-110v-411h-68v411h-98v57h98v128q0 80 39 126t120 46q13 0 28 -1.5t28 -5.5l-12 -60q-11 3 -22 5t-25 2q-27 0 -44.5 -9t-27 -25.5t-13 -38.5t-3.5 -47v-120h110v-57z" unicode="f"/>
<glyph glyph-name="g" horiz-adv-x="632" d="M115 -94q28 -36 76.5 -61t102.5 -25q50 0 85 14.5t56.5 39.5t31.5 58.5t10 71.5v88h-2q-27 -44 -76.5 -68t-100.5 -24q-55 0 -99.5 18t-76 49.5t-49 75.5t-17.5 95q0 50 17.5 94t49 77t76 52t99.5 19q51 0 100 -24t77 -69h2v81h68v-464q0 -38 -10.5 -81t-39 -79 t-77.5 -60t-127 -24q-65 0 -124 25t-101 69zM128 240q0 -37 12 -70t34.5 -58t55.5 -39.5t75 -14.5q39 0 72 13t57 37t37.5 57.5t13.5 74.5q0 37 -13.5 70t-37.5 58t-57 40t-72 15q-42 0 -75 -15t-55.5 -40t-34.5 -58t-12 -70z" unicode="g"/>
<glyph glyph-name="h" horiz-adv-x="583" d="M162 391q19 41 63 65t94 24q89 0 133.5 -53t44.5 -140v-287h-68v259q0 37 -6 67t-20.5 51.5t-39 33.5t-61.5 12q-27 0 -52.5 -11t-45.5 -33.5t-32 -57t-12 -81.5v-240h-68v756h68v-365h2z" unicode="h"/>
<glyph glyph-name="i" horiz-adv-x="250" d="M159 0h-68v468h68v-468zM173 648q0 -21 -15 -34.5t-33 -13.5t-33 13.5t-15 34.5t15 34.5t33 13.5t33 -13.5t15 -34.5z" unicode="i"/>
<glyph glyph-name="j" horiz-adv-x="251" d="M-17 -176q10 -3 21.5 -4.5t21.5 -1.5q21 0 34 7.5t20 20.5t9.5 31.5t2.5 40.5v550h68v-561q0 -28 -6 -54.5t-21 -47t-40.5 -33t-65.5 -12.5q-11 0 -26 1.5t-28 5.5zM174 648q0 -21 -15 -34.5t-33 -13.5t-33 13.5t-15 34.5t15 34.5t33 13.5t33 -13.5t15 -34.5z" unicode="j"/>
<glyph glyph-name="k" horiz-adv-x="510" d="M160 257h3l216 211h98l-236 -214l260 -254h-100l-238 246h-3v-246h-68v756h68v-499z" unicode="k"/>
<glyph glyph-name="l" horiz-adv-x="252" d="M160 0h-68v756h68v-756z" unicode="l"/>
<glyph glyph-name="m" horiz-adv-x="883" d="M157 388q20 41 61.5 66.5t92.5 25.5q19 0 39.5 -4t40 -15.5t36 -30.5t28.5 -49q24 48 65.5 73.5t98.5 25.5q89 0 133.5 -53t44.5 -140v-287h-68v259q0 74 -27.5 119t-93.5 45q-37 0 -62.5 -15t-41 -39.5t-22.5 -55.5t-7 -64v-249h-68v273q0 34 -5 62t-17.5 47.5t-34.5 30 t-56 10.5q-24 0 -48.5 -11t-44 -33.5t-31.5 -57t-12 -81.5v-240h-68v365q0 19 -1 49t-3 54h65q2 -19 3 -42t1 -38h2v0z" unicode="m"/>
<glyph glyph-name="n" horiz-adv-x="581" d="M151 468q2 -19 3 -42t1 -38h2q20 41 65 66.5t95 25.5q89 0 133.5 -53t44.5 -140v-287h-68v259q0 37 -6 67t-20.5 51.5t-39 33.5t-61.5 12q-27 0 -52.5 -11t-45.5 -33.5t-32 -57t-12 -81.5v-240h-68v365q0 19 -1 49t-3 54h65z" unicode="n"/>
<glyph glyph-name="o" horiz-adv-x="611" d="M555 234q0 -53 -18.5 -98t-51.5 -78t-79 -51.5t-101 -18.5q-54 0 -100 18.5t-79 51.5t-51.5 78t-18.5 98t18.5 98t51.5 78t79 51.5t100 18.5q55 0 101 -18.5t79 -51.5t51.5 -78t18.5 -98zM483 234q0 39 -12.5 73.5t-35.5 60t-56 40.5t-74 15t-73.5 -15t-55.5 -40.5 t-35.5 -60t-12.5 -73.5t12.5 -73.5t35.5 -60t55.5 -40t73.5 -14.5t74 14.5t56 40t35.5 60t12.5 73.5z" unicode="o"/>
<glyph glyph-name="p" horiz-adv-x="635" d="M158 -240h-68v708h68v-81h3q29 46 77.5 69.5t98.5 23.5q55 0 99.5 -19t76 -52t49 -78t17.5 -97t-17.5 -97t-49 -78t-76 -52t-99.5 -19q-50 0 -98.5 23.5t-77.5 67.5h-3v-319zM507 234q0 39 -12 73.5t-34.5 60t-55.5 40.5t-75 15q-39 0 -72 -14.5t-57 -40t-37.5 -60 t-13.5 -74.5t13.5 -74.5t37.5 -59.5t57 -39.5t72 -14.5q42 0 75 14.5t55.5 40t34.5 60t12 73.5z" unicode="p"/>
<glyph glyph-name="q" horiz-adv-x="635" d="M474 79q-29 -44 -77.5 -67.5t-98.5 -23.5q-55 0 -99.5 19t-76 52t-49 78t-17.5 97t17.5 97t49 78t76 52t99.5 19q50 0 98.5 -23.5t77.5 -69.5h3v81h68v-708h-68v319h-3zM128 234q0 -39 12 -73.5t34.5 -60t55.5 -40t75 -14.5q39 0 72 14.5t57 39.5t37.5 59.5t13.5 74.5 t-13.5 74.5t-37.5 60t-57 40t-72 14.5q-42 0 -75 -15t-55.5 -40.5t-34.5 -60t-12 -73.5z" unicode="q"/>
<glyph glyph-name="r" horiz-adv-x="360" d="M90 365q0 19 -1 49t-3 54h65q2 -19 3 -42t1 -38h2q20 41 60 66.5t90 25.5q13 0 23.5 -1t21.5 -4l-9 -64q-6 2 -20 4t-28 2q-27 0 -52 -10t-43.5 -31.5t-30 -55t-11.5 -80.5v-240h-68v365v0z" unicode="r"/>
<glyph glyph-name="s" horiz-adv-x="444" d="M339 357q-15 29 -45.5 47.5t-69.5 18.5q-18 0 -36 -4t-32 -13t-22.5 -23t-8.5 -33q0 -33 27 -50.5t85 -29.5q83 -17 122.5 -49.5t39.5 -87.5q0 -40 -15.5 -67.5t-40.5 -45t-56.5 -25t-63.5 -7.5q-53 0 -103 22t-82 69l54 40q18 -31 53 -52t77 -21q22 0 42 4t35 14 t24 25.5t9 38.5q0 37 -35.5 55.5t-102.5 34.5q-21 5 -44.5 12.5t-43.5 22t-33 36.5t-13 55q0 36 14 61.5t37.5 42t53.5 24.5t62 8q49 0 95 -22t69 -62z" unicode="s"/>
<glyph glyph-name="t" horiz-adv-x="317" d="M301 411h-132v-273q0 -26 5 -43t14.5 -26.5t22.5 -13t28 -3.5q14 0 29.5 4t29.5 11l3 -59q-18 -7 -37.5 -10.5t-42.5 -3.5q-19 0 -40 5t-39 19t-29.5 38t-11.5 63v292h-97v57h97v132h68v-132h132v-57z" unicode="t"/>
<glyph glyph-name="u" horiz-adv-x="581" d="M430 0q-2 19 -3 42t-1 38h-2q-20 -41 -65 -66.5t-95 -25.5q-89 0 -133.5 53t-44.5 140v287h68v-259q0 -37 6 -67t20.5 -51.5t39 -33.5t61.5 -12q27 0 52.5 11t45.5 33.5t32 57t12 81.5v240h68v-365q0 -19 1 -49t3 -54h-65z" unicode="u"/>
<glyph glyph-name="v" horiz-adv-x="488" d="M282 0h-75l-191 468h76l152 -396h2l153 396h73z" unicode="v"/>
<glyph glyph-name="w" horiz-adv-x="746" d="M99 468l113 -380h2l126 380h66l128 -380h2l112 380h72l-148 -468h-74l-125 379h-2l-123 -379h-74l-148 468h73z" unicode="w"/>
<glyph glyph-name="x" horiz-adv-x="484" d="M200 242l-173 226h87l128 -178l128 178h82l-170 -223l186 -245h-88l-139 195l-143 -195h-82z" unicode="x"/>
<glyph glyph-name="y" horiz-adv-x="488" d="M251 73h2l145 395h74l-233 -589q-21 -54 -53.5 -86.5t-93.5 -32.5q-31 0 -61 6l7 62q24 -8 50 -8q35 0 55 21.5t35 61.5l38 98l-200 467h76z" unicode="y"/>
<glyph glyph-name="z" horiz-adv-x="442" d="M401 420l-280 -361h290v-59h-380v48l279 363h-265v57h356v-48z" unicode="z"/>
<glyph glyph-name="braceleft" horiz-adv-x="300" d="M0 318q39 0 59 29t20 82v178q0 35 9 59t24 38.5t34.5 21t40.5 6.5h63v-54h-48q-18 0 -29.5 -7.5t-17.5 -19.5t-8 -27t-2 -29v-178q0 -36 -10.5 -60.5t-25 -39t-29.5 -21t-24 -7.5v-2q9 -1 24 -7.5t29.5 -21t25 -39t10.5 -60.5v-178q0 -14 2 -29t8 -27t17.5 -19.5 t29.5 -7.5h48v-54h-63q-21 0 -40.5 6.5t-34.5 21t-24 38.5t-9 59v178q0 53 -20 82t-59 29v60z" unicode="{"/>
<glyph glyph-name="bar" horiz-adv-x="222" d="M141 750v-1000h-60v1000h60z" unicode="|"/>
<glyph glyph-name="braceright" horiz-adv-x="300" d="M300 258q-39 0 -59 -29t-20 -82v-178q0 -35 -9 -59t-24 -38.5t-34.5 -21t-40.5 -6.5h-63v54h48q18 0 29.5 7.5t17.5 19.5t8 27t2 29v178q0 36 10.5 60.5t25 39t29.5 21t24 7.5v2q-9 1 -24 7.5t-29.5 21t-25 39t-10.5 60.5v178q0 14 -2 29t-8 27t-17.5 19.5t-29.5 7.5h-48 v54h63q21 0 40.5 -6.5t34.5 -21t24 -38.5t9 -59v-178q0 -53 20 -82t59 -29v-60z" unicode="}"/>
<glyph glyph-name="asciitilde" horiz-adv-x="666" d="M577 328q-10 -16 -23.5 -32.5t-30.5 -30t-37.5 -22t-44.5 -8.5q-14 0 -26.5 1.5t-25.5 5.5t-27 11t-32 18q-31 20 -54 30t-49 10q-17 0 -32 -7t-27 -17.5t-21 -23.5t-16 -25l-42 40q11 16 24.5 32.5t30 30t37 22t44.5 8.5q28 0 53.5 -7.5t56.5 -27.5q29 -19 54 -30 t49 -11q17 0 32 7t27 18t21.5 24t16.5 24z" unicode="~"/>
<glyph glyph-name="uni00A0" horiz-adv-x="250" unicode=" "/>
<glyph glyph-name="exclamdown" horiz-adv-x="328" d="M200 -229h-72v516h72v-516zM218 431q0 -21 -15 -37.5t-39 -16.5t-39 16.5t-15 37.5t15 37.5t39 16.5t39 -16.5t15 -37.5z" unicode="¡"/>
<glyph glyph-name="cent" horiz-adv-x="580" d="M298 417q-32 -6 -57.5 -22t-43.5 -40t-27.5 -55t-9.5 -66t9.5 -66t27.5 -55t43.5 -40t57.5 -22v366zM346 49q36 2 64 19.5t43 41.5l54 -41q-32 -38 -74 -58t-87 -22v-61h-48v63q-49 5 -88 25.5t-66 53t-41.5 74.5t-14.5 90t14.5 90t41.5 74.5t66 53t88 25.5v63h48v-61 q45 -2 87 -22t74 -58l-54 -41q-15 24 -43 41.5t-64 19.5v-370z" unicode="¢"/>
<glyph glyph-name="sterling" horiz-adv-x="580" d="M417 335h-168v-275h262v-60h-436v60h102v275h-96v60h96v93q0 43 10.5 85.5t35 76.5t65.5 55t101 21q44 0 84.5 -14t70.5 -46l-47 -51q-20 23 -48 36.5t-63 13.5q-45 0 -72 -19t-41.5 -47t-19 -60t-4.5 -57v-87h168v-60z" unicode="£"/>
<glyph glyph-name="currency" horiz-adv-x="580" d="M480 431q23 -29 35 -65t12 -81t-13 -83.5t-37 -67.5l86 -86l-39 -40l-88 87q-29 -22 -65.5 -34.5t-78.5 -12.5q-82 0 -145 49l-89 -89l-40 40l88 89q-48 57 -48 148q0 43 11.5 79t33.5 65l-85 85l40 39l85 -84q30 23 67 36.5t82 13.5q44 0 81 -13t66 -37l84 84l40 -39z M292 457q-38 0 -69 -13.5t-53 -37t-33.5 -55t-11.5 -66.5q0 -36 11.5 -67.5t33.5 -55.5t53 -37.5t69 -13.5t69 13.5t52.5 37.5t33.5 55.5t12 67.5q0 35 -12 66.5t-33.5 55t-52.5 37t-69 13.5z" unicode="¤"/>
<glyph glyph-name="yen" horiz-adv-x="580" d="M256 223v105h-165v54h145l-226 326h89l193 -300l192 300h86l-224 -326h143v-54h-165v-105h165v-54h-165v-169h-68v169h-165v54h165z" unicode="¥"/>
<glyph glyph-name="brokenbar" horiz-adv-x="222" d="M141 675v-350h-60v350h60zM141 175v-350h-60v350h60z" unicode="¦"/>
<glyph glyph-name="section" horiz-adv-x="580" d="M415 602q-5 11 -13.5 22.5t-22 20.5t-31.5 15t-41 6q-48 0 -78 -23.5t-30 -65.5q0 -23 8.5 -40t22 -29.5t31 -21.5t36.5 -17l87 -41q42 -20 72.5 -53.5t30.5 -88.5q0 -50 -26 -83.5t-63 -47.5q35 -21 53 -51.5t18 -73.5q0 -42 -15.5 -72.5t-42 -51t-60.5 -30t-70 -9.5 q-67 0 -120.5 28t-77.5 87l66 32q17 -47 53.5 -67t78.5 -20q18 0 38 4.5t37.5 15.5t29 30t11.5 48q0 36 -21.5 58.5t-53.5 37.5l-127 61q-20 9 -37 21t-30 27.5t-20.5 36.5t-7.5 49q0 50 29.5 84t74.5 48q-11 7 -24.5 17t-25 24t-19.5 33.5t-8 45.5q0 40 15 70t40.5 49.5 t58 29t67.5 9.5q67 0 109 -27.5t57 -66.5zM259 410q-14 -2 -29.5 -7.5t-29 -16t-22 -27t-8.5 -39.5q0 -20 7 -34.5t21 -26t34 -21.5t46 -21l66 -30q12 3 25 10t23.5 18t17.5 26t7 35q0 22 -7.5 39t-21 29.5t-31 22t-37.5 17.5z" unicode="§"/>
<glyph glyph-name="dieresis" horiz-adv-x="240" d="M-27 647q0 20 14 35.5t37 15.5t37 -15.5t14 -35.5t-14 -35.5t-37 -15.5t-37 15.5t-14 35.5zM165 647q0 20 14 35.5t37 15.5t37 -15.5t14 -35.5t-14 -35.5t-37 -15.5t-37 15.5t-14 35.5z" unicode="¨"/>
<glyph glyph-name="copyright" horiz-adv-x="800" d="M580 224q-24 -37 -67 -64t-103 -27q-49 0 -90.5 17t-71.5 47t-47 71.5t-17 90.5t17 90t47 71t71.5 47t90.5 17q48 0 92.5 -21t69.5 -58l-52 -40q-14 22 -43.5 40.5t-64.5 18.5q-37 0 -66.5 -13.5t-50 -36.5t-31.5 -52.5t-11 -62.5t10.5 -63t31 -53t49.5 -36.5t66 -13.5 q32 0 63 15t55 50zM20 353q0 79 30 147.5t81.5 119.5t121 80.5t148.5 29.5q78 0 147 -29.5t120.5 -80.5t81.5 -119.5t30 -147.5q0 -78 -30 -146.5t-81.5 -119.5t-120.5 -80t-147 -29q-79 0 -148.5 29t-121 80t-81.5 119.5t-30 146.5zM80 353q0 -66 25.5 -124t69 -101.5 t102 -68.5t124.5 -25t124 25t101.5 68.5t68.5 101.5t25 124t-25 124.5t-68.5 102t-101.5 69t-124 25.5t-124.5 -25.5t-102 -69t-69 -102t-25.5 -124.5z" unicode="©"/>
<glyph glyph-name="ordfeminine" horiz-adv-x="360" d="M244 614q0 31 -20.5 46t-52.5 15q-24 0 -46.5 -9t-36.5 -23l-32 35q22 20 53.5 31t66.5 11q63 0 93 -31.5t30 -78.5v-123q0 -14 1 -29.5t3 -26.5h-52q-5 22 -5 41h-2q-33 -48 -98 -48q-18 0 -36.5 4.5t-34 14.5t-25.5 27t-10 41q0 32 18 51t47 28.5t65.5 12.5t73.5 3v8z M229 566q-21 0 -44 -1.5t-42 -7.5t-31.5 -16.5t-12.5 -28.5q0 -25 18.5 -34.5t40.5 -9.5q41 0 63.5 23.5t22.5 59.5v15h-15z" unicode="ª"/>
<glyph glyph-name="guillemotleft" horiz-adv-x="482" d="M124 240l115 -176l-47 -33l-140 209l140 209l47 -33zM306 240l115 -176l-47 -33l-140 209l140 209l47 -33z" unicode="«"/>
<glyph glyph-name="logicalnot" horiz-adv-x="666" d="M588 130h-60v218h-450v60h510v-278z" unicode="¬"/>
<glyph glyph-name="uni00AD" horiz-adv-x="320" d="M272 214h-224v57h224v-57z" unicode="­"/>
<glyph glyph-name="registered" horiz-adv-x="600" d="M72 493q0 47 18 88.5t49 72t72.5 48.5t88.5 18t88.5 -18t72.5 -48.5t49 -72t18 -88.5t-18 -88t-49 -71.5t-72.5 -48t-88.5 -17.5t-88.5 17.5t-72.5 48t-49 71.5t-18 88zM108 493q0 -39 15 -74t41 -61.5t61 -41.5t75 -15t75 15t61 41.5t41 61.5t15 74q0 40 -15 75t-41 61 t-61 41t-75 15t-75 -15t-61 -41t-41 -61t-15 -75zM211 622h90q18 0 35 -4t30.5 -13t21.5 -23t8 -35q0 -28 -16 -45.5t-43 -23.5l69 -112h-56l-60 107h-33v-107h-46v256zM294 510q20 0 38 7.5t18 30.5q0 21 -16.5 28t-34.5 7h-42v-73h37z" unicode="®"/>
<glyph glyph-name="macron" horiz-adv-x="240" d="M255 600h-270v54h270v-54z" unicode="¯"/>
<glyph glyph-name="degree" horiz-adv-x="400" d="M349 571q0 -32 -11 -59.5t-31 -47.5t-47.5 -31t-59.5 -11t-59.5 11t-47.5 31t-31 47.5t-11 59.5t11 59.5t31 47.5t47.5 31t59.5 11t59.5 -11t47.5 -31t31 -47.5t11 -59.5zM301 571q0 21 -8 39.5t-21.5 32t-32 21.5t-39.5 8t-39.5 -8t-32 -21.5t-21.5 -32t-8 -39.5 t8 -39.5t21.5 -32t32 -21.5t39.5 -8t39.5 8t32 21.5t21.5 32t8 39.5z" unicode="°"/>
<glyph glyph-name="plusminus" horiz-adv-x="666" d="M78 407h225v156h60v-156h225v-60h-225v-151h-60v151h-225v60zM78 108h510v-60h-510v60z" unicode="±"/>
<glyph glyph-name="twosuperior" horiz-adv-x="370" d="M319 290h-276v57l167 169q16 17 29.5 37.5t13.5 48.5q0 29 -19 45.5t-48 16.5q-28 0 -48 -19t-27 -51l-60 9q10 51 47 83.5t88 32.5q26 0 50 -7.5t42 -22t28.5 -36.5t10.5 -51q0 -22 -6.5 -40.5t-16.5 -34t-22.5 -29t-25.5 -26.5l-128 -128h201v-54z" unicode="²"/>
<glyph glyph-name="threesuperior" horiz-adv-x="370" d="M137 535h27q35 0 59.5 16t24.5 54q0 28 -20 45t-49 17q-23 0 -42.5 -13t-32.5 -37l-50 26q23 40 56 58.5t71 18.5q26 0 49 -7t40.5 -21.5t27.5 -36t10 -49.5q0 -32 -15.5 -55.5t-41.5 -37.5q32 -12 50.5 -38t18.5 -64q0 -31 -11.5 -55t-30.5 -40t-44.5 -24t-53.5 -8 q-48 0 -84.5 23t-56.5 73l57 19q10 -29 32.5 -45t51.5 -16q31 0 55.5 18t24.5 55q0 20 -8.5 34t-22 22.5t-30.5 12.5t-35 4h-27v51z" unicode="³"/>
<glyph glyph-name="acute" horiz-adv-x="240" d="M118 564h-59l100 144h91z" unicode="´"/>
<glyph glyph-name="mu" horiz-adv-x="556" d="M72 468h66v-259q0 -86 27.5 -123.5t99.5 -37.5q30 0 56 12t45 35t30 56.5t11 76.5v240h66v-365q0 -26 1.5 -51.5t3.5 -51.5h-71v76h-2q-11 -18 -28 -34t-38 -28t-44.5 -19t-46.5 -7q-69 0 -110 29v-245h-66v696z" unicode="µ"/>
<glyph glyph-name="paragraph" horiz-adv-x="600" d="M513 -126h-66v780h-124v-780h-66v442q-46 0 -84.5 14.5t-66 39.5t-43 59t-15.5 73q0 98 61 152t167 54h237v-834z" unicode="¶"/>
<glyph glyph-name="periodcentered" horiz-adv-x="260" d="M184 314q0 -21 -15 -37.5t-39 -16.5t-39 16.5t-15 37.5t15 37.5t39 16.5t39 -16.5t15 -37.5z" unicode="·"/>
<glyph glyph-name="cedilla" horiz-adv-x="240" d="M109 -75q13 4 35 4q30 0 56 -18t26 -54q0 -25 -11 -42t-28 -27t-38 -14t-41 -4t-46.5 5t-47.5 15l16 36q17 -8 35 -11t37 -3q8 0 19 2t21 7.5t17 14t7 20.5q0 20 -14.5 29.5t-39.5 9.5q-22 0 -43 -8l-18 15l62 98h43z" unicode="¸"/>
<glyph glyph-name="onesuperior" horiz-adv-x="370" d="M232 286h-61v346l-64 -57l-38 41l112 92h51v-422z" unicode="¹"/>
<glyph glyph-name="ordmasculine" horiz-adv-x="360" d="M332 572q0 -32 -11.5 -59.5t-31.5 -47t-48 -30.5t-61 -11t-61 11t-48 30.5t-31.5 47t-11.5 59.5q0 33 11.5 60t31.5 46.5t48 30.5t61 11t61 -11t48 -30.5t31.5 -46.5t11.5 -60zM274 572q0 20 -6 38.5t-18 32.5t-29.5 22.5t-40.5 8.5t-40.5 -8.5t-29.5 -22.5t-18 -32.5 t-6 -38.5t6 -38.5t18 -32.5t29.5 -22.5t40.5 -8.5t40.5 8.5t29.5 22.5t18 32.5t6 38.5z" unicode="º"/>
<glyph glyph-name="guillemotright" horiz-adv-x="482" d="M358 240l-115 176l47 33l140 -209l-140 -209l-47 33zM176 240l-115 176l47 33l140 -209l-140 -209l-47 33z" unicode="»"/>
<glyph glyph-name="onequarter" horiz-adv-x="840" d="M723 152h60v-54h-60v-98h-55v98h-188v52l175 272h68v-270zM665 340l-122 -188h125v188h-3zM232 286h-61v346l-64 -57l-38 41l112 92h51v-422zM217 -31l-52 27l451 743l51 -27z" unicode="¼"/>
<glyph glyph-name="onehalf" horiz-adv-x="840" d="M786 0h-276v57l167 169q16 17 29.5 37.5t13.5 48.5q0 29 -19 45.5t-48 16.5q-28 0 -48 -19t-27 -51l-60 9q10 51 47 83.5t88 32.5q26 0 50 -7.5t42 -22t28.5 -36.5t10.5 -51q0 -22 -6.5 -40.5t-16.5 -34t-22.5 -29t-25.5 -26.5l-128 -128h201v-54zM217 -31l-52 27 l451 743l51 -27zM232 286h-61v346l-64 -57l-38 41l112 92h51v-422z" unicode="½"/>
<glyph glyph-name="threequarters" horiz-adv-x="840" d="M723 152h60v-54h-60v-98h-55v98h-188v52l175 272h68v-270zM665 340l-122 -188h125v188h-3zM137 535h27q35 0 59.5 16t24.5 54q0 28 -20 45t-49 17q-23 0 -42.5 -13t-32.5 -37l-50 26q23 40 56 58.5t71 18.5q26 0 49 -7t40.5 -21.5t27.5 -36t10 -49.5q0 -32 -15.5 -55.5 t-41.5 -37.5q32 -12 50.5 -38t18.5 -64q0 -31 -11.5 -55t-30.5 -40t-44.5 -24t-53.5 -8q-48 0 -84.5 23t-56.5 73l57 19q10 -29 32.5 -45t51.5 -16q31 0 55.5 18t24.5 55q0 20 -8.5 34t-22 22.5t-30.5 12.5t-35 4h-27v51zM217 -31l-52 27l451 743l51 -27z" unicode="¾"/>
<glyph glyph-name="questiondown" horiz-adv-x="482" d="M214 287h70v-60q0 -29 -6.5 -51t-18 -40t-26 -33t-29.5 -28l-28 -25q-25 -20 -41.5 -46t-16.5 -65q0 -28 10 -50t27 -37t39.5 -23t48.5 -8q54 0 87.5 33t41.5 84l68 -12q-15 -78 -68.5 -122.5t-131.5 -44.5q-40 0 -75.5 11.5t-61.5 34t-41.5 55.5t-15.5 75q0 32 7 56 t19.5 43t29.5 34.5t36 31.5q21 17 35.5 31t23.5 29.5t13 34.5t4 46v46zM188 431q0 21 15 37.5t39 16.5t39 -16.5t15 -37.5t-15 -37.5t-39 -16.5t-39 16.5t-15 37.5z" unicode="¿"/>
<glyph glyph-name="Agrave" horiz-adv-x="700" d="M89 0h-79l306 708h70l304 -708h-80l-78 186h-366zM193 252h312l-156 376zM192 908h91l100 -144h-59z" unicode="À"/>
<glyph glyph-name="Aacute" horiz-adv-x="700" d="M89 0h-79l306 708h70l304 -708h-80l-78 186h-366zM193 252h312l-156 376zM379 764h-59l100 144h91z" unicode="Á"/>
<glyph glyph-name="Acircumflex" horiz-adv-x="700" d="M89 0h-79l306 708h70l304 -708h-80l-78 186h-366zM193 252h312l-156 376zM498 764h-66l-83 108l-83 -108h-66l109 144h80z" unicode="Â"/>
<glyph glyph-name="Atilde" horiz-adv-x="700" d="M89 0h-79l306 708h70l304 -708h-80l-78 186h-366zM193 252h312l-156 376zM188 776q3 19 9.5 38t17.5 33.5t26.5 23.5t38.5 9q18 0 36.5 -7t36.5 -16q18 -8 35 -15.5t32 -7.5q23 0 33.5 15.5t15.5 34.5h43q-3 -20 -9.5 -38.5t-17.5 -33t-27 -23.5t-38 -9q-18 0 -37 7 t-36 16t-34 16t-33 7q-23 0 -33.5 -15.5t-15.5 -34.5h-43z" unicode="Ã"/>
<glyph glyph-name="Adieresis" horiz-adv-x="700" d="M89 0h-79l306 708h70l304 -708h-80l-78 186h-366zM193 252h312l-156 376zM204 847q0 20 14 35.5t37 15.5t37 -15.5t14 -35.5t-14 -35.5t-37 -15.5t-37 15.5t-14 35.5zM396 847q0 20 14 35.5t37 15.5t37 -15.5t14 -35.5t-14 -35.5t-37 -15.5t-37 15.5t-14 35.5z" unicode="Ä"/>
<glyph glyph-name="Aring" horiz-adv-x="700" d="M89 0h-79l306 708h70l304 -708h-80l-78 186h-366zM193 252h312l-156 376zM446 850q0 -20 -7.5 -37.5t-21 -30.5t-31 -20t-36.5 -7q-20 0 -37 7t-30.5 20t-21 30.5t-7.5 37.5t7.5 37.5t21 30t30.5 20t37 7.5q19 0 36.5 -7.5t31 -20t21 -30t7.5 -37.5zM410 850 q0 25 -17.5 42t-42.5 17t-42.5 -17t-17.5 -42t17.5 -42t42.5 -17t42.5 17t17.5 42z" unicode="Å"/>
<glyph glyph-name="AE" horiz-adv-x="990" d="M591 64h345v-64h-417v198h-298l-128 -198h-82l461 708h452v-64h-333v-244h309v-63h-309v-273zM519 261v383h-14l-247 -383h261z" unicode="Æ"/>
<glyph glyph-name="Ccedilla" horiz-adv-x="720" d="M690 114q-18 -27 -43.5 -51t-59 -42t-74 -28.5t-88.5 -10.5l-35 -57q13 4 35 4q30 0 56 -18t26 -54q0 -25 -11 -42t-28 -27t-38 -14t-41 -4t-46.5 5t-47.5 15l16 36q17 -8 35 -11t37 -3q8 0 19 2t21 7.5t17 14t7 20.5q0 20 -14.5 29.5t-39.5 9.5q-22 0 -43 -8l-18 15 l52 82q-72 7 -132.5 37.5t-104 79t-67.5 113.5t-24 140q0 81 28 149t77.5 117.5t117 77.5t146.5 28q39 0 76.5 -8t70.5 -22.5t60 -35t45 -46.5l-60 -44q-11 17 -29.5 34t-43.5 30t-54.5 21t-63.5 8q-69 0 -123.5 -25t-92.5 -67.5t-58 -98.5t-20 -118t20.5 -118t58.5 -98.5 t92.5 -67.5t122.5 -25q61 0 116 25t92 80z" unicode="Ç"/>
<glyph glyph-name="Egrave" horiz-adv-x="592" d="M166 64h379v-64h-451v708h439v-64h-367v-244h343v-63h-343v-273zM184 908h91l100 -144h-59z" unicode="È"/>
<glyph glyph-name="Eacute" horiz-adv-x="592" d="M166 64h379v-64h-451v708h439v-64h-367v-244h343v-63h-343v-273zM324 764h-59l100 144h91z" unicode="É"/>
<glyph glyph-name="Ecircumflex" horiz-adv-x="592" d="M166 64h379v-64h-451v708h439v-64h-367v-244h343v-63h-343v-273zM465 764h-66l-83 108l-83 -108h-66l109 144h80z" unicode="Ê"/>
<glyph glyph-name="Edieresis" horiz-adv-x="592" d="M166 64h379v-64h-451v708h439v-64h-367v-244h343v-63h-343v-273zM169 847q0 20 14 35.5t37 15.5t37 -15.5t14 -35.5t-14 -35.5t-37 -15.5t-37 15.5t-14 35.5zM361 847q0 20 14 35.5t37 15.5t37 -15.5t14 -35.5t-14 -35.5t-37 -15.5t-37 15.5t-14 35.5z" unicode="Ë"/>
<glyph glyph-name="Igrave" horiz-adv-x="260" d="M166 0h-72v708h72v-708zM-26 908h91l100 -144h-59z" unicode="Ì"/>
<glyph glyph-name="Iacute" horiz-adv-x="260" d="M166 0h-72v708h72v-708zM153 764h-59l100 144h91z" unicode="Í"/>
<glyph glyph-name="Icircumflex" horiz-adv-x="260" d="M166 0h-72v708h72v-708zM279 764h-66l-83 108l-83 -108h-66l109 144h80z" unicode="Î"/>
<glyph glyph-name="Idieresis" horiz-adv-x="260" d="M166 0h-72v708h72v-708zM-17 847q0 20 14 35.5t37 15.5t37 -15.5t14 -35.5t-14 -35.5t-37 -15.5t-37 15.5t-14 35.5zM175 847q0 20 14 35.5t37 15.5t37 -15.5t14 -35.5t-14 -35.5t-37 -15.5t-37 15.5t-14 35.5z" unicode="Ï"/>
<glyph glyph-name="Eth" horiz-adv-x="757" d="M86 347h-73v54h73v307h235q66 0 132.5 -22t120 -66.5t86.5 -111t33 -154.5q0 -89 -33 -155t-86.5 -110.5t-120 -66.5t-132.5 -22h-235v347zM158 66h140q81 0 140.5 24.5t99 65t58.5 92t19 106.5t-19 106.5t-58.5 92t-99 65t-140.5 24.5h-140v-241h258v-54h-258v-281z" unicode="Ð"/>
<glyph glyph-name="Ntilde" horiz-adv-x="764" d="M596 105h2v603h72v-708h-90l-412 609h-2v-609h-72v708h90zM223 776q3 19 9.5 38t17.5 33.5t26.5 23.5t38.5 9q18 0 36.5 -7t36.5 -16q18 -8 35 -15.5t32 -7.5q23 0 33.5 15.5t15.5 34.5h43q-3 -20 -9.5 -38.5t-17.5 -33t-27 -23.5t-38 -9q-18 0 -37 7t-36 16t-34 16 t-33 7q-23 0 -33.5 -15.5t-15.5 -34.5h-43z" unicode="Ñ"/>
<glyph glyph-name="Ograve" horiz-adv-x="850" d="M794 354q0 -81 -28 -149t-77.5 -117.5t-117 -77.5t-146.5 -28t-146.5 28t-117 77.5t-77.5 117.5t-28 149t28 149t77.5 117.5t117 77.5t146.5 28t146.5 -28t117 -77.5t77.5 -117.5t28 -149zM718 354q0 62 -20 118t-58 98.5t-92.5 67.5t-122.5 25t-122.5 -25t-92.5 -67.5 t-58 -98.5t-20 -118t20 -118t58 -98t92.5 -67t122.5 -25t122.5 25t92.5 67t58 98t20 118zM307 908h91l100 -144h-59z" unicode="Ò"/>
<glyph glyph-name="Oacute" horiz-adv-x="850" d="M794 354q0 -81 -28 -149t-77.5 -117.5t-117 -77.5t-146.5 -28t-146.5 28t-117 77.5t-77.5 117.5t-28 149t28 149t77.5 117.5t117 77.5t146.5 28t146.5 -28t117 -77.5t77.5 -117.5t28 -149zM718 354q0 62 -20 118t-58 98.5t-92.5 67.5t-122.5 25t-122.5 -25t-92.5 -67.5 t-58 -98.5t-20 -118t20 -118t58 -98t92.5 -67t122.5 -25t122.5 25t92.5 67t58 98t20 118zM426 764h-59l100 144h91z" unicode="Ó"/>
<glyph glyph-name="Ocircumflex" horiz-adv-x="850" d="M794 354q0 -81 -28 -149t-77.5 -117.5t-117 -77.5t-146.5 -28t-146.5 28t-117 77.5t-77.5 117.5t-28 149t28 149t77.5 117.5t117 77.5t146.5 28t146.5 -28t117 -77.5t77.5 -117.5t28 -149zM718 354q0 62 -20 118t-58 98.5t-92.5 67.5t-122.5 25t-122.5 -25t-92.5 -67.5 t-58 -98.5t-20 -118t20 -118t58 -98t92.5 -67t122.5 -25t122.5 25t92.5 67t58 98t20 118zM574 764h-66l-83 108l-83 -108h-66l109 144h80z" unicode="Ô"/>
<glyph glyph-name="Otilde" horiz-adv-x="850" d="M794 354q0 -81 -28 -149t-77.5 -117.5t-117 -77.5t-146.5 -28t-146.5 28t-117 77.5t-77.5 117.5t-28 149t28 149t77.5 117.5t117 77.5t146.5 28t146.5 -28t117 -77.5t77.5 -117.5t28 -149zM718 354q0 62 -20 118t-58 98.5t-92.5 67.5t-122.5 25t-122.5 -25t-92.5 -67.5 t-58 -98.5t-20 -118t20 -118t58 -98t92.5 -67t122.5 -25t122.5 25t92.5 67t58 98t20 118zM263 776q3 19 9.5 38t17.5 33.5t26.5 23.5t38.5 9q18 0 36.5 -7t36.5 -16q18 -8 35 -15.5t32 -7.5q23 0 33.5 15.5t15.5 34.5h43q-3 -20 -9.5 -38.5t-17.5 -33t-27 -23.5t-38 -9 q-18 0 -37 7t-36 16t-34 16t-33 7q-23 0 -33.5 -15.5t-15.5 -34.5h-43z" unicode="Õ"/>
<glyph glyph-name="Odieresis" horiz-adv-x="850" d="M794 354q0 -81 -28 -149t-77.5 -117.5t-117 -77.5t-146.5 -28t-146.5 28t-117 77.5t-77.5 117.5t-28 149t28 149t77.5 117.5t117 77.5t146.5 28t146.5 -28t117 -77.5t77.5 -117.5t28 -149zM718 354q0 62 -20 118t-58 98.5t-92.5 67.5t-122.5 25t-122.5 -25t-92.5 -67.5 t-58 -98.5t-20 -118t20 -118t58 -98t92.5 -67t122.5 -25t122.5 25t92.5 67t58 98t20 118zM278 847q0 20 14 35.5t37 15.5t37 -15.5t14 -35.5t-14 -35.5t-37 -15.5t-37 15.5t-14 35.5zM470 847q0 20 14 35.5t37 15.5t37 -15.5t14 -35.5t-14 -35.5t-37 -15.5t-37 15.5 t-14 35.5z" unicode="Ö"/>
<glyph glyph-name="multiply" horiz-adv-x="666" d="M333 346l158 159l43 -42l-159 -160l159 -159l-43 -43l-158 159l-159 -159l-42 43l159 159l-159 160l42 42z" unicode="×"/>
<glyph glyph-name="Oslash" horiz-adv-x="850" d="M698 610q46 -49 71 -114t25 -142q0 -81 -28 -149t-77.5 -117.5t-117 -77.5t-146.5 -28q-69 0 -129 21.5t-107 59.5l-76 -81l-37 34l76 82q-46 49 -71 114t-25 142q0 81 28 149t77.5 117.5t117 77.5t146.5 28q69 0 128.5 -21t107.5 -60l76 81l37 -34zM236 113 q37 -32 83.5 -49.5t105.5 -17.5q69 0 123.5 25t92 67t57.5 98t20 118q0 57 -17 110t-50 94zM616 595q-35 32 -83.5 50t-107.5 18q-69 0 -123.5 -25t-92 -67.5t-57.5 -98.5t-20 -118q0 -58 17.5 -111t51.5 -93z" unicode="Ø"/>
<glyph glyph-name="Ugrave" horiz-adv-x="710" d="M355 -18q-80 0 -131 27.5t-81 69.5t-41.5 91.5t-11.5 93.5v444h72v-436q0 -43 10 -83.5t32.5 -72t59.5 -51t91 -19.5t91 19.5t59.5 51t32.5 72t10 83.5v436h72v-444q0 -44 -11.5 -93.5t-41.5 -91.5t-81.5 -69.5t-130.5 -27.5zM224 908h91l100 -144h-59z" unicode="Ù"/>
<glyph glyph-name="Uacute" horiz-adv-x="710" d="M355 -18q-80 0 -131 27.5t-81 69.5t-41.5 91.5t-11.5 93.5v444h72v-436q0 -43 10 -83.5t32.5 -72t59.5 -51t91 -19.5t91 19.5t59.5 51t32.5 72t10 83.5v436h72v-444q0 -44 -11.5 -93.5t-41.5 -91.5t-81.5 -69.5t-130.5 -27.5zM365 764h-59l100 144h91z" unicode="Ú"/>
<glyph glyph-name="Ucircumflex" horiz-adv-x="710" d="M355 -18q-80 0 -131 27.5t-81 69.5t-41.5 91.5t-11.5 93.5v444h72v-436q0 -43 10 -83.5t32.5 -72t59.5 -51t91 -19.5t91 19.5t59.5 51t32.5 72t10 83.5v436h72v-444q0 -44 -11.5 -93.5t-41.5 -91.5t-81.5 -69.5t-130.5 -27.5zM504 764h-66l-83 108l-83 -108h-66l109 144 h80z" unicode="Û"/>
<glyph glyph-name="Udieresis" horiz-adv-x="710" d="M355 -18q-80 0 -131 27.5t-81 69.5t-41.5 91.5t-11.5 93.5v444h72v-436q0 -43 10 -83.5t32.5 -72t59.5 -51t91 -19.5t91 19.5t59.5 51t32.5 72t10 83.5v436h72v-444q0 -44 -11.5 -93.5t-41.5 -91.5t-81.5 -69.5t-130.5 -27.5zM209 847q0 20 14 35.5t37 15.5t37 -15.5 t14 -35.5t-14 -35.5t-37 -15.5t-37 15.5t-14 35.5zM401 847q0 20 14 35.5t37 15.5t37 -15.5t14 -35.5t-14 -35.5t-37 -15.5t-37 15.5t-14 35.5z" unicode="Ü"/>
<glyph glyph-name="Yacute" horiz-adv-x="602" d="M337 0h-72v305l-265 403h90l213 -343l215 343h84l-265 -403v-305zM334 764h-59l100 144h91z" unicode="Ý"/>
<glyph glyph-name="Thorn" horiz-adv-x="580" d="M94 708h72v-155h128q54 0 98 -11.5t75.5 -35t48.5 -59t17 -83.5t-17.5 -83.5t-49 -59t-76 -35.5t-98.5 -12h-126v-174h-72v708zM166 237h116q85 0 129 32t44 95q0 66 -45.5 95.5t-127.5 29.5h-116v-252z" unicode="Þ"/>
<glyph glyph-name="germandbls" horiz-adv-x="597" d="M156 0h-68v544q0 39 9.5 79t33.5 72t64.5 52.5t102.5 20.5q38 0 72.5 -12t61 -34.5t42.5 -55.5t16 -75q0 -117 -116 -159v-2q38 -5 69.5 -21.5t54 -43.5t35 -63t12.5 -79q0 -53 -17 -96.5t-48.5 -74.5t-75.5 -47.5t-99 -16.5q-12 0 -27.5 1.5t-27.5 3.5v57q10 -2 23.5 -3 t24.5 -1q80 0 128 47t48 131q0 87 -53 131t-140 44h-9v60h8q61 0 101 30.5t40 95.5q0 30 -10 53t-27.5 38.5t-40.5 23.5t-48 8q-44 0 -71 -16t-42 -40.5t-20.5 -54t-5.5 -55.5v-542z" unicode="ß"/>
<glyph glyph-name="agrave" horiz-adv-x="534" d="M385 302q0 61 -32 91t-93 30q-42 0 -78 -15t-61 -40l-38 45q29 29 76.5 48t107.5 19q38 0 71 -10.5t58 -31.5t39 -53t14 -75v-205q0 -27 2 -56t6 -49h-61q-3 17 -5 37t-2 39h-2q-32 -47 -72.5 -67.5t-97.5 -20.5q-27 0 -55.5 7.5t-52 24.5t-39 44t-15.5 66 q0 54 27.5 85.5t73.5 47t105.5 20t123.5 4.5v15zM365 234q-42 0 -84.5 -3.5t-77 -14t-56.5 -30.5t-22 -53q0 -25 9.5 -42t25.5 -27.5t35.5 -15t39.5 -4.5q36 0 64 12.5t47 34t29 49.5t10 59v35h-20zM144 708h91l100 -144h-59z" unicode="à"/>
<glyph glyph-name="aacute" horiz-adv-x="534" d="M385 302q0 61 -32 91t-93 30q-42 0 -78 -15t-61 -40l-38 45q29 29 76.5 48t107.5 19q38 0 71 -10.5t58 -31.5t39 -53t14 -75v-205q0 -27 2 -56t6 -49h-61q-3 17 -5 37t-2 39h-2q-32 -47 -72.5 -67.5t-97.5 -20.5q-27 0 -55.5 7.5t-52 24.5t-39 44t-15.5 66 q0 54 27.5 85.5t73.5 47t105.5 20t123.5 4.5v15zM365 234q-42 0 -84.5 -3.5t-77 -14t-56.5 -30.5t-22 -53q0 -25 9.5 -42t25.5 -27.5t35.5 -15t39.5 -4.5q36 0 64 12.5t47 34t29 49.5t10 59v35h-20zM274 564h-59l100 144h91z" unicode="á"/>
<glyph glyph-name="acircumflex" horiz-adv-x="534" d="M385 302q0 61 -32 91t-93 30q-42 0 -78 -15t-61 -40l-38 45q29 29 76.5 48t107.5 19q38 0 71 -10.5t58 -31.5t39 -53t14 -75v-205q0 -27 2 -56t6 -49h-61q-3 17 -5 37t-2 39h-2q-32 -47 -72.5 -67.5t-97.5 -20.5q-27 0 -55.5 7.5t-52 24.5t-39 44t-15.5 66 q0 54 27.5 85.5t73.5 47t105.5 20t123.5 4.5v15zM365 234q-42 0 -84.5 -3.5t-77 -14t-56.5 -30.5t-22 -53q0 -25 9.5 -42t25.5 -27.5t35.5 -15t39.5 -4.5q36 0 64 12.5t47 34t29 49.5t10 59v35h-20zM418 564h-66l-83 108l-83 -108h-66l109 144h80z" unicode="â"/>
<glyph glyph-name="atilde" horiz-adv-x="534" d="M385 302q0 61 -32 91t-93 30q-42 0 -78 -15t-61 -40l-38 45q29 29 76.5 48t107.5 19q38 0 71 -10.5t58 -31.5t39 -53t14 -75v-205q0 -27 2 -56t6 -49h-61q-3 17 -5 37t-2 39h-2q-32 -47 -72.5 -67.5t-97.5 -20.5q-27 0 -55.5 7.5t-52 24.5t-39 44t-15.5 66 q0 54 27.5 85.5t73.5 47t105.5 20t123.5 4.5v15zM365 234q-42 0 -84.5 -3.5t-77 -14t-56.5 -30.5t-22 -53q0 -25 9.5 -42t25.5 -27.5t35.5 -15t39.5 -4.5q36 0 64 12.5t47 34t29 49.5t10 59v35h-20zM103 576q3 19 9.5 38t17.5 33.5t26.5 23.5t38.5 9q18 0 36.5 -7t36.5 -16 q18 -8 35 -15.5t32 -7.5q23 0 33.5 15.5t15.5 34.5h43q-3 -20 -9.5 -38.5t-17.5 -33t-27 -23.5t-38 -9q-18 0 -37 7t-36 16t-34 16t-33 7q-23 0 -33.5 -15.5t-15.5 -34.5h-43z" unicode="ã"/>
<glyph glyph-name="adieresis" horiz-adv-x="534" d="M385 302q0 61 -32 91t-93 30q-42 0 -78 -15t-61 -40l-38 45q29 29 76.5 48t107.5 19q38 0 71 -10.5t58 -31.5t39 -53t14 -75v-205q0 -27 2 -56t6 -49h-61q-3 17 -5 37t-2 39h-2q-32 -47 -72.5 -67.5t-97.5 -20.5q-27 0 -55.5 7.5t-52 24.5t-39 44t-15.5 66 q0 54 27.5 85.5t73.5 47t105.5 20t123.5 4.5v15zM365 234q-42 0 -84.5 -3.5t-77 -14t-56.5 -30.5t-22 -53q0 -25 9.5 -42t25.5 -27.5t35.5 -15t39.5 -4.5q36 0 64 12.5t47 34t29 49.5t10 59v35h-20zM119 647q0 20 14 35.5t37 15.5t37 -15.5t14 -35.5t-14 -35.5t-37 -15.5 t-37 15.5t-14 35.5zM311 647q0 20 14 35.5t37 15.5t37 -15.5t14 -35.5t-14 -35.5t-37 -15.5t-37 15.5t-14 35.5z" unicode="ä"/>
<glyph glyph-name="aring" horiz-adv-x="534" d="M385 302q0 61 -32 91t-93 30q-42 0 -78 -15t-61 -40l-38 45q29 29 76.5 48t107.5 19q38 0 71 -10.5t58 -31.5t39 -53t14 -75v-205q0 -27 2 -56t6 -49h-61q-3 17 -5 37t-2 39h-2q-32 -47 -72.5 -67.5t-97.5 -20.5q-27 0 -55.5 7.5t-52 24.5t-39 44t-15.5 66 q0 54 27.5 85.5t73.5 47t105.5 20t123.5 4.5v15zM365 234q-42 0 -84.5 -3.5t-77 -14t-56.5 -30.5t-22 -53q0 -25 9.5 -42t25.5 -27.5t35.5 -15t39.5 -4.5q36 0 64 12.5t47 34t29 49.5t10 59v35h-20zM361 650q0 -20 -7.5 -37.5t-21 -30.5t-31 -20t-36.5 -7q-20 0 -37 7 t-30.5 20t-21 30.5t-7.5 37.5t7.5 37.5t21 30t30.5 20t37 7.5q19 0 36.5 -7.5t31 -20t21 -30t7.5 -37.5zM325 650q0 25 -17.5 42t-42.5 17t-42.5 -17t-17.5 -42t17.5 -42t42.5 -17t42.5 17t17.5 42z" unicode="å"/>
<glyph glyph-name="ae" horiz-adv-x="870" d="M814 248v-17t-1 -15h-370q1 -35 13.5 -66.5t34.5 -54.5t51.5 -36.5t63.5 -13.5q51 0 87.5 24.5t55.5 56.5l49 -39q-40 -53 -88 -76t-104 -23q-66 0 -114.5 29t-71.5 80q-14 -32 -34.5 -53t-46 -33.5t-54.5 -17.5t-60 -5q-30 0 -60.5 7.5t-54.5 23.5t-39 42t-15 64 q0 50 28 79t73.5 43.5t104 18.5t118.5 4v15q0 61 -29.5 99.5t-90.5 38.5q-42 0 -79.5 -15t-64.5 -40l-39 44q30 29 81.5 48.5t111.5 19.5q56 0 96.5 -25.5t57.5 -72.5q28 45 74.5 71.5t102.5 26.5q52 0 92 -18.5t67 -50t40.5 -73.5t13.5 -90zM745 270q0 67 -38 110t-106 43 q-31 0 -58.5 -12.5t-48.5 -34t-34 -49t-14 -57.5h299zM360 216q-45 0 -87.5 -2.5t-75 -11.5t-52 -27t-19.5 -49q0 -24 9 -40t24.5 -25.5t35.5 -13.5t42 -4q72 0 107.5 38t35.5 101v34h-20z" unicode="æ"/>
<glyph glyph-name="ccedilla" horiz-adv-x="500" d="M427 361q-17 27 -49.5 44.5t-70.5 17.5q-41 0 -74 -14.5t-56.5 -40t-36 -60t-12.5 -74.5t12.5 -74t35.5 -59.5t56 -40t74 -14.5q45 0 76 17t51 44l51 -38q-29 -36 -71 -57.5t-101 -23.5l-39 -63q13 4 35 4q30 0 56 -18t26 -54q0 -25 -11 -42t-28 -27t-38 -14t-41 -4 t-46.5 5t-47.5 15l16 36q17 -8 35 -11t37 -3q8 0 19 2t21 7.5t17 14t7 20.5q0 20 -14.5 29.5t-39.5 9.5q-22 0 -43 -8l-18 15l55 88q-49 6 -88.5 26.5t-67.5 52.5t-43 74t-15 91q0 53 18 98t50.5 78t78.5 51.5t103 18.5q47 0 95.5 -20.5t78.5 -60.5z" unicode="ç"/>
<glyph glyph-name="egrave" d="M447 270q-3 66 -42.5 109.5t-112.5 43.5q-34 0 -63 -12.5t-51 -34t-35 -49t-15 -57.5h319zM516 248v-15t-1 -17h-388q1 -35 14 -66t36 -54t54 -36.5t67 -13.5q53 0 91.5 24.5t58.5 56.5l51 -40q-42 -53 -92.5 -76t-108.5 -23q-52 0 -96.5 18.5t-76.5 51.5t-50.5 78 t-18.5 98t18 98t50 78t75 51.5t93 18.5q55 0 97 -18.5t70 -50t42.5 -73.5t14.5 -90zM150 708h91l100 -144h-59z" unicode="è"/>
<glyph glyph-name="eacute" d="M447 270q-3 66 -42.5 109.5t-112.5 43.5q-34 0 -63 -12.5t-51 -34t-35 -49t-15 -57.5h319zM516 248v-15t-1 -17h-388q1 -35 14 -66t36 -54t54 -36.5t67 -13.5q53 0 91.5 24.5t58.5 56.5l51 -40q-42 -53 -92.5 -76t-108.5 -23q-52 0 -96.5 18.5t-76.5 51.5t-50.5 78 t-18.5 98t18 98t50 78t75 51.5t93 18.5q55 0 97 -18.5t70 -50t42.5 -73.5t14.5 -90zM310 564h-59l100 144h91z" unicode="é"/>
<glyph glyph-name="ecircumflex" d="M447 270q-3 66 -42.5 109.5t-112.5 43.5q-34 0 -63 -12.5t-51 -34t-35 -49t-15 -57.5h319zM516 248v-15t-1 -17h-388q1 -35 14 -66t36 -54t54 -36.5t67 -13.5q53 0 91.5 24.5t58.5 56.5l51 -40q-42 -53 -92.5 -76t-108.5 -23q-52 0 -96.5 18.5t-76.5 51.5t-50.5 78 t-18.5 98t18 98t50 78t75 51.5t93 18.5q55 0 97 -18.5t70 -50t42.5 -73.5t14.5 -90zM448 564h-66l-83 108l-83 -108h-66l109 144h80z" unicode="ê"/>
<glyph glyph-name="edieresis" d="M447 270q-3 66 -42.5 109.5t-112.5 43.5q-34 0 -63 -12.5t-51 -34t-35 -49t-15 -57.5h319zM516 248v-15t-1 -17h-388q1 -35 14 -66t36 -54t54 -36.5t67 -13.5q53 0 91.5 24.5t58.5 56.5l51 -40q-42 -53 -92.5 -76t-108.5 -23q-52 0 -96.5 18.5t-76.5 51.5t-50.5 78 t-18.5 98t18 98t50 78t75 51.5t93 18.5q55 0 97 -18.5t70 -50t42.5 -73.5t14.5 -90zM152 647q0 20 14 35.5t37 15.5t37 -15.5t14 -35.5t-14 -35.5t-37 -15.5t-37 15.5t-14 35.5zM344 647q0 20 14 35.5t37 15.5t37 -15.5t14 -35.5t-14 -35.5t-37 -15.5t-37 15.5t-14 35.5z " unicode="ë"/>
<glyph glyph-name="igrave" horiz-adv-x="250" d="M159 0h-68v468h68v-468zM-33 708h91l100 -144h-59z" unicode="ì"/>
<glyph glyph-name="iacute" horiz-adv-x="250" d="M159 0h-68v468h68v-468zM150 564h-59l100 144h91z" unicode="í"/>
<glyph glyph-name="icircumflex" horiz-adv-x="250" d="M159 0h-68v468h68v-468zM276 564h-66l-83 108l-83 -108h-66l109 144h80z" unicode="î"/>
<glyph glyph-name="idieresis" horiz-adv-x="250" d="M159 0h-68v468h68v-468zM-21 647q0 20 14 35.5t37 15.5t37 -15.5t14 -35.5t-14 -35.5t-37 -15.5t-37 15.5t-14 35.5zM171 647q0 20 14 35.5t37 15.5t37 -15.5t14 -35.5t-14 -35.5t-37 -15.5t-37 15.5t-14 35.5z" unicode="ï"/>
<glyph glyph-name="eth" horiz-adv-x="611" d="M120 234q0 -39 12.5 -73t35 -59t55 -39.5t73.5 -14.5t73.5 14.5t55.5 39.5t35.5 59t12.5 73t-12.5 73t-35.5 59t-55.5 39.5t-73.5 14.5t-73.5 -14.5t-55 -39.5t-35 -59t-12.5 -73zM352 660q41 -38 76 -84t61 -98.5t41 -109.5t15 -116q0 -45 -13 -92t-42.5 -85t-77 -62.5 t-116.5 -24.5q-54 0 -99.5 18.5t-78.5 51.5t-51.5 78t-18.5 98t18.5 98t51.5 78t78.5 51.5t99.5 18.5q44 0 79 -14t71 -44l2 2q-27 57 -67.5 110.5t-88.5 94.5l-112 -57l-36 36l110 56q-25 24 -51.5 43t-48.5 34l59 37q26 -20 51.5 -40.5t48.5 -41.5l102 53l40 -35z" unicode="ð"/>
<glyph glyph-name="ntilde" horiz-adv-x="581" d="M151 468q2 -19 3 -42t1 -38h2q20 41 65 66.5t95 25.5q89 0 133.5 -53t44.5 -140v-287h-68v259q0 37 -6 67t-20.5 51.5t-39 33.5t-61.5 12q-27 0 -52.5 -11t-45.5 -33.5t-32 -57t-12 -81.5v-240h-68v365q0 19 -1 49t-3 54h65zM131 576q3 19 9.5 38t17.5 33.5t26.5 23.5 t38.5 9q18 0 36.5 -7t36.5 -16q18 -8 35 -15.5t32 -7.5q23 0 33.5 15.5t15.5 34.5h43q-3 -20 -9.5 -38.5t-17.5 -33t-27 -23.5t-38 -9q-18 0 -37 7t-36 16t-34 16t-33 7q-23 0 -33.5 -15.5t-15.5 -34.5h-43z" unicode="ñ"/>
<glyph glyph-name="ograve" horiz-adv-x="611" d="M555 234q0 -53 -18.5 -98t-51.5 -78t-79 -51.5t-101 -18.5q-54 0 -100 18.5t-79 51.5t-51.5 78t-18.5 98t18.5 98t51.5 78t79 51.5t100 18.5q55 0 101 -18.5t79 -51.5t51.5 -78t18.5 -98zM483 234q0 39 -12.5 73.5t-35.5 60t-56 40.5t-74 15t-73.5 -15t-55.5 -40.5 t-35.5 -60t-12.5 -73.5t12.5 -73.5t35.5 -60t55.5 -40t73.5 -14.5t74 14.5t56 40t35.5 60t12.5 73.5zM153 708h91l100 -144h-59z" unicode="ò"/>
<glyph glyph-name="oacute" horiz-adv-x="611" d="M555 234q0 -53 -18.5 -98t-51.5 -78t-79 -51.5t-101 -18.5q-54 0 -100 18.5t-79 51.5t-51.5 78t-18.5 98t18.5 98t51.5 78t79 51.5t100 18.5q55 0 101 -18.5t79 -51.5t51.5 -78t18.5 -98zM483 234q0 39 -12.5 73.5t-35.5 60t-56 40.5t-74 15t-73.5 -15t-55.5 -40.5 t-35.5 -60t-12.5 -73.5t12.5 -73.5t35.5 -60t55.5 -40t73.5 -14.5t74 14.5t56 40t35.5 60t12.5 73.5zM323 564h-59l100 144h91z" unicode="ó"/>
<glyph glyph-name="ocircumflex" horiz-adv-x="611" d="M555 234q0 -53 -18.5 -98t-51.5 -78t-79 -51.5t-101 -18.5q-54 0 -100 18.5t-79 51.5t-51.5 78t-18.5 98t18.5 98t51.5 78t79 51.5t100 18.5q55 0 101 -18.5t79 -51.5t51.5 -78t18.5 -98zM483 234q0 39 -12.5 73.5t-35.5 60t-56 40.5t-74 15t-73.5 -15t-55.5 -40.5 t-35.5 -60t-12.5 -73.5t12.5 -73.5t35.5 -60t55.5 -40t73.5 -14.5t74 14.5t56 40t35.5 60t12.5 73.5zM454 564h-66l-83 108l-83 -108h-66l109 144h80z" unicode="ô"/>
<glyph glyph-name="otilde" horiz-adv-x="611" d="M555 234q0 -53 -18.5 -98t-51.5 -78t-79 -51.5t-101 -18.5q-54 0 -100 18.5t-79 51.5t-51.5 78t-18.5 98t18.5 98t51.5 78t79 51.5t100 18.5q55 0 101 -18.5t79 -51.5t51.5 -78t18.5 -98zM483 234q0 39 -12.5 73.5t-35.5 60t-56 40.5t-74 15t-73.5 -15t-55.5 -40.5 t-35.5 -60t-12.5 -73.5t12.5 -73.5t35.5 -60t55.5 -40t73.5 -14.5t74 14.5t56 40t35.5 60t12.5 73.5zM143 576q3 19 9.5 38t17.5 33.5t26.5 23.5t38.5 9q18 0 36.5 -7t36.5 -16q18 -8 35 -15.5t32 -7.5q23 0 33.5 15.5t15.5 34.5h43q-3 -20 -9.5 -38.5t-17.5 -33t-27 -23.5 t-38 -9q-18 0 -37 7t-36 16t-34 16t-33 7q-23 0 -33.5 -15.5t-15.5 -34.5h-43z" unicode="õ"/>
<glyph glyph-name="odieresis" horiz-adv-x="611" d="M555 234q0 -53 -18.5 -98t-51.5 -78t-79 -51.5t-101 -18.5q-54 0 -100 18.5t-79 51.5t-51.5 78t-18.5 98t18.5 98t51.5 78t79 51.5t100 18.5q55 0 101 -18.5t79 -51.5t51.5 -78t18.5 -98zM483 234q0 39 -12.5 73.5t-35.5 60t-56 40.5t-74 15t-73.5 -15t-55.5 -40.5 t-35.5 -60t-12.5 -73.5t12.5 -73.5t35.5 -60t55.5 -40t73.5 -14.5t74 14.5t56 40t35.5 60t12.5 73.5zM158 647q0 20 14 35.5t37 15.5t37 -15.5t14 -35.5t-14 -35.5t-37 -15.5t-37 15.5t-14 35.5zM350 647q0 20 14 35.5t37 15.5t37 -15.5t14 -35.5t-14 -35.5t-37 -15.5 t-37 15.5t-14 35.5z" unicode="ö"/>
<glyph glyph-name="divide" horiz-adv-x="666" d="M588 273h-510v60h510v-60zM387 465q0 -21 -15 -37.5t-39 -16.5t-39 16.5t-15 37.5t15 37.5t39 16.5t39 -16.5t15 -37.5zM387 141q0 -21 -15 -37.5t-39 -16.5t-39 16.5t-15 37.5t15 37.5t39 16.5t39 -16.5t15 -37.5z" unicode="÷"/>
<glyph glyph-name="oslash" horiz-adv-x="611" d="M188 82q23 -18 51.5 -28.5t63.5 -10.5q42 0 75.5 15t57.5 40.5t37 60.5t13 75q0 32 -9 63.5t-27 53.5zM421 385q-20 20 -50.5 30t-65.5 10q-42 0 -75 -15t-56.5 -41t-36 -60.5t-12.5 -74.5q0 -34 8.5 -65t25.5 -53zM495 397q27 -31 43.5 -72.5t16.5 -90.5 q0 -53 -18.5 -98t-52 -78t-79.5 -51.5t-101 -18.5q-48 0 -87.5 14t-69.5 38l-67 -68l-32 31l66 68q-28 32 -43 73.5t-15 89.5q0 53 18.5 98t51.5 78t78.5 51.5t99.5 18.5q47 0 87 -13.5t72 -38.5l66 68l32 -31z" unicode="ø"/>
<glyph glyph-name="ugrave" horiz-adv-x="581" d="M430 0q-2 19 -3 42t-1 38h-2q-20 -41 -65 -66.5t-95 -25.5q-89 0 -133.5 53t-44.5 140v287h68v-259q0 -37 6 -67t20.5 -51.5t39 -33.5t61.5 -12q27 0 52.5 11t45.5 33.5t32 57t12 81.5v240h68v-365q0 -19 1 -49t3 -54h-65zM145 708h91l100 -144h-59z" unicode="ù"/>
<glyph glyph-name="uacute" horiz-adv-x="581" d="M430 0q-2 19 -3 42t-1 38h-2q-20 -41 -65 -66.5t-95 -25.5q-89 0 -133.5 53t-44.5 140v287h68v-259q0 -37 6 -67t20.5 -51.5t39 -33.5t61.5 -12q27 0 52.5 11t45.5 33.5t32 57t12 81.5v240h68v-365q0 -19 1 -49t3 -54h-65zM300 564h-59l100 144h91z" unicode="ú"/>
<glyph glyph-name="ucircumflex" horiz-adv-x="581" d="M430 0q-2 19 -3 42t-1 38h-2q-20 -41 -65 -66.5t-95 -25.5q-89 0 -133.5 53t-44.5 140v287h68v-259q0 -37 6 -67t20.5 -51.5t39 -33.5t61.5 -12q27 0 52.5 11t45.5 33.5t32 57t12 81.5v240h68v-365q0 -19 1 -49t3 -54h-65zM438 564h-66l-83 108l-83 -108h-66l109 144h80z " unicode="û"/>
<glyph glyph-name="udieresis" horiz-adv-x="581" d="M430 0q-2 19 -3 42t-1 38h-2q-20 -41 -65 -66.5t-95 -25.5q-89 0 -133.5 53t-44.5 140v287h68v-259q0 -37 6 -67t20.5 -51.5t39 -33.5t61.5 -12q27 0 52.5 11t45.5 33.5t32 57t12 81.5v240h68v-365q0 -19 1 -49t3 -54h-65zM142 647q0 20 14 35.5t37 15.5t37 -15.5 t14 -35.5t-14 -35.5t-37 -15.5t-37 15.5t-14 35.5zM334 647q0 20 14 35.5t37 15.5t37 -15.5t14 -35.5t-14 -35.5t-37 -15.5t-37 15.5t-14 35.5z" unicode="ü"/>
<glyph glyph-name="yacute" horiz-adv-x="488" d="M251 73h2l145 395h74l-233 -589q-21 -54 -53.5 -86.5t-93.5 -32.5q-31 0 -61 6l7 62q24 -8 50 -8q35 0 55 21.5t35 61.5l38 98l-200 467h76zM267 564h-59l100 144h91z" unicode="ý"/>
<glyph glyph-name="thorn" horiz-adv-x="633" d="M334 -12q-52 0 -98.5 22.5t-75.5 68.5h-2v-319h-66v996h66v-369h2q30 46 76.5 69.5t97.5 23.5q52 0 96.5 -18.5t77 -51.5t51 -78t18.5 -98t-18.5 -98t-51 -78t-77 -51.5t-96.5 -18.5zM505 234q0 39 -12.5 73t-35.5 59t-55.5 39.5t-73.5 14.5t-73.5 -14.5t-55 -39.5 t-35 -59t-12.5 -73t12.5 -73t35 -59t55 -39.5t73.5 -14.5t73.5 14.5t55.5 39.5t35.5 59t12.5 73z" unicode="þ"/>
<glyph glyph-name="ydieresis" horiz-adv-x="488" d="M251 73h2l145 395h74l-233 -589q-21 -54 -53.5 -86.5t-93.5 -32.5q-31 0 -61 6l7 62q24 -8 50 -8q35 0 55 21.5t35 61.5l38 98l-200 467h76zM105 647q0 20 14 35.5t37 15.5t37 -15.5t14 -35.5t-14 -35.5t-37 -15.5t-37 15.5t-14 35.5zM297 647q0 20 14 35.5t37 15.5 t37 -15.5t14 -35.5t-14 -35.5t-37 -15.5t-37 15.5t-14 35.5z" unicode="ÿ"/>
<glyph glyph-name="Amacron" horiz-adv-x="700" d="M89 0h-79l306 708h70l304 -708h-80l-78 186h-366zM193 252h312l-156 376zM486 800h-270v54h270v-54z" unicode="Ā"/>
<glyph glyph-name="amacron" horiz-adv-x="534" d="M385 302q0 61 -32 91t-93 30q-42 0 -78 -15t-61 -40l-38 45q29 29 76.5 48t107.5 19q38 0 71 -10.5t58 -31.5t39 -53t14 -75v-205q0 -27 2 -56t6 -49h-61q-3 17 -5 37t-2 39h-2q-32 -47 -72.5 -67.5t-97.5 -20.5q-27 0 -55.5 7.5t-52 24.5t-39 44t-15.5 66 q0 54 27.5 85.5t73.5 47t105.5 20t123.5 4.5v15zM365 234q-42 0 -84.5 -3.5t-77 -14t-56.5 -30.5t-22 -53q0 -25 9.5 -42t25.5 -27.5t35.5 -15t39.5 -4.5q36 0 64 12.5t47 34t29 49.5t10 59v35h-20zM405 600h-270v54h270v-54z" unicode="ā"/>
<glyph glyph-name="Abreve" horiz-adv-x="700" d="M89 0h-79l306 708h70l304 -708h-80l-78 186h-366zM193 252h312l-156 376zM498 908q-4 -63 -44.5 -97.5t-102.5 -34.5t-102.5 34.5t-44.5 97.5h44q7 -39 36 -58.5t67 -19.5t67 19.5t36 58.5h44z" unicode="Ă"/>
<glyph glyph-name="abreve" horiz-adv-x="534" d="M385 302q0 61 -32 91t-93 30q-42 0 -78 -15t-61 -40l-38 45q29 29 76.5 48t107.5 19q38 0 71 -10.5t58 -31.5t39 -53t14 -75v-205q0 -27 2 -56t6 -49h-61q-3 17 -5 37t-2 39h-2q-32 -47 -72.5 -67.5t-97.5 -20.5q-27 0 -55.5 7.5t-52 24.5t-39 44t-15.5 66 q0 54 27.5 85.5t73.5 47t105.5 20t123.5 4.5v15zM365 234q-42 0 -84.5 -3.5t-77 -14t-56.5 -30.5t-22 -53q0 -25 9.5 -42t25.5 -27.5t35.5 -15t39.5 -4.5q36 0 64 12.5t47 34t29 49.5t10 59v35h-20zM420 708q-4 -63 -44.5 -97.5t-102.5 -34.5t-102.5 34.5t-44.5 97.5h44 q7 -39 36 -58.5t67 -19.5t67 19.5t36 58.5h44z" unicode="ă"/>
<glyph glyph-name="Aogonek" horiz-adv-x="700" d="M701 -187q-17 -17 -41 -26.5t-49 -9.5q-18 0 -34 6t-28.5 17.5t-20 27t-7.5 34.5q0 21 8 40.5t21 37t29 33t31 27.5l-78 186h-366l-77 -186h-79l306 708h70l304 -708h-32q-37 -37 -57 -64.5t-20 -56.5q0 -21 15 -34.5t35 -13.5q14 0 27.5 5.5t23.5 16.5zM193 252h312 l-156 376z" unicode="Ą"/>
<glyph glyph-name="aogonek" horiz-adv-x="534" d="M489 -187q-17 -17 -41 -26.5t-49 -9.5q-18 0 -34 6t-28.5 17.5t-20 27t-7.5 34.5q0 21 8 40.5t21 37t29 33t31 27.5h-2q-3 17 -5 37t-2 39h-2q-32 -47 -72.5 -67.5t-97.5 -20.5q-27 0 -55.5 7.5t-52 24.5t-39 44t-15.5 66q0 54 27.5 85.5t73.5 47t105.5 20t123.5 4.5v15 q0 61 -32 91t-93 30q-42 0 -78 -15t-61 -40l-38 45q29 29 76.5 48t107.5 19q38 0 71 -10.5t58 -31.5t39 -53t14 -75v-205q0 -27 2 -56t6 -49h-11q-37 -37 -57 -64.5t-20 -56.5q0 -21 15 -34.5t35 -13.5q14 0 27.5 5.5t23.5 16.5zM365 234q-42 0 -84.5 -3.5t-77 -14 t-56.5 -30.5t-22 -53q0 -25 9.5 -42t25.5 -27.5t35.5 -15t39.5 -4.5q36 0 64 12.5t47 34t29 49.5t10 59v35h-20z" unicode="ą"/>
<glyph glyph-name="Cacute" horiz-adv-x="720" d="M690 114q-18 -27 -43.5 -51t-59 -42t-74 -28.5t-88.5 -10.5q-80 0 -148 28t-117 77.5t-76.5 117.5t-27.5 149t28 149t77.5 117.5t117 77.5t146.5 28q39 0 76.5 -8t70.5 -22.5t60 -35t45 -46.5l-60 -44q-11 17 -29.5 34t-43.5 30t-54.5 21t-63.5 8q-69 0 -123.5 -25 t-92.5 -67.5t-58 -98.5t-20 -118t20.5 -118t58.5 -98.5t92.5 -67.5t122.5 -25q61 0 116 25t92 80zM428 764h-59l100 144h91z" unicode="Ć"/>
<glyph glyph-name="cacute" horiz-adv-x="500" d="M427 361q-17 27 -49.5 44.5t-70.5 17.5q-41 0 -74 -14.5t-56.5 -40t-36 -60t-12.5 -74.5t12.5 -74t35.5 -59.5t56 -40t74 -14.5q45 0 76 17t51 44l51 -38q-30 -37 -73.5 -59t-104.5 -22q-57 0 -103 18.5t-78.5 51.5t-50.5 78t-18 98t18 98t50.5 78t78.5 51.5t103 18.5 q47 0 95.5 -20.5t78.5 -60.5zM309 564h-59l100 144h91z" unicode="ć"/>
<glyph glyph-name="Ccircumflex" horiz-adv-x="720" d="M690 114q-18 -27 -43.5 -51t-59 -42t-74 -28.5t-88.5 -10.5q-80 0 -148 28t-117 77.5t-76.5 117.5t-27.5 149t28 149t77.5 117.5t117 77.5t146.5 28q39 0 76.5 -8t70.5 -22.5t60 -35t45 -46.5l-60 -44q-11 17 -29.5 34t-43.5 30t-54.5 21t-63.5 8q-69 0 -123.5 -25 t-92.5 -67.5t-58 -98.5t-20 -118t20.5 -118t58.5 -98.5t92.5 -67.5t122.5 -25q61 0 116 25t92 80zM573 764h-66l-83 108l-83 -108h-66l109 144h80z" unicode="Ĉ"/>
<glyph glyph-name="ccircumflex" horiz-adv-x="500" d="M427 361q-17 27 -49.5 44.5t-70.5 17.5q-41 0 -74 -14.5t-56.5 -40t-36 -60t-12.5 -74.5t12.5 -74t35.5 -59.5t56 -40t74 -14.5q45 0 76 17t51 44l51 -38q-30 -37 -73.5 -59t-104.5 -22q-57 0 -103 18.5t-78.5 51.5t-50.5 78t-18 98t18 98t50.5 78t78.5 51.5t103 18.5 q47 0 95.5 -20.5t78.5 -60.5zM452 564h-66l-83 108l-83 -108h-66l109 144h80z" unicode="ĉ"/>
<glyph glyph-name="Cdotaccent" horiz-adv-x="720" d="M690 114q-18 -27 -43.5 -51t-59 -42t-74 -28.5t-88.5 -10.5q-80 0 -148 28t-117 77.5t-76.5 117.5t-27.5 149t28 149t77.5 117.5t117 77.5t146.5 28q39 0 76.5 -8t70.5 -22.5t60 -35t45 -46.5l-60 -44q-11 17 -29.5 34t-43.5 30t-54.5 21t-63.5 8q-69 0 -123.5 -25 t-92.5 -67.5t-58 -98.5t-20 -118t20.5 -118t58.5 -98.5t92.5 -67.5t122.5 -25q61 0 116 25t92 80zM463 848q0 -21 -15 -34.5t-33 -13.5t-33 13.5t-15 34.5t15 34.5t33 13.5t33 -13.5t15 -34.5z" unicode="Ċ"/>
<glyph glyph-name="cdotaccent" horiz-adv-x="500" d="M427 361q-17 27 -49.5 44.5t-70.5 17.5q-41 0 -74 -14.5t-56.5 -40t-36 -60t-12.5 -74.5t12.5 -74t35.5 -59.5t56 -40t74 -14.5q45 0 76 17t51 44l51 -38q-30 -37 -73.5 -59t-104.5 -22q-57 0 -103 18.5t-78.5 51.5t-50.5 78t-18 98t18 98t50.5 78t78.5 51.5t103 18.5 q47 0 95.5 -20.5t78.5 -60.5zM343 648q0 -21 -15 -34.5t-33 -13.5t-33 13.5t-15 34.5t15 34.5t33 13.5t33 -13.5t15 -34.5z" unicode="ċ"/>
<glyph glyph-name="Ccaron" horiz-adv-x="720" d="M690 114q-18 -27 -43.5 -51t-59 -42t-74 -28.5t-88.5 -10.5q-80 0 -148 28t-117 77.5t-76.5 117.5t-27.5 149t28 149t77.5 117.5t117 77.5t146.5 28q39 0 76.5 -8t70.5 -22.5t60 -35t45 -46.5l-60 -44q-11 17 -29.5 34t-43.5 30t-54.5 21t-63.5 8q-69 0 -123.5 -25 t-92.5 -67.5t-58 -98.5t-20 -118t20.5 -118t58.5 -98.5t92.5 -67.5t122.5 -25q61 0 116 25t92 80zM463 764h-80l-109 144h66l83 -108l83 108h66z" unicode="Č"/>
<glyph glyph-name="ccaron" horiz-adv-x="500" d="M427 361q-17 27 -49.5 44.5t-70.5 17.5q-41 0 -74 -14.5t-56.5 -40t-36 -60t-12.5 -74.5t12.5 -74t35.5 -59.5t56 -40t74 -14.5q45 0 76 17t51 44l51 -38q-30 -37 -73.5 -59t-104.5 -22q-57 0 -103 18.5t-78.5 51.5t-50.5 78t-18 98t18 98t50.5 78t78.5 51.5t103 18.5 q47 0 95.5 -20.5t78.5 -60.5zM344 564h-80l-109 144h66l83 -108l83 108h66z" unicode="č"/>
<glyph glyph-name="Dcaron" horiz-adv-x="757" d="M94 708h235q66 0 132.5 -22t120 -66.5t86.5 -111t33 -154.5q0 -89 -33 -155t-86.5 -110.5t-120 -66.5t-132.5 -22h-235v708zM166 64h143q80 0 139.5 25t98.5 65.5t58.5 92.5t19.5 107t-19.5 107t-58.5 92.5t-98.5 65.5t-139.5 25h-143v-580zM387 764h-80l-109 144h66 l83 -108l83 108h66z" unicode="Ď"/>
<glyph glyph-name="dcaron" horiz-adv-x="637" d="M475 79q-30 -45 -78 -68t-99 -23q-55 0 -99.5 19t-76 52t-49 78t-17.5 97t17.5 97t49 78t76 52t99.5 19q51 0 99 -23.5t78 -69.5h2v369h68v-756h-68v79h-2zM128 234q0 -39 12 -73.5t34.5 -60t55.5 -40t75 -14.5q39 0 72 14.5t57 39.5t37.5 59.5t13.5 74.5t-13.5 74.5 t-37.5 60t-57 40t-72 14.5q-42 0 -75 -15t-55.5 -40.5t-34.5 -60t-12 -73.5zM658 523h-57l62 185h71z" unicode="ď"/>
<glyph glyph-name="Dcroat" horiz-adv-x="757" d="M86 347h-73v54h73v307h235q66 0 132.5 -22t120 -66.5t86.5 -111t33 -154.5q0 -89 -33 -155t-86.5 -110.5t-120 -66.5t-132.5 -22h-235v347zM158 66h140q81 0 140.5 24.5t99 65t58.5 92t19 106.5t-19 106.5t-58.5 92t-99 65t-140.5 24.5h-140v-241h258v-54h-258v-281z" unicode="Đ"/>
<glyph glyph-name="dcroat" horiz-adv-x="637" d="M477 620v136h68v-136h56v-50h-56v-570h-68v79h-2q-30 -45 -78 -68t-99 -23q-55 0 -99.5 19t-76 52t-49 78t-17.5 97t17.5 97t49 78t76 52t99.5 19q51 0 99 -23.5t78 -69.5h2v183h-156v50h156zM128 234q0 -39 12 -73.5t34.5 -60t55.5 -40t75 -14.5q39 0 72 14.5t57 39.5 t37.5 59.5t13.5 74.5t-13.5 74.5t-37.5 60t-57 40t-72 14.5q-42 0 -75 -15t-55.5 -40.5t-34.5 -60t-12 -73.5z" unicode="đ"/>
<glyph glyph-name="Emacron" horiz-adv-x="592" d="M166 64h379v-64h-451v708h439v-64h-367v-244h343v-63h-343v-273zM452 800h-270v54h270v-54z" unicode="Ē"/>
<glyph glyph-name="emacron" d="M447 270q-3 66 -42.5 109.5t-112.5 43.5q-34 0 -63 -12.5t-51 -34t-35 -49t-15 -57.5h319zM516 248v-15t-1 -17h-388q1 -35 14 -66t36 -54t54 -36.5t67 -13.5q53 0 91.5 24.5t58.5 56.5l51 -40q-42 -53 -92.5 -76t-108.5 -23q-52 0 -96.5 18.5t-76.5 51.5t-50.5 78 t-18.5 98t18 98t50 78t75 51.5t93 18.5q55 0 97 -18.5t70 -50t42.5 -73.5t14.5 -90zM431 600h-270v54h270v-54z" unicode="ē"/>
<glyph glyph-name="Ebreve" horiz-adv-x="592" d="M166 64h379v-64h-451v708h439v-64h-367v-244h343v-63h-343v-273zM463 908q-4 -63 -44.5 -97.5t-102.5 -34.5t-102.5 34.5t-44.5 97.5h44q7 -39 36 -58.5t67 -19.5t67 19.5t36 58.5h44z" unicode="Ĕ"/>
<glyph glyph-name="ebreve" d="M447 270q-3 66 -42.5 109.5t-112.5 43.5q-34 0 -63 -12.5t-51 -34t-35 -49t-15 -57.5h319zM516 248v-15t-1 -17h-388q1 -35 14 -66t36 -54t54 -36.5t67 -13.5q53 0 91.5 24.5t58.5 56.5l51 -40q-42 -53 -92.5 -76t-108.5 -23q-52 0 -96.5 18.5t-76.5 51.5t-50.5 78 t-18.5 98t18 98t50 78t75 51.5t93 18.5q55 0 97 -18.5t70 -50t42.5 -73.5t14.5 -90zM441 708q-4 -63 -44.5 -97.5t-102.5 -34.5t-102.5 34.5t-44.5 97.5h44q7 -39 36 -58.5t67 -19.5t67 19.5t36 58.5h44z" unicode="ĕ"/>
<glyph glyph-name="Edotaccent" horiz-adv-x="592" d="M166 64h379v-64h-451v708h439v-64h-367v-244h343v-63h-343v-273zM369 848q0 -21 -15 -34.5t-33 -13.5t-33 13.5t-15 34.5t15 34.5t33 13.5t33 -13.5t15 -34.5z" unicode="Ė"/>
<glyph glyph-name="edotaccent" d="M447 270q-3 66 -42.5 109.5t-112.5 43.5q-34 0 -63 -12.5t-51 -34t-35 -49t-15 -57.5h319zM516 248v-15t-1 -17h-388q1 -35 14 -66t36 -54t54 -36.5t67 -13.5q53 0 91.5 24.5t58.5 56.5l51 -40q-42 -53 -92.5 -76t-108.5 -23q-52 0 -96.5 18.5t-76.5 51.5t-50.5 78 t-18.5 98t18 98t50 78t75 51.5t93 18.5q55 0 97 -18.5t70 -50t42.5 -73.5t14.5 -90zM342 648q0 -21 -15 -34.5t-33 -13.5t-33 13.5t-15 34.5t15 34.5t33 13.5t33 -13.5t15 -34.5z" unicode="ė"/>
<glyph glyph-name="Eogonek" horiz-adv-x="592" d="M572 -187q-17 -17 -41 -26.5t-49 -9.5q-18 0 -34 6t-28.5 17.5t-20 27t-7.5 34.5q0 21 8 40.5t21 37t29 33t31 27.5h-387v708h439v-64h-367v-244h343v-63h-343v-273h379v-64h-16q-37 -37 -57 -64.5t-20 -56.5q0 -21 15 -34.5t35 -13.5q14 0 27.5 5.5t23.5 16.5z" unicode="Ę"/>
<glyph glyph-name="eogonek" d="M399 -187q-17 -17 -41 -26.5t-49 -9.5q-18 0 -34 6t-28.5 17.5t-20 27t-7.5 34.5q0 38 23 70t51 56q-51 1 -94.5 19.5t-75 51.5t-49.5 77.5t-18 97.5t18 98t50 78t75 51.5t93 18.5q55 0 97 -18.5t70 -50t42.5 -73.5t14.5 -90v-15t-1 -17h-388q1 -35 14 -66t36 -54 t54 -36.5t67 -13.5q53 0 91.5 24.5t58.5 56.5l51 -40q-32 -42 -70 -64t-81 -30q-33 -34 -51 -60t-18 -54q0 -21 15 -34.5t35 -13.5q14 0 27.5 5.5t23.5 16.5zM447 270q-3 66 -42.5 109.5t-112.5 43.5q-34 0 -63 -12.5t-51 -34t-35 -49t-15 -57.5h319z" unicode="ę"/>
<glyph glyph-name="Ecaron" horiz-adv-x="592" d="M166 64h379v-64h-451v708h439v-64h-367v-244h343v-63h-343v-273zM357 764h-80l-109 144h66l83 -108l83 108h66z" unicode="Ě"/>
<glyph glyph-name="ecaron" d="M447 270q-3 66 -42.5 109.5t-112.5 43.5q-34 0 -63 -12.5t-51 -34t-35 -49t-15 -57.5h319zM516 248v-15t-1 -17h-388q1 -35 14 -66t36 -54t54 -36.5t67 -13.5q53 0 91.5 24.5t58.5 56.5l51 -40q-42 -53 -92.5 -76t-108.5 -23q-52 0 -96.5 18.5t-76.5 51.5t-50.5 78 t-18.5 98t18 98t50 78t75 51.5t93 18.5q55 0 97 -18.5t70 -50t42.5 -73.5t14.5 -90zM334 564h-80l-109 144h66l83 -108l83 108h66z" unicode="ě"/>
<glyph glyph-name="Gcircumflex" horiz-adv-x="779" d="M631 581q-37 39 -88 60.5t-117 21.5q-68 0 -122.5 -25t-92.5 -67.5t-58.5 -98.5t-20.5 -118t20.5 -118t58.5 -98t92.5 -67t122.5 -25q60 0 110 13t81 33v215h-165v63h237v-319q-58 -35 -125 -52t-139 -17q-80 0 -148 28t-117 77.5t-76.5 117.5t-27.5 149t28 149 t77.5 117.5t117 77.5t146.5 28q85 0 148 -25t108 -70zM579 764h-66l-83 108l-83 -108h-66l109 144h80z" unicode="Ĝ"/>
<glyph glyph-name="gcircumflex" horiz-adv-x="632" d="M115 -94q28 -36 76.5 -61t102.5 -25q50 0 85 14.5t56.5 39.5t31.5 58.5t10 71.5v88h-2q-27 -44 -76.5 -68t-100.5 -24q-55 0 -99.5 18t-76 49.5t-49 75.5t-17.5 95q0 50 17.5 94t49 77t76 52t99.5 19q51 0 100 -24t77 -69h2v81h68v-464q0 -38 -10.5 -81t-39 -79 t-77.5 -60t-127 -24q-65 0 -124 25t-101 69zM128 240q0 -37 12 -70t34.5 -58t55.5 -39.5t75 -14.5q39 0 72 13t57 37t37.5 57.5t13.5 74.5q0 37 -13.5 70t-37.5 58t-57 40t-72 15q-42 0 -75 -15t-55.5 -40t-34.5 -58t-12 -70zM457 564h-66l-83 108l-83 -108h-66l109 144h80z " unicode="ĝ"/>
<glyph glyph-name="Gbreve" horiz-adv-x="779" d="M631 581q-37 39 -88 60.5t-117 21.5q-68 0 -122.5 -25t-92.5 -67.5t-58.5 -98.5t-20.5 -118t20.5 -118t58.5 -98t92.5 -67t122.5 -25q60 0 110 13t81 33v215h-165v63h237v-319q-58 -35 -125 -52t-139 -17q-80 0 -148 28t-117 77.5t-76.5 117.5t-27.5 149t28 149 t77.5 117.5t117 77.5t146.5 28q85 0 148 -25t108 -70zM573 908q-4 -63 -44.5 -97.5t-102.5 -34.5t-102.5 34.5t-44.5 97.5h44q7 -39 36 -58.5t67 -19.5t67 19.5t36 58.5h44z" unicode="Ğ"/>
<glyph glyph-name="gbreve" horiz-adv-x="632" d="M115 -94q28 -36 76.5 -61t102.5 -25q50 0 85 14.5t56.5 39.5t31.5 58.5t10 71.5v88h-2q-27 -44 -76.5 -68t-100.5 -24q-55 0 -99.5 18t-76 49.5t-49 75.5t-17.5 95q0 50 17.5 94t49 77t76 52t99.5 19q51 0 100 -24t77 -69h2v81h68v-464q0 -38 -10.5 -81t-39 -79 t-77.5 -60t-127 -24q-65 0 -124 25t-101 69zM128 240q0 -37 12 -70t34.5 -58t55.5 -39.5t75 -14.5q39 0 72 13t57 37t37.5 57.5t13.5 74.5q0 37 -13.5 70t-37.5 58t-57 40t-72 15q-42 0 -75 -15t-55.5 -40t-34.5 -58t-12 -70zM457 708q-4 -63 -44.5 -97.5t-102.5 -34.5 t-102.5 34.5t-44.5 97.5h44q7 -39 36 -58.5t67 -19.5t67 19.5t36 58.5h44z" unicode="ğ"/>
<glyph glyph-name="Gdotaccent" horiz-adv-x="779" d="M631 581q-37 39 -88 60.5t-117 21.5q-68 0 -122.5 -25t-92.5 -67.5t-58.5 -98.5t-20.5 -118t20.5 -118t58.5 -98t92.5 -67t122.5 -25q60 0 110 13t81 33v215h-165v63h237v-319q-58 -35 -125 -52t-139 -17q-80 0 -148 28t-117 77.5t-76.5 117.5t-27.5 149t28 149 t77.5 117.5t117 77.5t146.5 28q85 0 148 -25t108 -70zM473 848q0 -21 -15 -34.5t-33 -13.5t-33 13.5t-15 34.5t15 34.5t33 13.5t33 -13.5t15 -34.5z" unicode="Ġ"/>
<glyph glyph-name="gdotaccent" horiz-adv-x="632" d="M115 -94q28 -36 76.5 -61t102.5 -25q50 0 85 14.5t56.5 39.5t31.5 58.5t10 71.5v88h-2q-27 -44 -76.5 -68t-100.5 -24q-55 0 -99.5 18t-76 49.5t-49 75.5t-17.5 95q0 50 17.5 94t49 77t76 52t99.5 19q51 0 100 -24t77 -69h2v81h68v-464q0 -38 -10.5 -81t-39 -79 t-77.5 -60t-127 -24q-65 0 -124 25t-101 69zM128 240q0 -37 12 -70t34.5 -58t55.5 -39.5t75 -14.5q39 0 72 13t57 37t37.5 57.5t13.5 74.5q0 37 -13.5 70t-37.5 58t-57 40t-72 15q-42 0 -75 -15t-55.5 -40t-34.5 -58t-12 -70zM355 648q0 -21 -15 -34.5t-33 -13.5t-33 13.5 t-15 34.5t15 34.5t33 13.5t33 -13.5t15 -34.5z" unicode="ġ"/>
<glyph glyph-name="Gcommaaccent" horiz-adv-x="783" d="M631 581q-37 39 -88 60.5t-117 21.5q-68 0 -122.5 -25t-92.5 -67.5t-58.5 -98.5t-20.5 -118t20.5 -118t58.5 -98t92.5 -67t122.5 -25q60 0 110 13t81 33v215h-165v63h237v-319q-58 -35 -125 -52t-139 -17q-80 0 -148 28t-117 77.5t-76.5 117.5t-27.5 149t28 149 t77.5 117.5t117 77.5t146.5 28q85 0 148 -25t108 -70zM400 -230h-57l62 185h71z" unicode="Ģ"/>
<glyph glyph-name="gcommaaccent" horiz-adv-x="632" d="M115 -94q28 -36 76.5 -61t102.5 -25q50 0 85 14.5t56.5 39.5t31.5 58.5t10 71.5v88h-2q-27 -44 -76.5 -68t-100.5 -24q-55 0 -99.5 18t-76 49.5t-49 75.5t-17.5 95q0 50 17.5 94t49 77t76 52t99.5 19q51 0 100 -24t77 -69h2v81h68v-464q0 -38 -10.5 -81t-39 -79 t-77.5 -60t-127 -24q-65 0 -124 25t-101 69zM128 240q0 -37 12 -70t34.5 -58t55.5 -39.5t75 -14.5q39 0 72 13t57 37t37.5 57.5t13.5 74.5q0 37 -13.5 70t-37.5 58t-57 40t-72 15q-42 0 -75 -15t-55.5 -40t-34.5 -58t-12 -70zM357 749h57l-62 -185h-71z" unicode="ģ"/>
<glyph glyph-name="Hcircumflex" horiz-adv-x="718" d="M94 708h72v-307h386v307h72v-708h-72v335h-386v-335h-72v708zM507 764h-66l-83 108l-83 -108h-66l109 144h80z" unicode="Ĥ"/>
<glyph glyph-name="hcircumflex" horiz-adv-x="583" d="M162 391q19 41 63 65t94 24q89 0 133.5 -53t44.5 -140v-287h-68v259q0 37 -6 67t-20.5 51.5t-39 33.5t-61.5 12q-27 0 -52.5 -11t-45.5 -33.5t-32 -57t-12 -81.5v-240h-68v756h68v-365h2zM276 796h-66l-83 108l-83 -108h-66l109 144h80z" unicode="ĥ"/>
<glyph glyph-name="Hbar" horiz-adv-x="718" d="M94 708h72v-158h386v158h72v-708h-72v335h-386v-335h-72v708zM552 401v99h-386v-99h386z" unicode="Ħ"/>
<glyph glyph-name="hbar" horiz-adv-x="583" d="M92 620v136h68v-136h158v-50h-158v-179h2q19 41 63 65t94 24q89 0 133.5 -53t44.5 -140v-287h-68v259q0 37 -6 67t-20.5 51.5t-39 33.5t-61.5 12q-27 0 -52.5 -11t-45.5 -33.5t-32 -57t-12 -81.5v-240h-68v570h-54v50h54z" unicode="ħ"/>
<glyph glyph-name="Itilde" horiz-adv-x="260" d="M166 0h-72v708h72v-708zM-31 776q3 19 9.5 38t17.5 33.5t26.5 23.5t38.5 9q18 0 36.5 -7t36.5 -16q18 -8 35 -15.5t32 -7.5q23 0 33.5 15.5t15.5 34.5h43q-3 -20 -9.5 -38.5t-17.5 -33t-27 -23.5t-38 -9q-18 0 -37 7t-36 16t-34 16t-33 7q-23 0 -33.5 -15.5t-15.5 -34.5 h-43z" unicode="Ĩ"/>
<glyph glyph-name="itilde" horiz-adv-x="250" d="M159 0h-68v468h68v-468zM-35 576q3 19 9.5 38t17.5 33.5t26.5 23.5t38.5 9q18 0 36.5 -7t36.5 -16q18 -8 35 -15.5t32 -7.5q23 0 33.5 15.5t15.5 34.5h43q-3 -20 -9.5 -38.5t-17.5 -33t-27 -23.5t-38 -9q-18 0 -37 7t-36 16t-34 16t-33 7q-23 0 -33.5 -15.5t-15.5 -34.5 h-43z" unicode="ĩ"/>
<glyph glyph-name="Imacron" horiz-adv-x="260" d="M166 0h-72v708h72v-708zM266 800h-270v54h270v-54z" unicode="Ī"/>
<glyph glyph-name="imacron" horiz-adv-x="250" d="M159 0h-68v468h68v-468zM261 600h-270v54h270v-54z" unicode="ī"/>
<glyph glyph-name="Ibreve" horiz-adv-x="260" d="M166 0h-72v708h72v-708zM277 915q-4 -63 -44.5 -97.5t-102.5 -34.5t-102.5 34.5t-44.5 97.5h44q7 -39 36 -58.5t67 -19.5t67 19.5t36 58.5h44z" unicode="Ĭ"/>
<glyph glyph-name="ibreve" horiz-adv-x="250" d="M159 0h-68v468h68v-468zM272 675q-4 -63 -44.5 -97.5t-102.5 -34.5t-102.5 34.5t-44.5 97.5h44q7 -39 36 -58.5t67 -19.5t67 19.5t36 58.5h44z" unicode="ĭ"/>
<glyph glyph-name="Iogonek" horiz-adv-x="260" d="M203 -187q-17 -17 -41 -26.5t-49 -9.5q-18 0 -34 6t-28.5 17.5t-20 27t-7.5 34.5q0 21 8 40.5t21 37t29 33t31 27.5h-18v708h72v-708h-6q-37 -37 -57 -64.5t-20 -56.5q0 -21 15 -34.5t35 -13.5q14 0 27.5 5.5t23.5 16.5z" unicode="Į"/>
<glyph glyph-name="iogonek" horiz-adv-x="250" d="M198 -187q-17 -17 -41 -26.5t-49 -9.5q-18 0 -34 6t-28.5 17.5t-20 27t-7.5 34.5q0 21 8 40.5t21 37t29 33t31 27.5h-16v468h68v-468h-4q-37 -37 -57 -64.5t-20 -56.5q0 -21 15 -34.5t35 -13.5q14 0 27.5 5.5t23.5 16.5zM173 648q0 -21 -15 -34.5t-33 -13.5t-33 13.5 t-15 34.5t15 34.5t33 13.5t33 -13.5t15 -34.5z" unicode="į"/>
<glyph glyph-name="Idotaccent" horiz-adv-x="260" d="M166 0h-72v708h72v-708zM179 848q0 -21 -15 -34.5t-33 -13.5t-33 13.5t-15 34.5t15 34.5t33 13.5t33 -13.5t15 -34.5z" unicode="İ"/>
<glyph glyph-name="dotlessi" horiz-adv-x="250" d="M159 0h-68v468h68v-468z" unicode="ı"/>
<glyph glyph-name="Jcircumflex" horiz-adv-x="492" d="M92 144q8 -42 37.5 -70.5t77.5 -28.5q37 0 61 13.5t38.5 36.5t20 52.5t5.5 61.5v499h72v-504q0 -35 -7.5 -74t-28.5 -72t-58 -54.5t-95 -21.5q-77 0 -127 40.5t-63 103.5zM516 764h-66l-83 108l-83 -108h-66l109 144h80z" unicode="Ĵ"/>
<glyph glyph-name="jcircumflex" horiz-adv-x="251" d="M-17 -176q10 -3 21.5 -4.5t21.5 -1.5q21 0 34 7.5t20 20.5t9.5 31.5t2.5 40.5v550h68v-561q0 -28 -6 -54.5t-21 -47t-40.5 -33t-65.5 -12.5q-11 0 -26 1.5t-28 5.5zM275 564h-66l-83 108l-83 -108h-66l109 144h80z" unicode="ĵ"/>
<glyph glyph-name="Kcommaaccent" horiz-adv-x="628" d="M166 390h1l337 318h103l-357 -321l377 -387h-106l-354 377h-1v-377h-72v708h72v-318zM312 -230h-57l62 185h71z" unicode="Ķ"/>
<glyph glyph-name="kcommaaccent" horiz-adv-x="510" d="M160 257h3l216 211h98l-236 -214l260 -254h-100l-238 246h-3v-246h-68v756h68v-499zM253 -230h-57l62 185h71z" unicode="ķ"/>
<glyph glyph-name="Lacute" horiz-adv-x="510" d="M166 64h330v-64h-402v708h72v-644zM159 764h-59l100 144h91z" unicode="Ĺ"/>
<glyph glyph-name="lacute" horiz-adv-x="252" d="M160 0h-68v756h68v-756zM153 792h-59l100 144h91z" unicode="ĺ"/>
<glyph glyph-name="Lcommaaccent" horiz-adv-x="510" d="M166 64h330v-64h-402v708h72v-644zM271 -230h-57l62 185h71z" unicode="Ļ"/>
<glyph glyph-name="lcommaaccent" horiz-adv-x="252" d="M160 0h-68v756h68v-756zM103 -230h-57l62 185h71z" unicode="ļ"/>
<glyph glyph-name="Lcaron" horiz-adv-x="510" d="M166 64h330v-64h-402v708h72v-644zM300 523h-57l62 185h71z" unicode="Ľ"/>
<glyph glyph-name="lcaron" horiz-adv-x="252" d="M160 0h-68v756h68v-756zM274 523h-57l62 185h71z" unicode="ľ"/>
<glyph glyph-name="Ldot" horiz-adv-x="510" d="M166 64h330v-64h-402v708h72v-644zM424 328q0 -21 -15 -34.5t-33 -13.5t-33 13.5t-15 34.5t15 34.5t33 13.5t33 -13.5t15 -34.5z" unicode="Ŀ"/>
<glyph glyph-name="ldot" horiz-adv-x="312" d="M160 0h-68v756h68v-756zM328 328q0 -21 -15 -34.5t-33 -13.5t-33 13.5t-15 34.5t15 34.5t33 13.5t33 -13.5t15 -34.5z" unicode="ŀ"/>
<glyph glyph-name="Lslash" horiz-adv-x="510" d="M166 362l216 186v-70l-216 -186v-228h330v-64h-402v242l-82 -70v70l82 70v396h72v-346z" unicode="Ł"/>
<glyph glyph-name="lslash" horiz-adv-x="252" d="M158 458l81 84v-73l-81 -83v-386h-66v331l-81 -83v73l81 82v353h66v-298z" unicode="ł"/>
<glyph glyph-name="Nacute" horiz-adv-x="764" d="M596 105h2v603h72v-708h-90l-412 609h-2v-609h-72v708h90zM403 764h-59l100 144h91z" unicode="Ń"/>
<glyph glyph-name="nacute" horiz-adv-x="581" d="M151 468q2 -19 3 -42t1 -38h2q20 41 65 66.5t95 25.5q89 0 133.5 -53t44.5 -140v-287h-68v259q0 37 -6 67t-20.5 51.5t-39 33.5t-61.5 12q-27 0 -52.5 -11t-45.5 -33.5t-32 -57t-12 -81.5v-240h-68v365q0 19 -1 49t-3 54h65zM307 564h-59l100 144h91z" unicode="ń"/>
<glyph glyph-name="Ncommaaccent" horiz-adv-x="764" d="M596 105h2v603h72v-708h-90l-412 609h-2v-609h-72v708h90zM349 -230h-57l62 185h71z" unicode="Ņ"/>
<glyph glyph-name="ncommaaccent" horiz-adv-x="581" d="M151 468q2 -19 3 -42t1 -38h2q20 41 65 66.5t95 25.5q89 0 133.5 -53t44.5 -140v-287h-68v259q0 37 -6 67t-20.5 51.5t-39 33.5t-61.5 12q-27 0 -52.5 -11t-45.5 -33.5t-32 -57t-12 -81.5v-240h-68v365q0 19 -1 49t-3 54h65zM266 -230h-57l62 185h71z" unicode="ņ"/>
<glyph glyph-name="Ncaron" horiz-adv-x="764" d="M596 105h2v603h72v-708h-90l-412 609h-2v-609h-72v708h90zM423 764h-80l-109 144h66l83 -108l83 108h66z" unicode="Ň"/>
<glyph glyph-name="ncaron" horiz-adv-x="581" d="M151 468q2 -19 3 -42t1 -38h2q20 41 65 66.5t95 25.5q89 0 133.5 -53t44.5 -140v-287h-68v259q0 37 -6 67t-20.5 51.5t-39 33.5t-61.5 12q-27 0 -52.5 -11t-45.5 -33.5t-32 -57t-12 -81.5v-240h-68v365q0 19 -1 49t-3 54h65zM333 564h-80l-109 144h66l83 -108l83 108h66z " unicode="ň"/>
<glyph glyph-name="Omacron" horiz-adv-x="850" d="M794 354q0 -81 -28 -149t-77.5 -117.5t-117 -77.5t-146.5 -28t-146.5 28t-117 77.5t-77.5 117.5t-28 149t28 149t77.5 117.5t117 77.5t146.5 28t146.5 -28t117 -77.5t77.5 -117.5t28 -149zM718 354q0 62 -20 118t-58 98.5t-92.5 67.5t-122.5 25t-122.5 -25t-92.5 -67.5 t-58 -98.5t-20 -118t20 -118t58 -98t92.5 -67t122.5 -25t122.5 25t92.5 67t58 98t20 118zM564 800h-270v54h270v-54z" unicode="Ō"/>
<glyph glyph-name="omacron" horiz-adv-x="611" d="M555 234q0 -53 -18.5 -98t-51.5 -78t-79 -51.5t-101 -18.5q-54 0 -100 18.5t-79 51.5t-51.5 78t-18.5 98t18.5 98t51.5 78t79 51.5t100 18.5q55 0 101 -18.5t79 -51.5t51.5 -78t18.5 -98zM483 234q0 39 -12.5 73.5t-35.5 60t-56 40.5t-74 15t-73.5 -15t-55.5 -40.5 t-35.5 -60t-12.5 -73.5t12.5 -73.5t35.5 -60t55.5 -40t73.5 -14.5t74 14.5t56 40t35.5 60t12.5 73.5zM442 600h-270v54h270v-54z" unicode="ō"/>
<glyph glyph-name="Obreve" horiz-adv-x="850" d="M794 354q0 -81 -28 -149t-77.5 -117.5t-117 -77.5t-146.5 -28t-146.5 28t-117 77.5t-77.5 117.5t-28 149t28 149t77.5 117.5t117 77.5t146.5 28t146.5 -28t117 -77.5t77.5 -117.5t28 -149zM718 354q0 62 -20 118t-58 98.5t-92.5 67.5t-122.5 25t-122.5 -25t-92.5 -67.5 t-58 -98.5t-20 -118t20 -118t58 -98t92.5 -67t122.5 -25t122.5 25t92.5 67t58 98t20 118zM575 908q-4 -63 -44.5 -97.5t-102.5 -34.5t-102.5 34.5t-44.5 97.5h44q7 -39 36 -58.5t67 -19.5t67 19.5t36 58.5h44z" unicode="Ŏ"/>
<glyph glyph-name="obreve" horiz-adv-x="611" d="M555 234q0 -53 -18.5 -98t-51.5 -78t-79 -51.5t-101 -18.5q-54 0 -100 18.5t-79 51.5t-51.5 78t-18.5 98t18.5 98t51.5 78t79 51.5t100 18.5q55 0 101 -18.5t79 -51.5t51.5 -78t18.5 -98zM483 234q0 39 -12.5 73.5t-35.5 60t-56 40.5t-74 15t-73.5 -15t-55.5 -40.5 t-35.5 -60t-12.5 -73.5t12.5 -73.5t35.5 -60t55.5 -40t73.5 -14.5t74 14.5t56 40t35.5 60t12.5 73.5zM454 708q-4 -63 -44.5 -97.5t-102.5 -34.5t-102.5 34.5t-44.5 97.5h44q7 -39 36 -58.5t67 -19.5t67 19.5t36 58.5h44z" unicode="ŏ"/>
<glyph glyph-name="Ohungarumlaut" horiz-adv-x="850" d="M794 354q0 -81 -28 -149t-77.5 -117.5t-117 -77.5t-146.5 -28t-146.5 28t-117 77.5t-77.5 117.5t-28 149t28 149t77.5 117.5t117 77.5t146.5 28t146.5 -28t117 -77.5t77.5 -117.5t28 -149zM718 354q0 62 -20 118t-58 98.5t-92.5 67.5t-122.5 25t-122.5 -25t-92.5 -67.5 t-58 -98.5t-20 -118t20 -118t58 -98t92.5 -67t122.5 -25t122.5 25t92.5 67t58 98t20 118zM368 764h-59l101 144h91zM539 764h-59l100 144h91z" unicode="Ő"/>
<glyph glyph-name="ohungarumlaut" horiz-adv-x="611" d="M555 234q0 -53 -18.5 -98t-51.5 -78t-79 -51.5t-101 -18.5q-54 0 -100 18.5t-79 51.5t-51.5 78t-18.5 98t18.5 98t51.5 78t79 51.5t100 18.5q55 0 101 -18.5t79 -51.5t51.5 -78t18.5 -98zM483 234q0 39 -12.5 73.5t-35.5 60t-56 40.5t-74 15t-73.5 -15t-55.5 -40.5 t-35.5 -60t-12.5 -73.5t12.5 -73.5t35.5 -60t55.5 -40t73.5 -14.5t74 14.5t56 40t35.5 60t12.5 73.5zM255 564h-59l101 144h91zM426 564h-59l100 144h91z" unicode="ő"/>
<glyph glyph-name="OE" horiz-adv-x="992" d="M933 708v-64h-333v-244h309v-63h-309v-273h345v-64h-502q-66 0 -132.5 22t-120 66.5t-86.5 110.5t-33 155q0 88 33 154.5t86.5 111t120 66.5t132.5 22h490zM463 644q-80 0 -139.5 -25t-98.5 -65.5t-58.5 -92.5t-19.5 -107t19.5 -107t58.5 -92.5t98.5 -65.5t139.5 -25h65 v580h-65z" unicode="Œ"/>
<glyph glyph-name="oe" horiz-adv-x="994" d="M713 480q55 0 97.5 -18.5t70.5 -50t42.5 -73.5t14.5 -90v-15t-1 -17h-390q1 -35 14.5 -66t36.5 -54t54.5 -36.5t67.5 -13.5q53 0 91.5 24.5t58.5 56.5l51 -40q-42 -53 -92.5 -76t-109.5 -23q-69 0 -121 30.5t-83 83.5q-32 -53 -85.5 -83.5t-125.5 -30.5q-54 0 -99.5 18.5 t-78.5 51.5t-51.5 78t-18.5 98t18.5 98t51.5 78t78.5 51.5t99.5 18.5q72 0 125 -30.5t85 -83.5q31 53 82 83.5t117 30.5zM483 234q0 39 -12.5 73.5t-36 60t-56.5 40.5t-74 15t-73.5 -15t-56 -40.5t-36 -60t-12.5 -73.5t12.5 -73.5t36 -60t56 -40t73.5 -14.5t74 14.5t56.5 40 t36 60t12.5 73.5zM869 270q-3 66 -42.5 109.5t-112.5 43.5q-34 0 -63 -12.5t-51 -34t-35 -49t-15 -57.5h319z" unicode="œ"/>
<glyph glyph-name="Racute" horiz-adv-x="599" d="M166 0h-72v708h208q52 0 96.5 -10t77 -32.5t50.5 -58.5t18 -88q0 -39 -14 -71t-38 -55.5t-57 -37.5t-72 -18l207 -337h-88l-196 331h-120v-331zM166 393h125q87 0 134 31.5t47 94.5q0 35 -13 59t-36 39t-56 22t-73 7h-128v-253zM290 764h-59l100 144h91z" unicode="Ŕ"/>
<glyph glyph-name="racute" horiz-adv-x="360" d="M90 365q0 19 -1 49t-3 54h65q2 -19 3 -42t1 -38h2q20 41 60 66.5t90 25.5q13 0 23.5 -1t21.5 -4l-9 -64q-6 2 -20 4t-28 2q-27 0 -52 -10t-43.5 -31.5t-30 -55t-11.5 -80.5v-240h-68v365zM175 564h-59l100 144h91z" unicode="ŕ"/>
<glyph glyph-name="Rcommaaccent" horiz-adv-x="599" d="M166 0h-72v708h208q52 0 96.5 -10t77 -32.5t50.5 -58.5t18 -88q0 -39 -14 -71t-38 -55.5t-57 -37.5t-72 -18l207 -337h-88l-196 331h-120v-331zM166 393h125q87 0 134 31.5t47 94.5q0 35 -13 59t-36 39t-56 22t-73 7h-128v-253zM290 -230h-57l62 185h71z" unicode="Ŗ"/>
<glyph glyph-name="rcommaaccent" horiz-adv-x="360" d="M90 365q0 19 -1 49t-3 54h65q2 -19 3 -42t1 -38h2q20 41 60 66.5t90 25.5q13 0 23.5 -1t21.5 -4l-9 -64q-6 2 -20 4t-28 2q-27 0 -52 -10t-43.5 -31.5t-30 -55t-11.5 -80.5v-240h-68v365zM100 -230h-57l62 185h71z" unicode="ŗ"/>
<glyph glyph-name="Rcaron" horiz-adv-x="599" d="M166 0h-72v708h208q52 0 96.5 -10t77 -32.5t50.5 -58.5t18 -88q0 -39 -14 -71t-38 -55.5t-57 -37.5t-72 -18l207 -337h-88l-196 331h-120v-331zM166 393h125q87 0 134 31.5t47 94.5q0 35 -13 59t-36 39t-56 22t-73 7h-128v-253zM328 764h-80l-109 144h66l83 -108l83 108 h66z" unicode="Ř"/>
<glyph glyph-name="rcaron" horiz-adv-x="360" d="M90 365q0 19 -1 49t-3 54h65q2 -19 3 -42t1 -38h2q20 41 60 66.5t90 25.5q13 0 23.5 -1t21.5 -4l-9 -64q-6 2 -20 4t-28 2q-27 0 -52 -10t-43.5 -31.5t-30 -55t-11.5 -80.5v-240h-68v365zM255 564h-80l-109 144h66l83 -108l83 108h66z" unicode="ř"/>
<glyph glyph-name="Sacute" horiz-adv-x="564" d="M437 594q-23 32 -59 51.5t-87 19.5q-26 0 -53 -8t-49 -24.5t-35.5 -41.5t-13.5 -59t13 -56t34.5 -37.5t49 -25.5t57.5 -20q37 -12 74.5 -26t67.5 -36.5t49 -57t19 -87.5t-20.5 -91.5t-53 -63.5t-74 -37t-83.5 -12q-32 0 -64 6.5t-61 19.5t-54 33t-44 46l62 46 q23 -38 64.5 -63.5t97.5 -25.5q27 0 55 8.5t50.5 26t37 43t14.5 59.5q0 37 -14.5 61.5t-38.5 41t-55 27.5t-65 22q-35 11 -69 25t-61 36.5t-43.5 55.5t-16.5 81q0 51 20.5 88t53.5 61t73 35t79 11q72 0 123 -25.5t77 -60.5zM302 764h-59l100 144h91z" unicode="Ś"/>
<glyph glyph-name="sacute" horiz-adv-x="444" d="M339 357q-15 29 -45.5 47.5t-69.5 18.5q-18 0 -36 -4t-32 -13t-22.5 -23t-8.5 -33q0 -33 27 -50.5t85 -29.5q83 -17 122.5 -49.5t39.5 -87.5q0 -40 -15.5 -67.5t-40.5 -45t-56.5 -25t-63.5 -7.5q-53 0 -103 22t-82 69l54 40q18 -31 53 -52t77 -21q22 0 42 4t35 14 t24 25.5t9 38.5q0 37 -35.5 55.5t-102.5 34.5q-21 5 -44.5 12.5t-43.5 22t-33 36.5t-13 55q0 36 14 61.5t37.5 42t53.5 24.5t62 8q49 0 95 -22t69 -62zM248 564h-59l100 144h91z" unicode="ś"/>
<glyph glyph-name="Scircumflex" horiz-adv-x="564" d="M437 594q-23 32 -59 51.5t-87 19.5q-26 0 -53 -8t-49 -24.5t-35.5 -41.5t-13.5 -59t13 -56t34.5 -37.5t49 -25.5t57.5 -20q37 -12 74.5 -26t67.5 -36.5t49 -57t19 -87.5t-20.5 -91.5t-53 -63.5t-74 -37t-83.5 -12q-32 0 -64 6.5t-61 19.5t-54 33t-44 46l62 46 q23 -38 64.5 -63.5t97.5 -25.5q27 0 55 8.5t50.5 26t37 43t14.5 59.5q0 37 -14.5 61.5t-38.5 41t-55 27.5t-65 22q-35 11 -69 25t-61 36.5t-43.5 55.5t-16.5 81q0 51 20.5 88t53.5 61t73 35t79 11q72 0 123 -25.5t77 -60.5zM442 764h-66l-83 108l-83 -108h-66l109 144h80z " unicode="Ŝ"/>
<glyph glyph-name="scircumflex" horiz-adv-x="444" d="M339 357q-15 29 -45.5 47.5t-69.5 18.5q-18 0 -36 -4t-32 -13t-22.5 -23t-8.5 -33q0 -33 27 -50.5t85 -29.5q83 -17 122.5 -49.5t39.5 -87.5q0 -40 -15.5 -67.5t-40.5 -45t-56.5 -25t-63.5 -7.5q-53 0 -103 22t-82 69l54 40q18 -31 53 -52t77 -21q22 0 42 4t35 14 t24 25.5t9 38.5q0 37 -35.5 55.5t-102.5 34.5q-21 5 -44.5 12.5t-43.5 22t-33 36.5t-13 55q0 36 14 61.5t37.5 42t53.5 24.5t62 8q49 0 95 -22t69 -62zM379 564h-66l-83 108l-83 -108h-66l109 144h80z" unicode="ŝ"/>
<glyph glyph-name="Scedilla" horiz-adv-x="564" d="M437 594q-23 32 -59 51.5t-87 19.5q-26 0 -53 -8t-49 -24.5t-35.5 -41.5t-13.5 -59t13 -56t34.5 -37.5t49 -25.5t57.5 -20q37 -12 74.5 -26t67.5 -36.5t49 -57t19 -87.5q0 -49 -17.5 -85.5t-46 -61.5t-65.5 -39t-76 -17l-36 -58q13 4 35 4q30 0 56 -18t26 -54 q0 -25 -11 -42t-28 -27t-38 -14t-41 -4t-46.5 5t-47.5 15l16 36q17 -8 35 -11t37 -3q8 0 19 2t21 7.5t17 14t7 20.5q0 20 -14.5 29.5t-39.5 9.5q-22 0 -43 -8l-18 15l51 81q-60 3 -115.5 28.5t-90.5 75.5l62 46q23 -38 64.5 -63.5t97.5 -25.5q27 0 55 8.5t50.5 26t37 43 t14.5 59.5q0 37 -14.5 61.5t-38.5 41t-55 27.5t-65 22q-35 11 -69 25t-61 36.5t-43.5 55.5t-16.5 81q0 51 20.5 88t53.5 61t73 35t79 11q72 0 123 -25.5t77 -60.5z" unicode="Ş"/>
<glyph glyph-name="scedilla" horiz-adv-x="444" d="M339 357q-15 29 -45.5 47.5t-69.5 18.5q-18 0 -36 -4t-32 -13t-22.5 -23t-8.5 -33q0 -33 27 -50.5t85 -29.5q83 -17 122.5 -49.5t39.5 -87.5q0 -36 -12.5 -61.5t-33 -42.5t-47 -26.5t-55.5 -12.5l-40 -65q13 4 35 4q30 0 56 -18t26 -54q0 -25 -11 -42t-28 -27t-38 -14 t-41 -4t-46.5 5t-47.5 15l16 36q17 -8 35 -11t37 -3q8 0 19 2t21 7.5t17 14t7 20.5q0 20 -14.5 29.5t-39.5 9.5q-22 0 -43 -8l-18 15l54 87q-49 3 -94 24t-75 66l54 40q18 -31 53 -52t77 -21q22 0 42 4t35 14t24 25.5t9 38.5q0 37 -35.5 55.5t-102.5 34.5q-21 5 -44.5 12.5 t-43.5 22t-33 36.5t-13 55q0 36 14 61.5t37.5 42t53.5 24.5t62 8q49 0 95 -22t69 -62z" unicode="ş"/>
<glyph glyph-name="Scaron" horiz-adv-x="564" d="M437 594q-23 32 -59 51.5t-87 19.5q-26 0 -53 -8t-49 -24.5t-35.5 -41.5t-13.5 -59t13 -56t34.5 -37.5t49 -25.5t57.5 -20q37 -12 74.5 -26t67.5 -36.5t49 -57t19 -87.5t-20.5 -91.5t-53 -63.5t-74 -37t-83.5 -12q-32 0 -64 6.5t-61 19.5t-54 33t-44 46l62 46 q23 -38 64.5 -63.5t97.5 -25.5q27 0 55 8.5t50.5 26t37 43t14.5 59.5q0 37 -14.5 61.5t-38.5 41t-55 27.5t-65 22q-35 11 -69 25t-61 36.5t-43.5 55.5t-16.5 81q0 51 20.5 88t53.5 61t73 35t79 11q72 0 123 -25.5t77 -60.5zM326 764h-80l-109 144h66l83 -108l83 108h66z" unicode="Š"/>
<glyph glyph-name="scaron" horiz-adv-x="444" d="M339 357q-15 29 -45.5 47.5t-69.5 18.5q-18 0 -36 -4t-32 -13t-22.5 -23t-8.5 -33q0 -33 27 -50.5t85 -29.5q83 -17 122.5 -49.5t39.5 -87.5q0 -40 -15.5 -67.5t-40.5 -45t-56.5 -25t-63.5 -7.5q-53 0 -103 22t-82 69l54 40q18 -31 53 -52t77 -21q22 0 42 4t35 14 t24 25.5t9 38.5q0 37 -35.5 55.5t-102.5 34.5q-21 5 -44.5 12.5t-43.5 22t-33 36.5t-13 55q0 36 14 61.5t37.5 42t53.5 24.5t62 8q49 0 95 -22t69 -62zM270 564h-80l-109 144h66l83 -108l83 108h66z" unicode="š"/>
<glyph glyph-name="Tcommaaccent" horiz-adv-x="570" d="M321 0h-10l-47 -75q13 4 35 4q30 0 56 -18t26 -54q0 -25 -11 -42t-28 -27t-38 -14t-41 -4t-46.5 5t-47.5 15l16 36q17 -8 35 -11t37 -3q8 0 19 2t21 7.5t17 14t7 20.5q0 20 -14.5 29.5t-39.5 9.5q-22 0 -43 -8l-18 15l62 98h-19v644h-237v64h546v-64h-237v-644z" unicode="Ţ"/>
<glyph glyph-name="tcommaaccent" horiz-adv-x="317" d="M301 411h-132v-273q0 -26 5 -43t14.5 -26.5t22.5 -13t28 -3.5q14 0 29.5 4t29.5 11l3 -59q-25 -10 -58 -13l-43 -70q13 4 35 4q30 0 56 -18t26 -54q0 -25 -11 -42t-28 -27t-38 -14t-41 -4t-46.5 5t-47.5 15l16 36q17 -8 35 -11t37 -3q8 0 19 2t21 7.5t17 14t7 20.5 q0 20 -14.5 29.5t-39.5 9.5q-22 0 -43 -8l-18 15l59 93q-18 2 -35.5 9t-32 21.5t-23.5 37t-9 56.5v292h-97v57h97v132h68v-132h132v-57z" unicode="ţ"/>
<glyph glyph-name="Tcaron" horiz-adv-x="570" d="M321 0h-72v644h-237v64h546v-64h-237v-644zM325 764h-80l-109 144h66l83 -108l83 108h66z" unicode="Ť"/>
<glyph glyph-name="tcaron" horiz-adv-x="317" d="M301 411h-132v-273q0 -26 5 -43t14.5 -26.5t22.5 -13t28 -3.5q14 0 29.5 4t29.5 11l3 -59q-18 -7 -37.5 -10.5t-42.5 -3.5q-19 0 -40 5t-39 19t-29.5 38t-11.5 63v292h-97v57h97v132h68v-132h132v-57zM282 546h-57l62 185h71z" unicode="ť"/>
<glyph glyph-name="Tbar" horiz-adv-x="570" d="M249 543v101h-237v64h546v-64h-237v-101h166v-50h-166v-493h-72v493h-176v50h176z" unicode="Ŧ"/>
<glyph glyph-name="tbar" horiz-adv-x="317" d="M101 314v97h-97v57h97v132h68v-132h132v-57h-132v-97h123v-50h-123v-126q0 -26 5 -43t14.5 -26.5t22.5 -13t28 -3.5q14 0 29.5 4t29.5 11l3 -59q-18 -7 -37.5 -10.5t-42.5 -3.5q-19 0 -40 5t-39 19t-29.5 38t-11.5 63v145h-89v50h89z" unicode="ŧ"/>
<glyph glyph-name="Utilde" horiz-adv-x="710" d="M355 -18q-80 0 -131 27.5t-81 69.5t-41.5 91.5t-11.5 93.5v444h72v-436q0 -43 10 -83.5t32.5 -72t59.5 -51t91 -19.5t91 19.5t59.5 51t32.5 72t10 83.5v436h72v-444q0 -44 -11.5 -93.5t-41.5 -91.5t-81.5 -69.5t-130.5 -27.5zM193 776q3 19 9.5 38t17.5 33.5t26.5 23.5 t38.5 9q18 0 36.5 -7t36.5 -16q18 -8 35 -15.5t32 -7.5q23 0 33.5 15.5t15.5 34.5h43q-3 -20 -9.5 -38.5t-17.5 -33t-27 -23.5t-38 -9q-18 0 -37 7t-36 16t-34 16t-33 7q-23 0 -33.5 -15.5t-15.5 -34.5h-43z" unicode="Ũ"/>
<glyph glyph-name="utilde" horiz-adv-x="581" d="M430 0q-2 19 -3 42t-1 38h-2q-20 -41 -65 -66.5t-95 -25.5q-89 0 -133.5 53t-44.5 140v287h68v-259q0 -37 6 -67t20.5 -51.5t39 -33.5t61.5 -12q27 0 52.5 11t45.5 33.5t32 57t12 81.5v240h68v-365q0 -19 1 -49t3 -54h-65zM129 576q3 19 9.5 38t17.5 33.5t26.5 23.5 t38.5 9q18 0 36.5 -7t36.5 -16q18 -8 35 -15.5t32 -7.5q23 0 33.5 15.5t15.5 34.5h43q-3 -20 -9.5 -38.5t-17.5 -33t-27 -23.5t-38 -9q-18 0 -37 7t-36 16t-34 16t-33 7q-23 0 -33.5 -15.5t-15.5 -34.5h-43z" unicode="ũ"/>
<glyph glyph-name="Umacron" horiz-adv-x="710" d="M355 -18q-80 0 -131 27.5t-81 69.5t-41.5 91.5t-11.5 93.5v444h72v-436q0 -43 10 -83.5t32.5 -72t59.5 -51t91 -19.5t91 19.5t59.5 51t32.5 72t10 83.5v436h72v-444q0 -44 -11.5 -93.5t-41.5 -91.5t-81.5 -69.5t-130.5 -27.5zM491 800h-270v54h270v-54z" unicode="Ū"/>
<glyph glyph-name="umacron" horiz-adv-x="581" d="M430 0q-2 19 -3 42t-1 38h-2q-20 -41 -65 -66.5t-95 -25.5q-89 0 -133.5 53t-44.5 140v287h68v-259q0 -37 6 -67t20.5 -51.5t39 -33.5t61.5 -12q27 0 52.5 11t45.5 33.5t32 57t12 81.5v240h68v-365q0 -19 1 -49t3 -54h-65zM425 600h-270v54h270v-54z" unicode="ū"/>
<glyph glyph-name="Ubreve" horiz-adv-x="710" d="M355 -18q-80 0 -131 27.5t-81 69.5t-41.5 91.5t-11.5 93.5v444h72v-436q0 -43 10 -83.5t32.5 -72t59.5 -51t91 -19.5t91 19.5t59.5 51t32.5 72t10 83.5v436h72v-444q0 -44 -11.5 -93.5t-41.5 -91.5t-81.5 -69.5t-130.5 -27.5zM502 908q-4 -63 -44.5 -97.5t-102.5 -34.5 t-102.5 34.5t-44.5 97.5h44q7 -39 36 -58.5t67 -19.5t67 19.5t36 58.5h44z" unicode="Ŭ"/>
<glyph glyph-name="ubreve" horiz-adv-x="581" d="M430 0q-2 19 -3 42t-1 38h-2q-20 -41 -65 -66.5t-95 -25.5q-89 0 -133.5 53t-44.5 140v287h68v-259q0 -37 6 -67t20.5 -51.5t39 -33.5t61.5 -12q27 0 52.5 11t45.5 33.5t32 57t12 81.5v240h68v-365q0 -19 1 -49t3 -54h-65zM439 708q-4 -63 -44.5 -97.5t-102.5 -34.5 t-102.5 34.5t-44.5 97.5h44q7 -39 36 -58.5t67 -19.5t67 19.5t36 58.5h44z" unicode="ŭ"/>
<glyph glyph-name="Uring" horiz-adv-x="710" d="M355 -18q-80 0 -131 27.5t-81 69.5t-41.5 91.5t-11.5 93.5v444h72v-436q0 -43 10 -83.5t32.5 -72t59.5 -51t91 -19.5t91 19.5t59.5 51t32.5 72t10 83.5v436h72v-444q0 -44 -11.5 -93.5t-41.5 -91.5t-81.5 -69.5t-130.5 -27.5zM453 850q0 -20 -7.5 -37.5t-21 -30.5 t-31 -20t-36.5 -7q-20 0 -37 7t-30.5 20t-21 30.5t-7.5 37.5t7.5 37.5t21 30t30.5 20t37 7.5q19 0 36.5 -7.5t31 -20t21 -30t7.5 -37.5zM417 850q0 25 -17.5 42t-42.5 17t-42.5 -17t-17.5 -42t17.5 -42t42.5 -17t42.5 17t17.5 42z" unicode="Ů"/>
<glyph glyph-name="uring" horiz-adv-x="581" d="M430 0q-2 19 -3 42t-1 38h-2q-20 -41 -65 -66.5t-95 -25.5q-89 0 -133.5 53t-44.5 140v287h68v-259q0 -37 6 -67t20.5 -51.5t39 -33.5t61.5 -12q27 0 52.5 11t45.5 33.5t32 57t12 81.5v240h68v-365q0 -19 1 -49t3 -54h-65zM386 650q0 -20 -7.5 -37.5t-21 -30.5t-31 -20 t-36.5 -7q-20 0 -37 7t-30.5 20t-21 30.5t-7.5 37.5t7.5 37.5t21 30t30.5 20t37 7.5q19 0 36.5 -7.5t31 -20t21 -30t7.5 -37.5zM350 650q0 25 -17.5 42t-42.5 17t-42.5 -17t-17.5 -42t17.5 -42t42.5 -17t42.5 17t17.5 42z" unicode="ů"/>
<glyph glyph-name="Uhungarumlaut" horiz-adv-x="710" d="M355 -18q-80 0 -131 27.5t-81 69.5t-41.5 91.5t-11.5 93.5v444h72v-436q0 -43 10 -83.5t32.5 -72t59.5 -51t91 -19.5t91 19.5t59.5 51t32.5 72t10 83.5v436h72v-444q0 -44 -11.5 -93.5t-41.5 -91.5t-81.5 -69.5t-130.5 -27.5zM292 764h-59l101 144h91zM463 764h-59 l100 144h91z" unicode="Ű"/>
<glyph glyph-name="uhungarumlaut" horiz-adv-x="581" d="M430 0q-2 19 -3 42t-1 38h-2q-20 -41 -65 -66.5t-95 -25.5q-89 0 -133.5 53t-44.5 140v287h68v-259q0 -37 6 -67t20.5 -51.5t39 -33.5t61.5 -12q27 0 52.5 11t45.5 33.5t32 57t12 81.5v240h68v-365q0 -19 1 -49t3 -54h-65zM229 564h-59l101 144h91zM400 564h-59l100 144 h91z" unicode="ű"/>
<glyph glyph-name="Uogonek" horiz-adv-x="710" d="M355 -18q-80 0 -131 27.5t-81 69.5t-41.5 91.5t-11.5 93.5v444h72v-436q0 -43 10 -83.5t32.5 -72t59.5 -51t91 -19.5t91 19.5t59.5 51t32.5 72t10 83.5v436h72v-444q0 -40 -9 -84t-32.5 -83.5t-63 -69.5t-99.5 -40q-31 -32 -47.5 -56.5t-16.5 -51.5q0 -21 15 -34.5 t35 -13.5q14 0 27.5 5.5t23.5 16.5l19 -40q-17 -17 -41 -26.5t-49 -9.5q-18 0 -34 6t-28.5 17.5t-20 27t-7.5 34.5q0 35 21 66t47 54h-5v0z" unicode="Ų"/>
<glyph glyph-name="uogonek" horiz-adv-x="581" d="M522 -187q-17 -17 -41 -26.5t-49 -9.5q-18 0 -34 6t-28.5 17.5t-20 27t-7.5 34.5q0 21 8 40.5t21 37t29 33t31 27.5h-1q-2 19 -3 42t-1 38h-2q-20 -41 -65 -66.5t-95 -25.5q-89 0 -133.5 53t-44.5 140v287h68v-259q0 -37 6 -67t20.5 -51.5t39 -33.5t61.5 -12 q27 0 52.5 11t45.5 33.5t32 57t12 81.5v240h68v-365q0 -19 1 -49t3 -54h-16q-37 -37 -57 -64.5t-20 -56.5q0 -21 15 -34.5t35 -13.5q14 0 27.5 5.5t23.5 16.5z" unicode="ų"/>
<glyph glyph-name="Wcircumflex" horiz-adv-x="972" d="M265 99h2l177 609h86l177 -609h2l173 609h76l-209 -708h-84l-178 608h-2l-178 -608h-84l-209 708h76zM635 764h-66l-83 108l-83 -108h-66l109 144h80z" unicode="Ŵ"/>
<glyph glyph-name="wcircumflex" horiz-adv-x="746" d="M99 468l113 -380h2l126 380h66l128 -380h2l112 380h72l-148 -468h-74l-125 379h-2l-123 -379h-74l-148 468h73zM521 564h-66l-83 108l-83 -108h-66l109 144h80z" unicode="ŵ"/>
<glyph glyph-name="Ycircumflex" horiz-adv-x="602" d="M337 0h-72v305l-265 403h90l213 -343l215 343h84l-265 -403v-305zM452 764h-66l-83 108l-83 -108h-66l109 144h80z" unicode="Ŷ"/>
<glyph glyph-name="ycircumflex" horiz-adv-x="488" d="M251 73h2l145 395h74l-233 -589q-21 -54 -53.5 -86.5t-93.5 -32.5q-31 0 -61 6l7 62q24 -8 50 -8q35 0 55 21.5t35 61.5l38 98l-200 467h76zM401 564h-66l-83 108l-83 -108h-66l109 144h80z" unicode="ŷ"/>
<glyph glyph-name="Ydieresis" horiz-adv-x="602" d="M337 0h-72v305l-265 403h90l213 -343l215 343h84l-265 -403v-305zM156 847q0 20 14 35.5t37 15.5t37 -15.5t14 -35.5t-14 -35.5t-37 -15.5t-37 15.5t-14 35.5zM348 847q0 20 14 35.5t37 15.5t37 -15.5t14 -35.5t-14 -35.5t-37 -15.5t-37 15.5t-14 35.5z" unicode="Ÿ"/>
<glyph glyph-name="Zacute" d="M535 648l-413 -584h419v-64h-510v60l414 584h-403v64h493v-60zM299 764h-59l100 144h91z" unicode="Ź"/>
<glyph glyph-name="zacute" horiz-adv-x="442" d="M401 420l-280 -361h290v-59h-380v48l279 363h-265v57h356v-48zM241 564h-59l100 144h91z" unicode="ź"/>
<glyph glyph-name="Zdotaccent" d="M535 648l-413 -584h419v-64h-510v60l414 584h-403v64h493v-60zM333 848q0 -21 -15 -34.5t-33 -13.5t-33 13.5t-15 34.5t15 34.5t33 13.5t33 -13.5t15 -34.5z" unicode="Ż"/>
<glyph glyph-name="zdotaccent" horiz-adv-x="442" d="M401 420l-280 -361h290v-59h-380v48l279 363h-265v57h356v-48zM270 648q0 -21 -15 -34.5t-33 -13.5t-33 13.5t-15 34.5t15 34.5t33 13.5t33 -13.5t15 -34.5z" unicode="ż"/>
<glyph glyph-name="Zcaron" d="M535 648l-413 -584h419v-64h-510v60l414 584h-403v64h493v-60zM327 764h-80l-109 144h66l83 -108l83 108h66z" unicode="Ž"/>
<glyph glyph-name="zcaron" horiz-adv-x="442" d="M401 420l-280 -361h290v-59h-380v48l279 363h-265v57h356v-48zM265 564h-80l-109 144h66l83 -108l83 108h66z" unicode="ž"/>
<glyph glyph-name="florin" horiz-adv-x="580" d="M442 365h-119l-67 -352q-5 -27 -15 -54t-27.5 -49t-45 -35.5t-67.5 -13.5q-22 0 -41 3.5t-37 14.5l27 55q24 -13 53 -13q23 0 38 9.5t24.5 24.5t15 34t8.5 38l63 338h-108v54h119l27 144q6 31 16 59t28 50t44 35t64 13q26 0 50.5 -7.5t44.5 -21.5l-34 -48q-13 9 -27.5 13 t-29.5 4q-25 0 -41 -12t-26 -30t-15 -38t-8 -36l-22 -125h108v-54z" unicode="ƒ"/>
<glyph glyph-name="Ohorn" horiz-adv-x="850" d="M798 808q14 -30 14 -73q0 -56 -32 -86t-89 -31q53 -54 78 -122t25 -142q0 -81 -28 -149t-77.5 -117.5t-117 -77.5t-146.5 -28t-146.5 28t-117 77.5t-77.5 117.5t-28 149t28 149t77.5 117.5t117 77.5t146.5 28q52 0 88.5 -9.5t64.5 -21t51 -21t50 -9.5q39 0 57 17.5 t18 52.5q0 14 -4.5 30t-10.5 27zM718 354q0 62 -20 118t-58 98.5t-92.5 67.5t-122.5 25t-122.5 -25t-92.5 -67.5t-58 -98.5t-20 -118t20 -118t58 -98t92.5 -67t122.5 -25t122.5 25t92.5 67t58 98t20 118z" unicode="Ơ"/>
<glyph glyph-name="ohorn" horiz-adv-x="611" d="M612 582q14 -30 14 -73q0 -57 -33.5 -87t-91.5 -30q29 -35 41.5 -76t12.5 -82q0 -53 -18.5 -98t-51.5 -78t-79 -51.5t-101 -18.5q-54 0 -100 18.5t-79 51.5t-51.5 78t-18.5 98t18.5 98t51.5 78t79 51.5t100 18.5q34 0 60 -6.5t47 -14t40.5 -14t40.5 -6.5q39 0 57 17.5 t18 52.5q0 14 -4.5 30t-10.5 27zM483 234q0 39 -12.5 73.5t-35.5 60t-56 40.5t-74 15t-73.5 -15t-55.5 -40.5t-35.5 -60t-12.5 -73.5t12.5 -73.5t35.5 -60t55.5 -40t73.5 -14.5t74 14.5t56 40t35.5 60t12.5 73.5z" unicode="ơ"/>
<glyph glyph-name="Uhorn" horiz-adv-x="710" d="M355 -18q-80 0 -131 27.5t-81 69.5t-41.5 91.5t-11.5 93.5v444h72v-436q0 -43 10 -83.5t32.5 -72t59.5 -51t91 -19.5t91 19.5t59.5 51t32.5 72t10 83.5v436h63q39 0 57 17.5t18 52.5q0 14 -4.5 30t-10.5 27l59 16q14 -30 14 -73q0 -57 -33 -87t-91 -30v-397 q0 -44 -11.5 -93.5t-41.5 -91.5t-81.5 -69.5t-130.5 -27.5z" unicode="Ư"/>
<glyph glyph-name="uhorn" horiz-adv-x="591" d="M430 0q-2 19 -3 42t-1 38h-2q-20 -41 -65 -66.5t-95 -25.5q-89 0 -133.5 53t-44.5 140v287h68v-259q0 -37 6 -67t20.5 -51.5t39 -33.5t61.5 -12q27 0 52.5 11t45.5 33.5t32 57t12 81.5v240h59q39 0 57 17.5t18 52.5q0 14 -4.5 30t-10.5 27l59 16q14 -30 14 -73 q0 -57 -33 -87t-91 -30v-318q0 -19 1 -49t3 -54h-65z" unicode="ư"/>
<glyph glyph-name="clickdental" horiz-adv-x="222" d="M141 750v-1000h-60v1000h60z" unicode="ǀ"/>
<glyph glyph-name="clicklateral" horiz-adv-x="444" d="M141 750v-1000h-60v1000h60zM363 750v-1000h-60v1000h60z" unicode="ǁ"/>
<glyph glyph-name="clickretroflex" horiz-adv-x="328" d="M200 192h-72v516h72v-516zM218 48q0 -21 -15 -37.5t-39 -16.5t-39 16.5t-15 37.5t15 37.5t39 16.5t39 -16.5t15 -37.5z" unicode="ǃ"/>
<glyph glyph-name="DZcaron" horiz-adv-x="1569" d="M94 708h235q66 0 132.5 -22t120 -66.5t86.5 -111t33 -154.5q0 -89 -33 -155t-86.5 -110.5t-120 -66.5t-132.5 -22h-235v708zM166 64h143q80 0 139.5 25t98.5 65.5t58.5 92.5t19.5 107t-19.5 107t-58.5 92.5t-98.5 65.5t-139.5 25h-143v-580zM1292 648l-413 -584h419v-64 h-510v60l414 584h-403v64h493v-60zM1093 783h-80l-109 144h66l83 -108l83 108h66z" unicode="Ǆ"/>
<glyph glyph-name="Dzcaron" horiz-adv-x="1439" d="M94 708h235q66 0 132.5 -22t120 -66.5t86.5 -111t33 -154.5q0 -89 -33 -155t-86.5 -110.5t-120 -66.5t-132.5 -22h-235v708zM166 64h143q80 0 139.5 25t98.5 65.5t58.5 92.5t19.5 107t-19.5 107t-58.5 92.5t-98.5 65.5t-139.5 25h-143v-580zM1158 420l-280 -361h290v-59 h-380v48l279 363h-265v57h356v-48zM1028 543h-80l-109 144h66l83 -108l83 108h66z" unicode="ǅ"/>
<glyph glyph-name="dzcaron" horiz-adv-x="1319" d="M475 79q-30 -45 -78 -68t-99 -23q-55 0 -99.5 19t-76 52t-49 78t-17.5 97t17.5 97t49 78t76 52t99.5 19q51 0 99 -23.5t78 -69.5h2v369h68v-756h-68v79h-2zM128 234q0 -39 12 -73.5t34.5 -60t55.5 -40t75 -14.5q39 0 72 14.5t57 39.5t37.5 59.5t13.5 74.5t-13.5 74.5 t-37.5 60t-57 40t-72 14.5q-42 0 -75 -15t-55.5 -40.5t-34.5 -60t-12 -73.5zM1038 420l-280 -361h290v-59h-380v48l279 363h-265v57h356v-48zM908 543h-80l-109 144h66l83 -108l83 108h66z" unicode="ǆ"/>
<glyph glyph-name="LJ" horiz-adv-x="1002" d="M166 64h330v-64h-402v708h72v-644zM602 144q8 -42 37.5 -70.5t77.5 -28.5q37 0 61 13.5t38.5 36.5t20 52.5t5.5 61.5v499h72v-504q0 -35 -7.5 -74t-28.5 -72t-58 -54.5t-95 -21.5q-77 0 -127 40.5t-63 103.5z" unicode="Ǉ"/>
<glyph glyph-name="Lj" horiz-adv-x="761" d="M166 64h330v-64h-402v708h72v-644zM493 -176q10 -3 21.5 -4.5t21.5 -1.5q21 0 34 7.5t20 20.5t9.5 31.5t2.5 40.5v550h68v-561q0 -28 -6 -54.5t-21 -47t-40.5 -33t-65.5 -12.5q-11 0 -26 1.5t-28 5.5zM684 648q0 -21 -15 -34.5t-33 -13.5t-33 13.5t-15 34.5t15 34.5 t33 13.5t33 -13.5t15 -34.5z" unicode="ǈ"/>
<glyph glyph-name="lj" horiz-adv-x="503" d="M160 0h-68v756h68v-756zM235 -176q10 -3 21.5 -4.5t21.5 -1.5q21 0 34 7.5t20 20.5t9.5 31.5t2.5 40.5v550h68v-561q0 -28 -6 -54.5t-21 -47t-40.5 -33t-65.5 -12.5q-11 0 -26 1.5t-28 5.5zM426 648q0 -21 -15 -34.5t-33 -13.5t-33 13.5t-15 34.5t15 34.5t33 13.5 t33 -13.5t15 -34.5z" unicode="ǉ"/>
<glyph glyph-name="NJ" horiz-adv-x="1256" d="M596 105h2v603h72v-708h-90l-412 609h-2v-609h-72v708h90zM856 144q8 -42 37.5 -70.5t77.5 -28.5q37 0 61 13.5t38.5 36.5t20 52.5t5.5 61.5v499h72v-504q0 -35 -7.5 -74t-28.5 -72t-58 -54.5t-95 -21.5q-77 0 -127 40.5t-63 103.5z" unicode="Ǌ"/>
<glyph glyph-name="Nj" horiz-adv-x="1015" d="M596 105h2v603h72v-708h-90l-412 609h-2v-609h-72v708h90zM747 -176q10 -3 21.5 -4.5t21.5 -1.5q21 0 34 7.5t20 20.5t9.5 31.5t2.5 40.5v550h68v-561q0 -28 -6 -54.5t-21 -47t-40.5 -33t-65.5 -12.5q-11 0 -26 1.5t-28 5.5zM938 648q0 -21 -15 -34.5t-33 -13.5t-33 13.5 t-15 34.5t15 34.5t33 13.5t33 -13.5t15 -34.5z" unicode="ǋ"/>
<glyph glyph-name="nj" horiz-adv-x="832" d="M151 468q2 -19 3 -42t1 -38h2q20 41 65 66.5t95 25.5q89 0 133.5 -53t44.5 -140v-287h-68v259q0 37 -6 67t-20.5 51.5t-39 33.5t-61.5 12q-27 0 -52.5 -11t-45.5 -33.5t-32 -57t-12 -81.5v-240h-68v365q0 19 -1 49t-3 54h65zM564 -176q10 -3 21.5 -4.5t21.5 -1.5 q21 0 34 7.5t20 20.5t9.5 31.5t2.5 40.5v550h68v-561q0 -28 -6 -54.5t-21 -47t-40.5 -33t-65.5 -12.5q-11 0 -26 1.5t-28 5.5zM755 648q0 -21 -15 -34.5t-33 -13.5t-33 13.5t-15 34.5t15 34.5t33 13.5t33 -13.5t15 -34.5z" unicode="ǌ"/>
<glyph glyph-name="Acaron" horiz-adv-x="700" d="M89 0h-79l306 708h70l304 -708h-80l-78 186h-366zM193 252h312l-156 376zM390 783h-80l-109 144h66l83 -108l83 108h66z" unicode="Ǎ"/>
<glyph glyph-name="acaron" horiz-adv-x="534" d="M385 302q0 61 -32 91t-93 30q-42 0 -78 -15t-61 -40l-38 45q29 29 76.5 48t107.5 19q38 0 71 -10.5t58 -31.5t39 -53t14 -75v-205q0 -27 2 -56t6 -49h-61q-3 17 -5 37t-2 39h-2q-32 -47 -72.5 -67.5t-97.5 -20.5q-27 0 -55.5 7.5t-52 24.5t-39 44t-15.5 66 q0 54 27.5 85.5t73.5 47t105.5 20t123.5 4.5v15zM365 234q-42 0 -84.5 -3.5t-77 -14t-56.5 -30.5t-22 -53q0 -25 9.5 -42t25.5 -27.5t35.5 -15t39.5 -4.5q36 0 64 12.5t47 34t29 49.5t10 59v35h-20zM296 555h-80l-109 144h66l83 -108l83 108h66z" unicode="ǎ"/>
<glyph glyph-name="Icaron" horiz-adv-x="260" d="M166 0h-72v708h72v-708zM170 783h-80l-109 144h66l83 -108l83 108h66z" unicode="Ǐ"/>
<glyph glyph-name="icaron" horiz-adv-x="250" d="M159 0h-68v468h68v-468zM165 543h-80l-109 144h66l83 -108l83 108h66z" unicode="ǐ"/>
<glyph glyph-name="Ocaron" horiz-adv-x="850" d="M794 354q0 -81 -28 -149t-77.5 -117.5t-117 -77.5t-146.5 -28t-146.5 28t-117 77.5t-77.5 117.5t-28 149t28 149t77.5 117.5t117 77.5t146.5 28t146.5 -28t117 -77.5t77.5 -117.5t28 -149zM718 354q0 62 -20 118t-58 98.5t-92.5 67.5t-122.5 25t-122.5 -25t-92.5 -67.5 t-58 -98.5t-20 -118t20 -118t58 -98t92.5 -67t122.5 -25t122.5 25t92.5 67t58 98t20 118zM465 801h-80l-109 144h66l83 -108l83 108h66z" unicode="Ǒ"/>
<glyph glyph-name="ocaron" horiz-adv-x="611" d="M555 234q0 -53 -18.5 -98t-51.5 -78t-79 -51.5t-101 -18.5q-54 0 -100 18.5t-79 51.5t-51.5 78t-18.5 98t18.5 98t51.5 78t79 51.5t100 18.5q55 0 101 -18.5t79 -51.5t51.5 -78t18.5 -98zM483 234q0 39 -12.5 73.5t-35.5 60t-56 40.5t-74 15t-73.5 -15t-55.5 -40.5 t-35.5 -60t-12.5 -73.5t12.5 -73.5t35.5 -60t55.5 -40t73.5 -14.5t74 14.5t56 40t35.5 60t12.5 73.5zM345 555h-80l-109 144h66l83 -108l83 108h66z" unicode="ǒ"/>
<glyph glyph-name="Ucaron" horiz-adv-x="710" d="M355 -18q-80 0 -131 27.5t-81 69.5t-41.5 91.5t-11.5 93.5v444h72v-436q0 -43 10 -83.5t32.5 -72t59.5 -51t91 -19.5t91 19.5t59.5 51t32.5 72t10 83.5v436h72v-444q0 -44 -11.5 -93.5t-41.5 -91.5t-81.5 -69.5t-130.5 -27.5zM395 783h-80l-109 144h66l83 -108l83 108h66 z" unicode="Ǔ"/>
<glyph glyph-name="ucaron" horiz-adv-x="581" d="M430 0q-2 19 -3 42t-1 38h-2q-20 -41 -65 -66.5t-95 -25.5q-89 0 -133.5 53t-44.5 140v287h68v-259q0 -37 6 -67t20.5 -51.5t39 -33.5t61.5 -12q27 0 52.5 11t45.5 33.5t32 57t12 81.5v240h68v-365q0 -19 1 -49t3 -54h-65zM330 543h-80l-109 144h66l83 -108l83 108h66z " unicode="ǔ"/>
<glyph glyph-name="Udieresismacron" horiz-adv-x="710" d="M355 -18q-80 0 -131 27.5t-81 69.5t-41.5 91.5t-11.5 93.5v444h72v-436q0 -43 10 -83.5t32.5 -72t59.5 -51t91 -19.5t91 19.5t59.5 51t32.5 72t10 83.5v436h72v-444q0 -44 -11.5 -93.5t-41.5 -91.5t-81.5 -69.5t-130.5 -27.5zM208 834q0 20 14 35.5t37 15.5t37 -15.5 t14 -35.5t-14 -35.5t-37 -15.5t-37 15.5t-14 35.5zM400 834q0 20 14 35.5t37 15.5t37 -15.5t14 -35.5t-14 -35.5t-37 -15.5t-37 15.5t-14 35.5zM490 960h-270v54h270v-54z" unicode="Ǖ"/>
<glyph glyph-name="udieresismacron" horiz-adv-x="581" d="M430 0q-2 19 -3 42t-1 38h-2q-20 -41 -65 -66.5t-95 -25.5q-89 0 -133.5 53t-44.5 140v287h68v-259q0 -37 6 -67t20.5 -51.5t39 -33.5t61.5 -12q27 0 52.5 11t45.5 33.5t32 57t12 81.5v240h68v-365q0 -19 1 -49t3 -54h-65zM143 594q0 20 14 35.5t37 15.5t37 -15.5 t14 -35.5t-14 -35.5t-37 -15.5t-37 15.5t-14 35.5zM335 594q0 20 14 35.5t37 15.5t37 -15.5t14 -35.5t-14 -35.5t-37 -15.5t-37 15.5t-14 35.5zM425 720h-270v54h270v-54z" unicode="ǖ"/>
<glyph glyph-name="Udieresisacute" horiz-adv-x="710" d="M355 -18q-80 0 -131 27.5t-81 69.5t-41.5 91.5t-11.5 93.5v444h72v-436q0 -43 10 -83.5t32.5 -72t59.5 -51t91 -19.5t91 19.5t59.5 51t32.5 72t10 83.5v436h72v-444q0 -44 -11.5 -93.5t-41.5 -91.5t-81.5 -69.5t-130.5 -27.5zM208 834q0 20 14 35.5t37 15.5t37 -15.5 t14 -35.5t-14 -35.5t-37 -15.5t-37 15.5t-14 35.5zM400 834q0 20 14 35.5t37 15.5t37 -15.5t14 -35.5t-14 -35.5t-37 -15.5t-37 15.5t-14 35.5zM379 960h-59l100 144h91z" unicode="Ǘ"/>
<glyph glyph-name="udieresisacute" horiz-adv-x="581" d="M430 0q-2 19 -3 42t-1 38h-2q-20 -41 -65 -66.5t-95 -25.5q-89 0 -133.5 53t-44.5 140v287h68v-259q0 -37 6 -67t20.5 -51.5t39 -33.5t61.5 -12q27 0 52.5 11t45.5 33.5t32 57t12 81.5v240h68v-365q0 -19 1 -49t3 -54h-65zM143 594q0 20 14 35.5t37 15.5t37 -15.5 t14 -35.5t-14 -35.5t-37 -15.5t-37 15.5t-14 35.5zM335 594q0 20 14 35.5t37 15.5t37 -15.5t14 -35.5t-14 -35.5t-37 -15.5t-37 15.5t-14 35.5zM314 720h-59l100 144h91z" unicode="ǘ"/>
<glyph glyph-name="Udieresiscaron" horiz-adv-x="710" d="M355 -18q-80 0 -131 27.5t-81 69.5t-41.5 91.5t-11.5 93.5v444h72v-436q0 -43 10 -83.5t32.5 -72t59.5 -51t91 -19.5t91 19.5t59.5 51t32.5 72t10 83.5v436h72v-444q0 -44 -11.5 -93.5t-41.5 -91.5t-81.5 -69.5t-130.5 -27.5zM208 834q0 20 14 35.5t37 15.5t37 -15.5 t14 -35.5t-14 -35.5t-37 -15.5t-37 15.5t-14 35.5zM400 834q0 20 14 35.5t37 15.5t37 -15.5t14 -35.5t-14 -35.5t-37 -15.5t-37 15.5t-14 35.5zM395 960h-80l-109 144h66l83 -108l83 108h66z" unicode="Ǚ"/>
<glyph glyph-name="udieresiscaron" horiz-adv-x="581" d="M430 0q-2 19 -3 42t-1 38h-2q-20 -41 -65 -66.5t-95 -25.5q-89 0 -133.5 53t-44.5 140v287h68v-259q0 -37 6 -67t20.5 -51.5t39 -33.5t61.5 -12q27 0 52.5 11t45.5 33.5t32 57t12 81.5v240h68v-365q0 -19 1 -49t3 -54h-65zM143 594q0 20 14 35.5t37 15.5t37 -15.5 t14 -35.5t-14 -35.5t-37 -15.5t-37 15.5t-14 35.5zM335 594q0 20 14 35.5t37 15.5t37 -15.5t14 -35.5t-14 -35.5t-37 -15.5t-37 15.5t-14 35.5zM330 720h-80l-109 144h66l83 -108l83 108h66z" unicode="ǚ"/>
<glyph glyph-name="Udieresisgrave" horiz-adv-x="710" d="M355 -18q-80 0 -131 27.5t-81 69.5t-41.5 91.5t-11.5 93.5v444h72v-436q0 -43 10 -83.5t32.5 -72t59.5 -51t91 -19.5t91 19.5t59.5 51t32.5 72t10 83.5v436h72v-444q0 -44 -11.5 -93.5t-41.5 -91.5t-81.5 -69.5t-130.5 -27.5zM208 834q0 20 14 35.5t37 15.5t37 -15.5 t14 -35.5t-14 -35.5t-37 -15.5t-37 15.5t-14 35.5zM400 834q0 20 14 35.5t37 15.5t37 -15.5t14 -35.5t-14 -35.5t-37 -15.5t-37 15.5t-14 35.5zM192 1104h91l100 -144h-59z" unicode="Ǜ"/>
<glyph glyph-name="udieresisgrave" horiz-adv-x="581" d="M430 0q-2 19 -3 42t-1 38h-2q-20 -41 -65 -66.5t-95 -25.5q-89 0 -133.5 53t-44.5 140v287h68v-259q0 -37 6 -67t20.5 -51.5t39 -33.5t61.5 -12q27 0 52.5 11t45.5 33.5t32 57t12 81.5v240h68v-365q0 -19 1 -49t3 -54h-65zM143 594q0 20 14 35.5t37 15.5t37 -15.5 t14 -35.5t-14 -35.5t-37 -15.5t-37 15.5t-14 35.5zM335 594q0 20 14 35.5t37 15.5t37 -15.5t14 -35.5t-14 -35.5t-37 -15.5t-37 15.5t-14 35.5zM145 864h91l100 -144h-59z" unicode="ǜ"/>
<glyph glyph-name="Adieresismacron" horiz-adv-x="700" d="M89 0h-79l306 708h70l304 -708h-80l-78 186h-366zM193 252h312l-156 376zM203 834q0 20 14 35.5t37 15.5t37 -15.5t14 -35.5t-14 -35.5t-37 -15.5t-37 15.5t-14 35.5zM395 834q0 20 14 35.5t37 15.5t37 -15.5t14 -35.5t-14 -35.5t-37 -15.5t-37 15.5t-14 35.5zM485 960 h-270v54h270v-54z" unicode="Ǟ"/>
<glyph glyph-name="adieresismacron" horiz-adv-x="534" d="M385 302q0 61 -32 91t-93 30q-42 0 -78 -15t-61 -40l-38 45q29 29 76.5 48t107.5 19q38 0 71 -10.5t58 -31.5t39 -53t14 -75v-205q0 -27 2 -56t6 -49h-61q-3 17 -5 37t-2 39h-2q-32 -47 -72.5 -67.5t-97.5 -20.5q-27 0 -55.5 7.5t-52 24.5t-39 44t-15.5 66 q0 54 27.5 85.5t73.5 47t105.5 20t123.5 4.5v15zM365 234q-42 0 -84.5 -3.5t-77 -14t-56.5 -30.5t-22 -53q0 -25 9.5 -42t25.5 -27.5t35.5 -15t39.5 -4.5q36 0 64 12.5t47 34t29 49.5t10 59v35h-20zM109 606q0 20 14 35.5t37 15.5t37 -15.5t14 -35.5t-14 -35.5t-37 -15.5 t-37 15.5t-14 35.5zM301 606q0 20 14 35.5t37 15.5t37 -15.5t14 -35.5t-14 -35.5t-37 -15.5t-37 15.5t-14 35.5zM391 732h-270v54h270v-54z" unicode="ǟ"/>
<glyph glyph-name="Adotmacron" horiz-adv-x="700" d="M89 0h-79l306 708h70l304 -708h-80l-78 186h-366zM193 252h312l-156 376zM398 831q0 -21 -15 -34.5t-33 -13.5t-33 13.5t-15 34.5t15 34.5t33 13.5t33 -13.5t15 -34.5zM485 954h-270v54h270v-54z" unicode="Ǡ"/>
<glyph glyph-name="adotmacron" horiz-adv-x="534" d="M385 302q0 61 -32 91t-93 30q-42 0 -78 -15t-61 -40l-38 45q29 29 76.5 48t107.5 19q38 0 71 -10.5t58 -31.5t39 -53t14 -75v-205q0 -27 2 -56t6 -49h-61q-3 17 -5 37t-2 39h-2q-32 -47 -72.5 -67.5t-97.5 -20.5q-27 0 -55.5 7.5t-52 24.5t-39 44t-15.5 66 q0 54 27.5 85.5t73.5 47t105.5 20t123.5 4.5v15zM365 234q-42 0 -84.5 -3.5t-77 -14t-56.5 -30.5t-22 -53q0 -25 9.5 -42t25.5 -27.5t35.5 -15t39.5 -4.5q36 0 64 12.5t47 34t29 49.5t10 59v35h-20zM304 603q0 -21 -15 -34.5t-33 -13.5t-33 13.5t-15 34.5t15 34.5t33 13.5 t33 -13.5t15 -34.5zM391 726h-270v54h270v-54z" unicode="ǡ"/>
<glyph glyph-name="AEmacron" horiz-adv-x="990" d="M591 64h345v-64h-417v198h-298l-128 -198h-82l461 708h452v-64h-333v-244h309v-63h-309v-273zM519 261v383h-14l-247 -383h261zM868 783h-270v54h270v-54z" unicode="Ǣ"/>
<glyph glyph-name="aemacron" horiz-adv-x="870" d="M814 248v-17t-1 -15h-370q1 -35 13.5 -66.5t34.5 -54.5t51.5 -36.5t63.5 -13.5q51 0 87.5 24.5t55.5 56.5l49 -39q-40 -53 -88 -76t-104 -23q-66 0 -114.5 29t-71.5 80q-14 -32 -34.5 -53t-46 -33.5t-54.5 -17.5t-60 -5q-30 0 -60.5 7.5t-54.5 23.5t-39 42t-15 64 q0 50 28 79t73.5 43.5t104 18.5t118.5 4v15q0 61 -29.5 99.5t-90.5 38.5q-42 0 -79.5 -15t-64.5 -40l-39 44q30 29 81.5 48.5t111.5 19.5q56 0 96.5 -25.5t57.5 -72.5q28 45 74.5 71.5t102.5 26.5q52 0 92 -18.5t67 -50t40.5 -73.5t13.5 -90zM745 270q0 67 -38 110t-106 43 q-31 0 -58.5 -12.5t-48.5 -34t-34 -49t-14 -57.5h299zM360 216q-45 0 -87.5 -2.5t-75 -11.5t-52 -27t-19.5 -49q0 -24 9 -40t24.5 -25.5t35.5 -13.5t42 -4q72 0 107.5 38t35.5 101v34h-20zM570 555h-270v54h270v-54z" unicode="ǣ"/>
<glyph glyph-name="Gcaron" horiz-adv-x="779" d="M631 581q-37 39 -88 60.5t-117 21.5q-68 0 -122.5 -25t-92.5 -67.5t-58.5 -98.5t-20.5 -118t20.5 -118t58.5 -98t92.5 -67t122.5 -25q60 0 110 13t81 33v215h-165v63h237v-319q-58 -35 -125 -52t-139 -17q-80 0 -148 28t-117 77.5t-76.5 117.5t-27.5 149t28 149 t77.5 117.5t117 77.5t146.5 28q85 0 148 -25t108 -70zM472 801h-80l-109 144h66l83 -108l83 108h66z" unicode="Ǧ"/>
<glyph glyph-name="gcaron" horiz-adv-x="632" d="M115 -94q28 -36 76.5 -61t102.5 -25q50 0 85 14.5t56.5 39.5t31.5 58.5t10 71.5v88h-2q-27 -44 -76.5 -68t-100.5 -24q-55 0 -99.5 18t-76 49.5t-49 75.5t-17.5 95q0 50 17.5 94t49 77t76 52t99.5 19q51 0 100 -24t77 -69h2v81h68v-464q0 -38 -10.5 -81t-39 -79 t-77.5 -60t-127 -24q-65 0 -124 25t-101 69zM128 240q0 -37 12 -70t34.5 -58t55.5 -39.5t75 -14.5q39 0 72 13t57 37t37.5 57.5t13.5 74.5q0 37 -13.5 70t-37.5 58t-57 40t-72 15q-42 0 -75 -15t-55.5 -40t-34.5 -58t-12 -70zM340 555h-80l-109 144h66l83 -108l83 108h66z " unicode="ǧ"/>
<glyph glyph-name="Kcaron" horiz-adv-x="628" d="M166 390h1l337 318h103l-357 -321l377 -387h-106l-354 377h-1v-377h-72v708h72v-318zM360 783h-80l-109 144h66l83 -108l83 108h66z" unicode="Ǩ"/>
<glyph glyph-name="kcaron" horiz-adv-x="510" d="M160 257h3l216 211h98l-236 -214l260 -254h-100l-238 246h-3v-246h-68v756h68v-499zM171 831h-80l-109 144h66l83 -108l83 108h66z" unicode="ǩ"/>
<glyph glyph-name="Oogonek" horiz-adv-x="850" d="M794 354q0 -75 -24.5 -139.5t-68 -113t-103 -79.5t-130.5 -38q-35 -35 -54 -64.5t-19 -58.5q0 -21 15 -34.5t35 -13.5q14 0 27.5 5.5t23.5 16.5l19 -40q-17 -17 -41 -26.5t-49 -9.5q-18 0 -34 6t-28.5 17.5t-20 27t-7.5 34.5q0 20 7 39.5t19 37.5t26.5 33.5t29.5 28.5 q-78 1 -144 29.5t-114 78t-75.5 116.5t-27.5 147q0 81 28 149t77.5 117.5t117 77.5t146.5 28t146.5 -28t117 -77.5t77.5 -117.5t28 -149zM718 354q0 62 -20 118t-58 98.5t-92.5 67.5t-122.5 25t-122.5 -25t-92.5 -67.5t-58 -98.5t-20 -118t20 -118t58 -98t92.5 -67 t122.5 -25t122.5 25t92.5 67t58 98t20 118z" unicode="Ǫ"/>
<glyph glyph-name="oogonek" horiz-adv-x="611" d="M555 234q0 -47 -15 -88.5t-42 -73t-65 -52.5t-84 -28q-35 -36 -54.5 -66t-19.5 -59q0 -21 15 -34.5t35 -13.5q14 0 27.5 5.5t23.5 16.5l19 -40q-17 -17 -41 -26.5t-49 -9.5q-18 0 -34 6t-28.5 17.5t-20 27t-7.5 34.5q0 20 7.5 39.5t19 37t26 33.5t29.5 28q-53 1 -97 20.5 t-76 52t-50 77t-18 96.5q0 53 18.5 98t51.5 78t79 51.5t100 18.5q55 0 101 -18.5t79 -51.5t51.5 -78t18.5 -98zM483 234q0 39 -12.5 73.5t-35.5 60t-56 40.5t-74 15t-73.5 -15t-55.5 -40.5t-35.5 -60t-12.5 -73.5t12.5 -73.5t35.5 -60t55.5 -40t73.5 -14.5t74 14.5t56 40 t35.5 60t12.5 73.5z" unicode="ǫ"/>
<glyph glyph-name="Oogonekmacron" horiz-adv-x="850" d="M794 354q0 -75 -24.5 -139.5t-68 -113t-103 -79.5t-130.5 -38q-35 -35 -54 -64.5t-19 -58.5q0 -21 15 -34.5t35 -13.5q14 0 27.5 5.5t23.5 16.5l19 -40q-17 -17 -41 -26.5t-49 -9.5q-18 0 -34 6t-28.5 17.5t-20 27t-7.5 34.5q0 20 7 39.5t19 37.5t26.5 33.5t29.5 28.5 q-78 1 -144 29.5t-114 78t-75.5 116.5t-27.5 147q0 81 28 149t77.5 117.5t117 77.5t146.5 28t146.5 -28t117 -77.5t77.5 -117.5t28 -149zM718 354q0 62 -20 118t-58 98.5t-92.5 67.5t-122.5 25t-122.5 -25t-92.5 -67.5t-58 -98.5t-20 -118t20 -118t58 -98t92.5 -67 t122.5 -25t122.5 25t92.5 67t58 98t20 118zM560 801h-270v54h270v-54z" unicode="Ǭ"/>
<glyph glyph-name="oogonekmacron" horiz-adv-x="611" d="M555 234q0 -47 -15 -88.5t-42 -73t-65 -52.5t-84 -28q-35 -36 -54.5 -66t-19.5 -59q0 -21 15 -34.5t35 -13.5q14 0 27.5 5.5t23.5 16.5l19 -40q-17 -17 -41 -26.5t-49 -9.5q-18 0 -34 6t-28.5 17.5t-20 27t-7.5 34.5q0 20 7.5 39.5t19 37t26 33.5t29.5 28q-53 1 -97 20.5 t-76 52t-50 77t-18 96.5q0 53 18.5 98t51.5 78t79 51.5t100 18.5q55 0 101 -18.5t79 -51.5t51.5 -78t18.5 -98zM483 234q0 39 -12.5 73.5t-35.5 60t-56 40.5t-74 15t-73.5 -15t-55.5 -40.5t-35.5 -60t-12.5 -73.5t12.5 -73.5t35.5 -60t55.5 -40t73.5 -14.5t74 14.5t56 40 t35.5 60t12.5 73.5zM440 555h-270v54h270v-54z" unicode="ǭ"/>
<glyph glyph-name="DZ" horiz-adv-x="1329" d="M94 708h235q66 0 132.5 -22t120 -66.5t86.5 -111t33 -154.5q0 -89 -33 -155t-86.5 -110.5t-120 -66.5t-132.5 -22h-235v708zM166 64h143q80 0 139.5 25t98.5 65.5t58.5 92.5t19.5 107t-19.5 107t-58.5 92.5t-98.5 65.5t-139.5 25h-143v-580zM1292 648l-413 -584h419v-64 h-510v60l414 584h-403v64h493v-60z" unicode="Ǳ"/>
<glyph glyph-name="Dz" horiz-adv-x="1199" d="M94 708h235q66 0 132.5 -22t120 -66.5t86.5 -111t33 -154.5q0 -89 -33 -155t-86.5 -110.5t-120 -66.5t-132.5 -22h-235v708zM166 64h143q80 0 139.5 25t98.5 65.5t58.5 92.5t19.5 107t-19.5 107t-58.5 92.5t-98.5 65.5t-139.5 25h-143v-580zM1158 420l-280 -361h290v-59 h-380v48l279 363h-265v57h356v-48z" unicode="ǲ"/>
<glyph glyph-name="dz" horiz-adv-x="1079" d="M475 79q-30 -45 -78 -68t-99 -23q-55 0 -99.5 19t-76 52t-49 78t-17.5 97t17.5 97t49 78t76 52t99.5 19q51 0 99 -23.5t78 -69.5h2v369h68v-756h-68v79h-2zM128 234q0 -39 12 -73.5t34.5 -60t55.5 -40t75 -14.5q39 0 72 14.5t57 39.5t37.5 59.5t13.5 74.5t-13.5 74.5 t-37.5 60t-57 40t-72 14.5q-42 0 -75 -15t-55.5 -40.5t-34.5 -60t-12 -73.5zM1038 420l-280 -361h290v-59h-380v48l279 363h-265v57h356v-48z" unicode="ǳ"/>
<glyph glyph-name="Gacute" horiz-adv-x="779" d="M631 581q-37 39 -88 60.5t-117 21.5q-68 0 -122.5 -25t-92.5 -67.5t-58.5 -98.5t-20.5 -118t20.5 -118t58.5 -98t92.5 -67t122.5 -25q60 0 110 13t81 33v215h-165v63h237v-319q-58 -35 -125 -52t-139 -17q-80 0 -148 28t-117 77.5t-76.5 117.5t-27.5 149t28 149 t77.5 117.5t117 77.5t146.5 28q85 0 148 -25t108 -70zM436 801h-59l100 144h91z" unicode="Ǵ"/>
<glyph glyph-name="gacute" horiz-adv-x="632" d="M115 -94q28 -36 76.5 -61t102.5 -25q50 0 85 14.5t56.5 39.5t31.5 58.5t10 71.5v88h-2q-27 -44 -76.5 -68t-100.5 -24q-55 0 -99.5 18t-76 49.5t-49 75.5t-17.5 95q0 50 17.5 94t49 77t76 52t99.5 19q51 0 100 -24t77 -69h2v81h68v-464q0 -38 -10.5 -81t-39 -79 t-77.5 -60t-127 -24q-65 0 -124 25t-101 69zM128 240q0 -37 12 -70t34.5 -58t55.5 -39.5t75 -14.5q39 0 72 13t57 37t37.5 57.5t13.5 74.5q0 37 -13.5 70t-37.5 58t-57 40t-72 15q-42 0 -75 -15t-55.5 -40t-34.5 -58t-12 -70zM294 555h-59l100 144h91z" unicode="ǵ"/>
<glyph glyph-name="Ngrave" horiz-adv-x="764" d="M596 105h2v603h72v-708h-90l-412 609h-2v-609h-72v708h90zM257 927h91l100 -144h-59z" unicode="Ǹ"/>
<glyph glyph-name="ngrave" horiz-adv-x="581" d="M151 468q2 -19 3 -42t1 -38h2q20 41 65 66.5t95 25.5q89 0 133.5 -53t44.5 -140v-287h-68v259q0 37 -6 67t-20.5 51.5t-39 33.5t-61.5 12q-27 0 -52.5 -11t-45.5 -33.5t-32 -57t-12 -81.5v-240h-68v365q0 19 -1 49t-3 54h65zM185 699h91l100 -144h-59z" unicode="ǹ"/>
<glyph glyph-name="Aringacute" horiz-adv-x="700" d="M89 0h-79l306 708h70l304 -708h-80l-78 186h-366zM193 252h312l-156 376zM446 878q0 -20 -7.5 -37.5t-21 -30.5t-31 -20t-36.5 -7q-20 0 -37 7t-30.5 20t-21 30.5t-7.5 37.5t7.5 37.5t21 30t30.5 20t37 7.5q19 0 36.5 -7.5t31 -20t21 -30t7.5 -37.5zM410 878 q0 25 -17.5 42t-42.5 17t-42.5 -17t-17.5 -42t17.5 -42t42.5 -17t42.5 17t17.5 42zM314 1048h-59l100 144h91z" unicode="Ǻ"/>
<glyph glyph-name="aringacute" horiz-adv-x="534" d="M385 302q0 61 -32 91t-93 30q-42 0 -78 -15t-61 -40l-38 45q29 29 76.5 48t107.5 19q38 0 71 -10.5t58 -31.5t39 -53t14 -75v-205q0 -27 2 -56t6 -49h-61q-3 17 -5 37t-2 39h-2q-32 -47 -72.5 -67.5t-97.5 -20.5q-27 0 -55.5 7.5t-52 24.5t-39 44t-15.5 66 q0 54 27.5 85.5t73.5 47t105.5 20t123.5 4.5v15zM365 234q-42 0 -84.5 -3.5t-77 -14t-56.5 -30.5t-22 -53q0 -25 9.5 -42t25.5 -27.5t35.5 -15t39.5 -4.5q36 0 64 12.5t47 34t29 49.5t10 59v35h-20zM352 650q0 -20 -7.5 -37.5t-21 -30.5t-31 -20t-36.5 -7q-20 0 -37 7 t-30.5 20t-21 30.5t-7.5 37.5t7.5 37.5t21 30t30.5 20t37 7.5q19 0 36.5 -7.5t31 -20t21 -30t7.5 -37.5zM316 650q0 25 -17.5 42t-42.5 17t-42.5 -17t-17.5 -42t17.5 -42t42.5 -17t42.5 17t17.5 42zM220 820h-59l100 144h91z" unicode="ǻ"/>
<glyph glyph-name="AEacute" horiz-adv-x="990" d="M591 64h345v-64h-417v198h-298l-128 -198h-82l461 708h452v-64h-333v-244h309v-63h-309v-273zM519 261v383h-14l-247 -383h261zM727 783h-59l100 144h91z" unicode="Ǽ"/>
<glyph glyph-name="aeacute" horiz-adv-x="870" d="M814 248v-17t-1 -15h-370q1 -35 13.5 -66.5t34.5 -54.5t51.5 -36.5t63.5 -13.5q51 0 87.5 24.5t55.5 56.5l49 -39q-40 -53 -88 -76t-104 -23q-66 0 -114.5 29t-71.5 80q-14 -32 -34.5 -53t-46 -33.5t-54.5 -17.5t-60 -5q-30 0 -60.5 7.5t-54.5 23.5t-39 42t-15 64 q0 50 28 79t73.5 43.5t104 18.5t118.5 4v15q0 61 -29.5 99.5t-90.5 38.5q-42 0 -79.5 -15t-64.5 -40l-39 44q30 29 81.5 48.5t111.5 19.5q56 0 96.5 -25.5t57.5 -72.5q28 45 74.5 71.5t102.5 26.5q52 0 92 -18.5t67 -50t40.5 -73.5t13.5 -90zM745 270q0 67 -38 110t-106 43 q-31 0 -58.5 -12.5t-48.5 -34t-34 -49t-14 -57.5h299zM360 216q-45 0 -87.5 -2.5t-75 -11.5t-52 -27t-19.5 -49q0 -24 9 -40t24.5 -25.5t35.5 -13.5t42 -4q72 0 107.5 38t35.5 101v34h-20zM479 555h-59l100 144h91z" unicode="ǽ"/>
<glyph glyph-name="Oslashacute" horiz-adv-x="850" d="M698 610q46 -49 71 -114t25 -142q0 -81 -28 -149t-77.5 -117.5t-117 -77.5t-146.5 -28q-69 0 -129 21.5t-107 59.5l-76 -81l-37 34l76 82q-46 49 -71 114t-25 142q0 81 28 149t77.5 117.5t117 77.5t146.5 28q69 0 128.5 -21t107.5 -60l76 81l37 -34zM236 113 q37 -32 83.5 -49.5t105.5 -17.5q69 0 123.5 25t92 67t57.5 98t20 118q0 57 -17 110t-50 94zM616 595q-35 32 -83.5 50t-107.5 18q-69 0 -123.5 -25t-92 -67.5t-57.5 -98.5t-20 -118q0 -58 17.5 -111t51.5 -93zM419 801h-59l100 144h91z" unicode="Ǿ"/>
<glyph glyph-name="oslashacute" horiz-adv-x="611" d="M188 82q23 -18 51.5 -28.5t63.5 -10.5q42 0 75.5 15t57.5 40.5t37 60.5t13 75q0 32 -9 63.5t-27 53.5zM421 385q-20 20 -50.5 30t-65.5 10q-42 0 -75 -15t-56.5 -41t-36 -60.5t-12.5 -74.5q0 -34 8.5 -65t25.5 -53zM495 397q27 -31 43.5 -72.5t16.5 -90.5 q0 -53 -18.5 -98t-52 -78t-79.5 -51.5t-101 -18.5q-48 0 -87.5 14t-69.5 38l-67 -68l-32 31l66 68q-28 32 -43 73.5t-15 89.5q0 53 18.5 98t51.5 78t78.5 51.5t99.5 18.5q47 0 87 -13.5t72 -38.5l66 68l32 -31zM308 571h-59l100 144h91z" unicode="ǿ"/>
<glyph glyph-name="Adblgrave" horiz-adv-x="700" d="M89 0h-79l306 708h70l304 -708h-80l-78 186h-366zM193 252h312l-156 376zM262 927h91l100 -144h-59zM108 927h91l100 -144h-59z" unicode="Ȁ"/>
<glyph glyph-name="adblgrave" horiz-adv-x="534" d="M385 302q0 61 -32 91t-93 30q-42 0 -78 -15t-61 -40l-38 45q29 29 76.5 48t107.5 19q38 0 71 -10.5t58 -31.5t39 -53t14 -75v-205q0 -27 2 -56t6 -49h-61q-3 17 -5 37t-2 39h-2q-32 -47 -72.5 -67.5t-97.5 -20.5q-27 0 -55.5 7.5t-52 24.5t-39 44t-15.5 66 q0 54 27.5 85.5t73.5 47t105.5 20t123.5 4.5v15zM365 234q-42 0 -84.5 -3.5t-77 -14t-56.5 -30.5t-22 -53q0 -25 9.5 -42t25.5 -27.5t35.5 -15t39.5 -4.5q36 0 64 12.5t47 34t29 49.5t10 59v35h-20zM178 699h91l100 -144h-59zM24 699h91l100 -144h-59z" unicode="ȁ"/>
<glyph glyph-name="Ainvertedbreve" horiz-adv-x="700" d="M89 0h-79l306 708h70l304 -708h-80l-78 186h-366zM193 252h312l-156 376zM453 783q-7 39 -36 58.5t-67 19.5t-67 -19.5t-36 -58.5h-44q4 63 44.5 97.5t102.5 34.5t102.5 -34.5t44.5 -97.5h-44z" unicode="Ȃ"/>
<glyph glyph-name="ainvertedbreve" horiz-adv-x="534" d="M385 302q0 61 -32 91t-93 30q-42 0 -78 -15t-61 -40l-38 45q29 29 76.5 48t107.5 19q38 0 71 -10.5t58 -31.5t39 -53t14 -75v-205q0 -27 2 -56t6 -49h-61q-3 17 -5 37t-2 39h-2q-32 -47 -72.5 -67.5t-97.5 -20.5q-27 0 -55.5 7.5t-52 24.5t-39 44t-15.5 66 q0 54 27.5 85.5t73.5 47t105.5 20t123.5 4.5v15zM365 234q-42 0 -84.5 -3.5t-77 -14t-56.5 -30.5t-22 -53q0 -25 9.5 -42t25.5 -27.5t35.5 -15t39.5 -4.5q36 0 64 12.5t47 34t29 49.5t10 59v35h-20zM359 555q-7 39 -36 58.5t-67 19.5t-67 -19.5t-36 -58.5h-44 q4 63 44.5 97.5t102.5 34.5t102.5 -34.5t44.5 -97.5h-44z" unicode="ȃ"/>
<glyph glyph-name="Edblgrave" horiz-adv-x="592" d="M166 64h379v-64h-451v708h439v-64h-367v-244h343v-63h-343v-273zM241 927h91l100 -144h-59zM87 927h91l100 -144h-59z" unicode="Ȅ"/>
<glyph glyph-name="edblgrave" d="M447 270q-3 66 -42.5 109.5t-112.5 43.5q-34 0 -63 -12.5t-51 -34t-35 -49t-15 -57.5h319zM516 248v-15t-1 -17h-388q1 -35 14 -66t36 -54t54 -36.5t67 -13.5q53 0 91.5 24.5t58.5 56.5l51 -40q-42 -53 -92.5 -76t-108.5 -23q-52 0 -96.5 18.5t-76.5 51.5t-50.5 78 t-18.5 98t18 98t50 78t75 51.5t93 18.5q55 0 97 -18.5t70 -50t42.5 -73.5t14.5 -90zM228 699h91l100 -144h-59zM74 699h91l100 -144h-59z" unicode="ȅ"/>
<glyph glyph-name="Einvertedbreve" horiz-adv-x="592" d="M166 64h379v-64h-451v708h439v-64h-367v-244h343v-63h-343v-273zM422 783q-7 39 -36 58.5t-67 19.5t-67 -19.5t-36 -58.5h-44q4 63 44.5 97.5t102.5 34.5t102.5 -34.5t44.5 -97.5h-44z" unicode="Ȇ"/>
<glyph glyph-name="einvertedbreve" d="M447 270q-3 66 -42.5 109.5t-112.5 43.5q-34 0 -63 -12.5t-51 -34t-35 -49t-15 -57.5h319zM516 248v-15t-1 -17h-388q1 -35 14 -66t36 -54t54 -36.5t67 -13.5q53 0 91.5 24.5t58.5 56.5l51 -40q-42 -53 -92.5 -76t-108.5 -23q-52 0 -96.5 18.5t-76.5 51.5t-50.5 78 t-18.5 98t18 98t50 78t75 51.5t93 18.5q55 0 97 -18.5t70 -50t42.5 -73.5t14.5 -90zM389 555q-7 39 -36 58.5t-67 19.5t-67 -19.5t-36 -58.5h-44q4 63 44.5 97.5t102.5 34.5t102.5 -34.5t44.5 -97.5h-44z" unicode="ȇ"/>
<glyph glyph-name="Idblgrave" horiz-adv-x="260" d="M166 0h-72v708h72v-708zM62 927h91l100 -144h-59zM-92 927h91l100 -144h-59z" unicode="Ȉ"/>
<glyph glyph-name="idblgrave" horiz-adv-x="250" d="M159 0h-68v468h68v-468zM67 687h91l100 -144h-59zM-87 687h91l100 -144h-59z" unicode="ȉ"/>
<glyph glyph-name="Iinvertedbreve" horiz-adv-x="260" d="M166 0h-72v708h72v-708zM233 783q-7 39 -36 58.5t-67 19.5t-67 -19.5t-36 -58.5h-44q4 63 44.5 97.5t102.5 34.5t102.5 -34.5t44.5 -97.5h-44z" unicode="Ȋ"/>
<glyph glyph-name="iinvertedbreve" horiz-adv-x="250" d="M159 0h-68v468h68v-468zM228 543q-7 39 -36 58.5t-67 19.5t-67 -19.5t-36 -58.5h-44q4 63 44.5 97.5t102.5 34.5t102.5 -34.5t44.5 -97.5h-44z" unicode="ȋ"/>
<glyph glyph-name="Odblgrave" horiz-adv-x="850" d="M794 354q0 -81 -28 -149t-77.5 -117.5t-117 -77.5t-146.5 -28t-146.5 28t-117 77.5t-77.5 117.5t-28 149t28 149t77.5 117.5t117 77.5t146.5 28t146.5 -28t117 -77.5t77.5 -117.5t28 -149zM718 354q0 62 -20 118t-58 98.5t-92.5 67.5t-122.5 25t-122.5 -25t-92.5 -67.5 t-58 -98.5t-20 -118t20 -118t58 -98t92.5 -67t122.5 -25t122.5 25t92.5 67t58 98t20 118zM377 945h91l100 -144h-59zM223 945h91l100 -144h-59z" unicode="Ȍ"/>
<glyph glyph-name="odblgrave" horiz-adv-x="611" d="M555 234q0 -53 -18.5 -98t-51.5 -78t-79 -51.5t-101 -18.5q-54 0 -100 18.5t-79 51.5t-51.5 78t-18.5 98t18.5 98t51.5 78t79 51.5t100 18.5q55 0 101 -18.5t79 -51.5t51.5 -78t18.5 -98zM483 234q0 39 -12.5 73.5t-35.5 60t-56 40.5t-74 15t-73.5 -15t-55.5 -40.5 t-35.5 -60t-12.5 -73.5t12.5 -73.5t35.5 -60t55.5 -40t73.5 -14.5t74 14.5t56 40t35.5 60t12.5 73.5zM257 699h91l100 -144h-59zM103 699h91l100 -144h-59z" unicode="ȍ"/>
<glyph glyph-name="Oinvertedbreve" horiz-adv-x="850" d="M794 354q0 -81 -28 -149t-77.5 -117.5t-117 -77.5t-146.5 -28t-146.5 28t-117 77.5t-77.5 117.5t-28 149t28 149t77.5 117.5t117 77.5t146.5 28t146.5 -28t117 -77.5t77.5 -117.5t28 -149zM718 354q0 62 -20 118t-58 98.5t-92.5 67.5t-122.5 25t-122.5 -25t-92.5 -67.5 t-58 -98.5t-20 -118t20 -118t58 -98t92.5 -67t122.5 -25t122.5 25t92.5 67t58 98t20 118zM528 801q-7 39 -36 58.5t-67 19.5t-67 -19.5t-36 -58.5h-44q4 63 44.5 97.5t102.5 34.5t102.5 -34.5t44.5 -97.5h-44z" unicode="Ȏ"/>
<glyph glyph-name="oinvertedbreve" horiz-adv-x="611" d="M555 234q0 -53 -18.5 -98t-51.5 -78t-79 -51.5t-101 -18.5q-54 0 -100 18.5t-79 51.5t-51.5 78t-18.5 98t18.5 98t51.5 78t79 51.5t100 18.5q55 0 101 -18.5t79 -51.5t51.5 -78t18.5 -98zM483 234q0 39 -12.5 73.5t-35.5 60t-56 40.5t-74 15t-73.5 -15t-55.5 -40.5 t-35.5 -60t-12.5 -73.5t12.5 -73.5t35.5 -60t55.5 -40t73.5 -14.5t74 14.5t56 40t35.5 60t12.5 73.5zM408 555q-7 39 -36 58.5t-67 19.5t-67 -19.5t-36 -58.5h-44q4 63 44.5 97.5t102.5 34.5t102.5 -34.5t44.5 -97.5h-44z" unicode="ȏ"/>
<glyph glyph-name="Rdblgrave" horiz-adv-x="599" d="M166 0h-72v708h208q52 0 96.5 -10t77 -32.5t50.5 -58.5t18 -88q0 -39 -14 -71t-38 -55.5t-57 -37.5t-72 -18l207 -337h-88l-196 331h-120v-331zM166 393h125q87 0 134 31.5t47 94.5q0 35 -13 59t-36 39t-56 22t-73 7h-128v-253zM214 927h91l100 -144h-59zM60 927h91 l100 -144h-59z" unicode="Ȑ"/>
<glyph glyph-name="rdblgrave" horiz-adv-x="360" d="M90 365q0 19 -1 49t-3 54h65q2 -19 3 -42t1 -38h2q20 41 60 66.5t90 25.5q13 0 23.5 -1t21.5 -4l-9 -64q-6 2 -20 4t-28 2q-27 0 -52 -10t-43.5 -31.5t-30 -55t-11.5 -80.5v-240h-68v365zM151 699h91l100 -144h-59zM-3 699h91l100 -144h-59z" unicode="ȑ"/>
<glyph glyph-name="Rinvertedbreve" horiz-adv-x="599" d="M166 0h-72v708h208q52 0 96.5 -10t77 -32.5t50.5 -58.5t18 -88q0 -39 -14 -71t-38 -55.5t-57 -37.5t-72 -18l207 -337h-88l-196 331h-120v-331zM166 393h125q87 0 134 31.5t47 94.5q0 35 -13 59t-36 39t-56 22t-73 7h-128v-253zM395 783q-7 39 -36 58.5t-67 19.5 t-67 -19.5t-36 -58.5h-44q4 63 44.5 97.5t102.5 34.5t102.5 -34.5t44.5 -97.5h-44z" unicode="Ȓ"/>
<glyph glyph-name="rinvertedbreve" horiz-adv-x="360" d="M90 365q0 19 -1 49t-3 54h65q2 -19 3 -42t1 -38h2q20 41 60 66.5t90 25.5q13 0 23.5 -1t21.5 -4l-9 -64q-6 2 -20 4t-28 2q-27 0 -52 -10t-43.5 -31.5t-30 -55t-11.5 -80.5v-240h-68v365zM322 555q-7 39 -36 58.5t-67 19.5t-67 -19.5t-36 -58.5h-44q4 63 44.5 97.5 t102.5 34.5t102.5 -34.5t44.5 -97.5h-44z" unicode="ȓ"/>
<glyph glyph-name="Udblgrave" horiz-adv-x="710" d="M355 -18q-80 0 -131 27.5t-81 69.5t-41.5 91.5t-11.5 93.5v444h72v-436q0 -43 10 -83.5t32.5 -72t59.5 -51t91 -19.5t91 19.5t59.5 51t32.5 72t10 83.5v436h72v-444q0 -44 -11.5 -93.5t-41.5 -91.5t-81.5 -69.5t-130.5 -27.5zM277 927h91l100 -144h-59zM123 927h91 l100 -144h-59z" unicode="Ȕ"/>
<glyph glyph-name="udblgrave" horiz-adv-x="581" d="M430 0q-2 19 -3 42t-1 38h-2q-20 -41 -65 -66.5t-95 -25.5q-89 0 -133.5 53t-44.5 140v287h68v-259q0 -37 6 -67t20.5 -51.5t39 -33.5t61.5 -12q27 0 52.5 11t45.5 33.5t32 57t12 81.5v240h68v-365q0 -19 1 -49t3 -54h-65zM212 687h91l100 -144h-59zM58 687h91l100 -144 h-59z" unicode="ȕ"/>
<glyph glyph-name="Uinvertedbreve" horiz-adv-x="710" d="M355 -18q-80 0 -131 27.5t-81 69.5t-41.5 91.5t-11.5 93.5v444h72v-436q0 -43 10 -83.5t32.5 -72t59.5 -51t91 -19.5t91 19.5t59.5 51t32.5 72t10 83.5v436h72v-444q0 -44 -11.5 -93.5t-41.5 -91.5t-81.5 -69.5t-130.5 -27.5zM458 783q-7 39 -36 58.5t-67 19.5t-67 -19.5 t-36 -58.5h-44q4 63 44.5 97.5t102.5 34.5t102.5 -34.5t44.5 -97.5h-44z" unicode="Ȗ"/>
<glyph glyph-name="uinvertedbreve" horiz-adv-x="581" d="M430 0q-2 19 -3 42t-1 38h-2q-20 -41 -65 -66.5t-95 -25.5q-89 0 -133.5 53t-44.5 140v287h68v-259q0 -37 6 -67t20.5 -51.5t39 -33.5t61.5 -12q27 0 52.5 11t45.5 33.5t32 57t12 81.5v240h68v-365q0 -19 1 -49t3 -54h-65zM393 543q-7 39 -36 58.5t-67 19.5t-67 -19.5 t-36 -58.5h-44q4 63 44.5 97.5t102.5 34.5t102.5 -34.5t44.5 -97.5h-44z" unicode="ȗ"/>
<glyph glyph-name="Scommaaccent" horiz-adv-x="564" d="M437 594q-23 32 -59 51.5t-87 19.5q-26 0 -53 -8t-49 -24.5t-35.5 -41.5t-13.5 -59t13 -56t34.5 -37.5t49 -25.5t57.5 -20q37 -12 74.5 -26t67.5 -36.5t49 -57t19 -87.5t-20.5 -91.5t-53 -63.5t-74 -37t-83.5 -12q-32 0 -64 6.5t-61 19.5t-54 33t-44 46l62 46 q23 -38 64.5 -63.5t97.5 -25.5q27 0 55 8.5t50.5 26t37 43t14.5 59.5q0 37 -14.5 61.5t-38.5 41t-55 27.5t-65 22q-35 11 -69 25t-61 36.5t-43.5 55.5t-16.5 81q0 51 20.5 88t53.5 61t73 35t79 11q72 0 123 -25.5t77 -60.5zM262 -230h-57l62 185h71z" unicode="Ș"/>
<glyph glyph-name="scommaaccent" horiz-adv-x="444" d="M339 357q-15 29 -45.5 47.5t-69.5 18.5q-18 0 -36 -4t-32 -13t-22.5 -23t-8.5 -33q0 -33 27 -50.5t85 -29.5q83 -17 122.5 -49.5t39.5 -87.5q0 -40 -15.5 -67.5t-40.5 -45t-56.5 -25t-63.5 -7.5q-53 0 -103 22t-82 69l54 40q18 -31 53 -52t77 -21q22 0 42 4t35 14 t24 25.5t9 38.5q0 37 -35.5 55.5t-102.5 34.5q-21 5 -44.5 12.5t-43.5 22t-33 36.5t-13 55q0 36 14 61.5t37.5 42t53.5 24.5t62 8q49 0 95 -22t69 -62zM197 -230h-57l62 185h71z" unicode="ș"/>
<glyph glyph-name="uni021A" horiz-adv-x="570" d="M321 0h-72v644h-237v64h546v-64h-237v-644zM262 -230h-57l62 185h71z" unicode="Ț"/>
<glyph glyph-name="uni021B" horiz-adv-x="317" d="M301 411h-132v-273q0 -26 5 -43t14.5 -26.5t22.5 -13t28 -3.5q14 0 29.5 4t29.5 11l3 -59q-18 -7 -37.5 -10.5t-42.5 -3.5q-19 0 -40 5t-39 19t-29.5 38t-11.5 63v292h-97v57h97v132h68v-132h132v-57zM174 -230h-57l62 185h71z" unicode="ț"/>
<glyph glyph-name="Hcaron" horiz-adv-x="718" d="M94 708h72v-307h386v307h72v-708h-72v335h-386v-335h-72v708zM399 783h-80l-109 144h66l83 -108l83 108h66z" unicode="Ȟ"/>
<glyph glyph-name="hcaron" horiz-adv-x="583" d="M162 391q19 41 63 65t94 24q89 0 133.5 -53t44.5 -140v-287h-68v259q0 37 -6 67t-20.5 51.5t-39 33.5t-61.5 12q-27 0 -52.5 -11t-45.5 -33.5t-32 -57t-12 -81.5v-240h-68v756h68v-365h2zM167 831h-80l-109 144h66l83 -108l83 108h66z" unicode="ȟ"/>
<glyph glyph-name="Adotaccent" horiz-adv-x="700" d="M89 0h-79l306 708h70l304 -708h-80l-78 186h-366zM193 252h312l-156 376zM403 831q0 -21 -15 -34.5t-33 -13.5t-33 13.5t-15 34.5t15 34.5t33 13.5t33 -13.5t15 -34.5z" unicode="Ȧ"/>
<glyph glyph-name="adotaccent" horiz-adv-x="534" d="M385 302q0 61 -32 91t-93 30q-42 0 -78 -15t-61 -40l-38 45q29 29 76.5 48t107.5 19q38 0 71 -10.5t58 -31.5t39 -53t14 -75v-205q0 -27 2 -56t6 -49h-61q-3 17 -5 37t-2 39h-2q-32 -47 -72.5 -67.5t-97.5 -20.5q-27 0 -55.5 7.5t-52 24.5t-39 44t-15.5 66 q0 54 27.5 85.5t73.5 47t105.5 20t123.5 4.5v15zM365 234q-42 0 -84.5 -3.5t-77 -14t-56.5 -30.5t-22 -53q0 -25 9.5 -42t25.5 -27.5t35.5 -15t39.5 -4.5q36 0 64 12.5t47 34t29 49.5t10 59v35h-20zM304 603q0 -21 -15 -34.5t-33 -13.5t-33 13.5t-15 34.5t15 34.5t33 13.5 t33 -13.5t15 -34.5z" unicode="ȧ"/>
<glyph glyph-name="Ecedilla" horiz-adv-x="592" d="M166 64h379v-64h-190l-47 -75q13 4 35 4q30 0 56 -18t26 -54q0 -25 -11 -42t-28 -27t-38 -14t-41 -4t-46.5 5t-47.5 15l16 36q17 -8 35 -11t37 -3q8 0 19 2t21 7.5t17 14t7 20.5q0 20 -14.5 29.5t-39.5 9.5q-22 0 -43 -8l-18 15l62 98h-218v708h439v-64h-367v-244h343 v-63h-343v-273z" unicode="Ȩ"/>
<glyph glyph-name="ecedilla" d="M516 248v-15t-1 -17h-388q1 -35 14 -66t36 -54t54 -36.5t67 -13.5q53 0 91.5 24.5t58.5 56.5l51 -40q-38 -48 -83 -71t-96 -27l-45 -76q13 4 35 4q30 0 56 -18t26 -54q0 -25 -11 -42t-28 -27t-38 -14t-41 -4t-46.5 5t-47.5 15l16 36q17 -8 35 -11t37 -3q8 0 19 2t21 7.5 t17 14t7 20.5q0 20 -14.5 29.5t-39.5 9.5q-22 0 -43 -8l-18 15l60 99q-48 4 -88.5 24t-70 52t-46 75.5t-16.5 93.5q0 53 18 98t50 78t75 51.5t93 18.5q55 0 97 -18.5t70 -50t42.5 -73.5t14.5 -90zM447 270q-3 66 -42.5 109.5t-112.5 43.5q-34 0 -63 -12.5t-51 -34t-35 -49 t-15 -57.5h319z" unicode="ȩ"/>
<glyph glyph-name="Odieresismacron" horiz-adv-x="850" d="M794 354q0 -81 -28 -149t-77.5 -117.5t-117 -77.5t-146.5 -28t-146.5 28t-117 77.5t-77.5 117.5t-28 149t28 149t77.5 117.5t117 77.5t146.5 28t146.5 -28t117 -77.5t77.5 -117.5t28 -149zM718 354q0 62 -20 118t-58 98.5t-92.5 67.5t-122.5 25t-122.5 -25t-92.5 -67.5 t-58 -98.5t-20 -118t20 -118t58 -98t92.5 -67t122.5 -25t122.5 25t92.5 67t58 98t20 118zM278 852q0 20 14 35.5t37 15.5t37 -15.5t14 -35.5t-14 -35.5t-37 -15.5t-37 15.5t-14 35.5zM470 852q0 20 14 35.5t37 15.5t37 -15.5t14 -35.5t-14 -35.5t-37 -15.5t-37 15.5 t-14 35.5zM560 978h-270v54h270v-54z" unicode="Ȫ"/>
<glyph glyph-name="odieresismacron" horiz-adv-x="611" d="M555 234q0 -53 -18.5 -98t-51.5 -78t-79 -51.5t-101 -18.5q-54 0 -100 18.5t-79 51.5t-51.5 78t-18.5 98t18.5 98t51.5 78t79 51.5t100 18.5q55 0 101 -18.5t79 -51.5t51.5 -78t18.5 -98zM483 234q0 39 -12.5 73.5t-35.5 60t-56 40.5t-74 15t-73.5 -15t-55.5 -40.5 t-35.5 -60t-12.5 -73.5t12.5 -73.5t35.5 -60t55.5 -40t73.5 -14.5t74 14.5t56 40t35.5 60t12.5 73.5zM158 606q0 20 14 35.5t37 15.5t37 -15.5t14 -35.5t-14 -35.5t-37 -15.5t-37 15.5t-14 35.5zM350 606q0 20 14 35.5t37 15.5t37 -15.5t14 -35.5t-14 -35.5t-37 -15.5 t-37 15.5t-14 35.5zM440 732h-270v54h270v-54z" unicode="ȫ"/>
<glyph glyph-name="Otildemacron" horiz-adv-x="850" d="M794 354q0 -81 -28 -149t-77.5 -117.5t-117 -77.5t-146.5 -28t-146.5 28t-117 77.5t-77.5 117.5t-28 149t28 149t77.5 117.5t117 77.5t146.5 28t146.5 -28t117 -77.5t77.5 -117.5t28 -149zM718 354q0 62 -20 118t-58 98.5t-92.5 67.5t-122.5 25t-122.5 -25t-92.5 -67.5 t-58 -98.5t-20 -118t20 -118t58 -98t92.5 -67t122.5 -25t122.5 25t92.5 67t58 98t20 118zM263 801q3 19 9.5 38t17.5 33.5t26.5 23.5t38.5 9q18 0 36.5 -7t36.5 -16q18 -8 35 -15.5t32 -7.5q23 0 33.5 15.5t15.5 34.5h43q-3 -20 -9.5 -38.5t-17.5 -33t-27 -23.5t-38 -9 q-18 0 -37 7t-36 16t-34 16t-33 7q-23 0 -33.5 -15.5t-15.5 -34.5h-43zM560 984h-270v54h270v-54z" unicode="Ȭ"/>
<glyph glyph-name="otildemacron" horiz-adv-x="611" d="M555 234q0 -53 -18.5 -98t-51.5 -78t-79 -51.5t-101 -18.5q-54 0 -100 18.5t-79 51.5t-51.5 78t-18.5 98t18.5 98t51.5 78t79 51.5t100 18.5q55 0 101 -18.5t79 -51.5t51.5 -78t18.5 -98zM483 234q0 39 -12.5 73.5t-35.5 60t-56 40.5t-74 15t-73.5 -15t-55.5 -40.5 t-35.5 -60t-12.5 -73.5t12.5 -73.5t35.5 -60t55.5 -40t73.5 -14.5t74 14.5t56 40t35.5 60t12.5 73.5zM143 555q3 19 9.5 38t17.5 33.5t26.5 23.5t38.5 9q18 0 36.5 -7t36.5 -16q18 -8 35 -15.5t32 -7.5q23 0 33.5 15.5t15.5 34.5h43q-3 -20 -9.5 -38.5t-17.5 -33t-27 -23.5 t-38 -9q-18 0 -37 7t-36 16t-34 16t-33 7q-23 0 -33.5 -15.5t-15.5 -34.5h-43zM440 738h-270v54h270v-54z" unicode="ȭ"/>
<glyph glyph-name="Odotaccent" horiz-adv-x="850" d="M794 354q0 -81 -28 -149t-77.5 -117.5t-117 -77.5t-146.5 -28t-146.5 28t-117 77.5t-77.5 117.5t-28 149t28 149t77.5 117.5t117 77.5t146.5 28t146.5 -28t117 -77.5t77.5 -117.5t28 -149zM718 354q0 62 -20 118t-58 98.5t-92.5 67.5t-122.5 25t-122.5 -25t-92.5 -67.5 t-58 -98.5t-20 -118t20 -118t58 -98t92.5 -67t122.5 -25t122.5 25t92.5 67t58 98t20 118zM473 849q0 -21 -15 -34.5t-33 -13.5t-33 13.5t-15 34.5t15 34.5t33 13.5t33 -13.5t15 -34.5z" unicode="Ȯ"/>
<glyph glyph-name="odotaccent" horiz-adv-x="611" d="M555 234q0 -53 -18.5 -98t-51.5 -78t-79 -51.5t-101 -18.5q-54 0 -100 18.5t-79 51.5t-51.5 78t-18.5 98t18.5 98t51.5 78t79 51.5t100 18.5q55 0 101 -18.5t79 -51.5t51.5 -78t18.5 -98zM483 234q0 39 -12.5 73.5t-35.5 60t-56 40.5t-74 15t-73.5 -15t-55.5 -40.5 t-35.5 -60t-12.5 -73.5t12.5 -73.5t35.5 -60t55.5 -40t73.5 -14.5t74 14.5t56 40t35.5 60t12.5 73.5zM353 603q0 -21 -15 -34.5t-33 -13.5t-33 13.5t-15 34.5t15 34.5t33 13.5t33 -13.5t15 -34.5z" unicode="ȯ"/>
<glyph glyph-name="Odotaccentmacron" horiz-adv-x="850" d="M794 354q0 -81 -28 -149t-77.5 -117.5t-117 -77.5t-146.5 -28t-146.5 28t-117 77.5t-77.5 117.5t-28 149t28 149t77.5 117.5t117 77.5t146.5 28t146.5 -28t117 -77.5t77.5 -117.5t28 -149zM718 354q0 62 -20 118t-58 98.5t-92.5 67.5t-122.5 25t-122.5 -25t-92.5 -67.5 t-58 -98.5t-20 -118t20 -118t58 -98t92.5 -67t122.5 -25t122.5 25t92.5 67t58 98t20 118zM473 849q0 -21 -15 -34.5t-33 -13.5t-33 13.5t-15 34.5t15 34.5t33 13.5t33 -13.5t15 -34.5zM560 972h-270v54h270v-54z" unicode="Ȱ"/>
<glyph glyph-name="odotaccentmacron" horiz-adv-x="611" d="M555 234q0 -53 -18.5 -98t-51.5 -78t-79 -51.5t-101 -18.5q-54 0 -100 18.5t-79 51.5t-51.5 78t-18.5 98t18.5 98t51.5 78t79 51.5t100 18.5q55 0 101 -18.5t79 -51.5t51.5 -78t18.5 -98zM483 234q0 39 -12.5 73.5t-35.5 60t-56 40.5t-74 15t-73.5 -15t-55.5 -40.5 t-35.5 -60t-12.5 -73.5t12.5 -73.5t35.5 -60t55.5 -40t73.5 -14.5t74 14.5t56 40t35.5 60t12.5 73.5zM353 603q0 -21 -15 -34.5t-33 -13.5t-33 13.5t-15 34.5t15 34.5t33 13.5t33 -13.5t15 -34.5zM440 726h-270v54h270v-54z" unicode="ȱ"/>
<glyph glyph-name="Ymacron" horiz-adv-x="602" d="M337 0h-72v305l-265 403h90l213 -343l215 343h84l-265 -403v-305zM436 783h-270v54h270v-54z" unicode="Ȳ"/>
<glyph glyph-name="ymacron" horiz-adv-x="488" d="M251 73h2l145 395h74l-233 -589q-21 -54 -53.5 -86.5t-93.5 -32.5q-31 0 -61 6l7 62q24 -8 50 -8q35 0 55 21.5t35 61.5l38 98l-200 467h76zM376 543h-270v54h270v-54z" unicode="ȳ"/>
<glyph glyph-name="dotlessj" horiz-adv-x="251" d="M-17 -176q10 -3 21.5 -4.5t21.5 -1.5q21 0 34 7.5t20 20.5t9.5 31.5t2.5 40.5v550h68v-561q0 -28 -6 -54.5t-21 -47t-40.5 -33t-65.5 -12.5q-11 0 -26 1.5t-28 5.5z" unicode="ȷ"/>
<glyph glyph-name="commaturnedmod" horiz-adv-x="222" d="M123 708h57l-67 -235h-71z" unicode="ʻ"/>
<glyph glyph-name="afii57929" horiz-adv-x="222" d="M99 473h-57l67 235h71z" unicode="ʼ"/>
<glyph glyph-name="circumflex" horiz-adv-x="240" d="M269 564h-66l-83 108l-83 -108h-66l109 144h80z" unicode="ˆ"/>
<glyph glyph-name="caron" horiz-adv-x="240" d="M160 564h-80l-109 144h66l83 -108l83 108h66z" unicode="ˇ"/>
<glyph glyph-name="uni02C9" horiz-adv-x="240" d="M255 800h-270v54h270v-54z" unicode="ˉ"/>
<glyph glyph-name="breve" horiz-adv-x="240" d="M267 708q-4 -63 -44.5 -97.5t-102.5 -34.5t-102.5 34.5t-44.5 97.5h44q7 -39 36 -58.5t67 -19.5t67 19.5t36 58.5h44z" unicode="˘"/>
<glyph glyph-name="dotaccent" horiz-adv-x="240" d="M168 648q0 -21 -15 -34.5t-33 -13.5t-33 13.5t-15 34.5t15 34.5t33 13.5t33 -13.5t15 -34.5z" unicode="˙"/>
<glyph glyph-name="ring" horiz-adv-x="240" d="M216 650q0 -20 -7.5 -37.5t-21 -30.5t-31 -20t-36.5 -7q-20 0 -37 7t-30.5 20t-21 30.5t-7.5 37.5t7.5 37.5t21 30t30.5 20t37 7.5q19 0 36.5 -7.5t31 -20t21 -30t7.5 -37.5zM180 650q0 25 -17.5 42t-42.5 17t-42.5 -17t-17.5 -42t17.5 -42t42.5 -17t42.5 17t17.5 42z " unicode="˚"/>
<glyph glyph-name="ogonek" horiz-adv-x="240" d="M210 -187q-17 -17 -41 -26.5t-49 -9.5q-18 0 -34 6t-28.5 17.5t-20 27t-7.5 34.5q0 21 8 40.5t21 37t29 33t31 27.5h48q-37 -37 -57 -64.5t-20 -56.5q0 -21 15 -34.5t35 -13.5q14 0 27.5 5.5t23.5 16.5z" unicode="˛"/>
<glyph glyph-name="tilde" horiz-adv-x="240" d="M-42 576q3 19 9.5 38t17.5 33.5t26.5 23.5t38.5 9q18 0 36.5 -7t36.5 -16q18 -8 35 -15.5t32 -7.5q23 0 33.5 15.5t15.5 34.5h43q-3 -20 -9.5 -38.5t-17.5 -33t-27 -23.5t-38 -9q-18 0 -37 7t-36 16t-34 16t-33 7q-23 0 -33.5 -15.5t-15.5 -34.5h-43z" unicode="˜"/>
<glyph glyph-name="hungarumlaut" horiz-adv-x="240" d="M-2 564h-59l101 144h91zM169 564h-59l100 144h91z" unicode="˝"/>
<glyph glyph-name="uni02EE" horiz-adv-x="387" d="M264 473h-57l67 235h71zM99 473h-57l67 235h71z" unicode="ˮ"/>
<glyph glyph-name="gravecmb" horiz-adv-x="0" d="M-240 708h91l100 -144h-59z" unicode="̀"/>
<glyph glyph-name="acutecmb" horiz-adv-x="0" d="M-181 564h-59l100 144h91z" unicode="́"/>
<glyph glyph-name="circumflexcmb" horiz-adv-x="0" d="M58 564h-66l-83 108l-83 -108h-66l109 144h80z" unicode="̂"/>
<glyph glyph-name="tildecmb" horiz-adv-x="0" d="M-240 576q3 19 9.5 38t17.5 33.5t26.5 23.5t38.5 9q18 0 36.5 -7t36.5 -16q18 -8 35 -15.5t32 -7.5q23 0 33.5 15.5t15.5 34.5h43q-3 -20 -9.5 -38.5t-17.5 -33t-27 -23.5t-38 -9q-18 0 -37 7t-36 16t-34 16t-33 7q-23 0 -33.5 -15.5t-15.5 -34.5h-43z" unicode="̃"/>
<glyph glyph-name="macroncmb" horiz-adv-x="0" d="M30 600h-270v54h270v-54z" unicode="̄"/>
<glyph glyph-name="brevecmb" horiz-adv-x="0" d="M54 708q-4 -63 -44.5 -97.5t-102.5 -34.5t-102.5 34.5t-44.5 97.5h44q7 -39 36 -58.5t67 -19.5t67 19.5t36 58.5h44z" unicode="̆"/>
<glyph glyph-name="dotaccentcmb" horiz-adv-x="0" d="M-144 648q0 -21 -15 -34.5t-33 -13.5t-33 13.5t-15 34.5t15 34.5t33 13.5t33 -13.5t15 -34.5z" unicode="̇"/>
<glyph glyph-name="dieresiscmb" horiz-adv-x="0" d="M-240 647q0 20 14 35.5t37 15.5t37 -15.5t14 -35.5t-14 -35.5t-37 -15.5t-37 15.5t-14 35.5zM-48 647q0 20 14 35.5t37 15.5t37 -15.5t14 -35.5t-14 -35.5t-37 -15.5t-37 15.5t-14 35.5z" unicode="̈"/>
<glyph glyph-name="hookabovecomb" horiz-adv-x="240" d="M92 555q0 22 9 37t35 28q18 9 25.5 20t7.5 24q0 18 -11.5 29t-33.5 11t-35 -11.5t-17 -40.5l-53 7q8 44 36 65t71 21q45 0 70 -22.5t25 -56.5q0 -52 -49 -74q-18 -8 -24.5 -17t-6.5 -20h-49z" unicode="̉"/>
<glyph glyph-name="ringcmb" horiz-adv-x="0" d="M-48 650q0 -20 -7.5 -37.5t-21 -30.5t-31 -20t-36.5 -7q-20 0 -37 7t-30.5 20t-21 30.5t-7.5 37.5t7.5 37.5t21 30t30.5 20t37 7.5q19 0 36.5 -7.5t31 -20t21 -30t7.5 -37.5zM-84 650q0 25 -17.5 42t-42.5 17t-42.5 -17t-17.5 -42t17.5 -42t42.5 -17t42.5 17t17.5 42z " unicode="̊"/>
<glyph glyph-name="hungarumlautcmb" horiz-adv-x="0" d="M-181 564h-59l101 144h91zM-10 564h-59l100 144h91z" unicode="̋"/>
<glyph glyph-name="caroncmb" horiz-adv-x="0" d="M-51 564h-80l-109 144h66l83 -108l83 108h66z" unicode="̌"/>
<glyph glyph-name="doublegravecmb" horiz-adv-x="0" d="M-240 708h91l100 -144h-59zM-394 708h91l100 -144h-59z" unicode="̏"/>
<glyph glyph-name="invertedbrevecmb" horiz-adv-x="0" d="M-44 576q-7 39 -36 58.5t-67 19.5t-67 -19.5t-36 -58.5h-44q4 63 44.5 97.5t102.5 34.5t102.5 -34.5t44.5 -97.5h-44z" unicode="̑"/>
<glyph glyph-name="horncmb" horiz-adv-x="0" d="M-169 468q39 0 57 17.5t18 52.5q0 14 -4.5 30t-10.5 27l59 16q14 -30 14 -73q0 -57 -33 -87t-91 -30q-18 0 -34.5 3.5t-28.5 8.5q-15 5 -27 13l2 22h79z" unicode="̛"/>
<glyph glyph-name="dotbelowcmb" horiz-adv-x="0" d="M-152 -124q0 -21 -15 -37.5t-39 -16.5t-39 16.5t-15 37.5t15 37.5t39 16.5t39 -16.5t15 -37.5z" unicode="̣"/>
<glyph glyph-name="dieresisbelowcmb" horiz-adv-x="0" d="M-240 -121q0 20 14 35.5t37 15.5t37 -15.5t14 -35.5t-14 -35.5t-37 -15.5t-37 15.5t-14 35.5zM-48 -121q0 20 14 35.5t37 15.5t37 -15.5t14 -35.5t-14 -35.5t-37 -15.5t-37 15.5t-14 35.5z" unicode="̤"/>
<glyph glyph-name="ringbelowcmb" horiz-adv-x="0" d="M-48 -165q0 -20 -7.5 -37.5t-21 -30.5t-31 -20t-36.5 -7q-20 0 -37 7t-30.5 20t-21 30.5t-7.5 37.5t7.5 37.5t21 30t30.5 20t37 7.5q19 0 36.5 -7.5t31 -20t21 -30t7.5 -37.5zM-84 -165q0 25 -17.5 42t-42.5 17t-42.5 -17t-17.5 -42t17.5 -42t42.5 -17t42.5 17t17.5 42z " unicode="̥"/>
<glyph glyph-name="commabelowcmb" horiz-adv-x="0" d="M-203 -305h-57l67 235h71z" unicode="̦"/>
<glyph glyph-name="cedillacmb" horiz-adv-x="0" d="M-145 -75q13 4 35 4q30 0 56 -18t26 -54q0 -25 -11 -42t-28 -27t-38 -14t-41 -4t-46.5 5t-47.5 15l16 36q17 -8 35 -11t37 -3q8 0 19 2t21 7.5t17 14t7 20.5q0 20 -14.5 29.5t-39.5 9.5q-22 0 -43 -8l-18 15l62 98h43z" unicode="̧"/>
<glyph glyph-name="ogonekcmb" horiz-adv-x="0" d="M-60 -187q-17 -17 -41 -26.5t-49 -9.5q-18 0 -34 6t-28.5 17.5t-20 27t-7.5 34.5q0 21 8 40.5t21 37t29 33t31 27.5h48q-37 -37 -57 -64.5t-20 -56.5q0 -21 15 -34.5t35 -13.5q14 0 27.5 5.5t23.5 16.5z" unicode="̨"/>
<glyph glyph-name="circumflexbelowcmb" horiz-adv-x="0" d="M58 -214h-66l-83 108l-83 -108h-66l109 144h80z" unicode="̭"/>
<glyph glyph-name="brevebelowcmb" horiz-adv-x="0" d="M54 -70q-4 -63 -44.5 -97.5t-102.5 -34.5t-102.5 34.5t-44.5 97.5h44q7 -39 36 -58.5t67 -19.5t67 19.5t36 58.5h44z" unicode="̮"/>
<glyph glyph-name="tildebelowcmb" horiz-adv-x="0" d="M-240 -178q3 19 9.5 38t17.5 33.5t26.5 23.5t38.5 9q18 0 36.5 -7t36.5 -16q18 -8 35 -15.5t32 -7.5q23 0 33.5 15.5t15.5 34.5h43q-3 -20 -9.5 -38.5t-17.5 -33t-27 -23.5t-38 -9q-18 0 -37 7t-36 16t-34 16t-33 7q-23 0 -33.5 -15.5t-15.5 -34.5h-43z" unicode="̰"/>
<glyph glyph-name="macronbelowcmb" horiz-adv-x="0" d="M30 -124h-270v54h270v-54z" unicode="̱"/>
<glyph glyph-name="gravetonecmb" horiz-adv-x="0" d="M-240 708h91l100 -144h-59z" unicode="̀"/>
<glyph glyph-name="acutetonecmb" horiz-adv-x="0" d="M-181 564h-59l100 144h91z" unicode="́"/>
<glyph glyph-name="dialytikatonoscmb" horiz-adv-x="0" d="M-240 647q0 20 14 35.5t37 15.5t37 -15.5t14 -35.5t-14 -35.5t-37 -15.5t-37 15.5t-14 35.5zM-48 647q0 20 14 35.5t37 15.5t37 -15.5t14 -35.5t-14 -35.5t-37 -15.5t-37 15.5t-14 35.5zM-129 773h-59l100 144h91z" unicode="̈́"/>
<glyph glyph-name="combininggraphemejoiner" horiz-adv-x="0" unicode="͏"/>
<glyph glyph-name="uni037E" horiz-adv-x="300" d="M204 420q0 -21 -15 -37.5t-39 -16.5t-39 16.5t-15 37.5t15 37.5t39 16.5t39 -16.5t15 -37.5zM118 -140h-60l67 235h74z" unicode=";"/>
<glyph glyph-name="u0384" horiz-adv-x="260" d="M96 708h67l-10 -173h-46z" unicode="΄"/>
<glyph glyph-name="u0385" horiz-adv-x="240" d="M-48 571q0 17 12.5 31t32.5 14t32.5 -14t12.5 -31t-12.5 -31t-32.5 -14t-32.5 14t-12.5 31zM213 571q0 17 12.5 31t32.5 14t32.5 -14t12.5 -31t-12.5 -31t-32.5 -14t-32.5 14t-12.5 31zM93 735h67l-10 -203h-46z" unicode="΅"/>
<glyph glyph-name="u0386" horiz-adv-x="700" d="M76 748h67l-10 -173h-46zM89 0h-79l306 708h70l304 -708h-80l-78 186h-366zM193 252h312l-156 376z" unicode="Ά"/>
<glyph glyph-name="anoteleia" horiz-adv-x="260" d="M184 314q0 -21 -15 -37.5t-39 -16.5t-39 16.5t-15 37.5t15 37.5t39 16.5t39 -16.5t15 -37.5z" unicode="·"/>
<glyph glyph-name="u0388" horiz-adv-x="648" d="M0 748h67l-10 -173h-46zM222 64h379v-64h-451v708h439v-64h-367v-244h343v-63h-343v-273z" unicode="Έ"/>
<glyph glyph-name="u0389" horiz-adv-x="752" d="M0 748h67l-10 -173h-46zM128 708h72v-307h386v307h72v-708h-72v335h-386v-335h-72v708z" unicode="Ή"/>
<glyph glyph-name="u038A" horiz-adv-x="304" d="M0 748h67l-10 -173h-46zM209 0h-72v708h72v-708z" unicode="Ί"/>
<glyph glyph-name="u038C" horiz-adv-x="870" d="M0 748h67l-10 -173h-46zM814 354q0 -81 -28 -149t-77.5 -117.5t-117 -77.5t-146.5 -28t-146.5 28t-117 77.5t-77.5 117.5t-28 149t28 149t77.5 117.5t117 77.5t146.5 28t146.5 -28t117 -77.5t77.5 -117.5t28 -149zM738 354q0 62 -20 118t-58 98.5t-92.5 67.5t-122.5 25 t-122.5 -25t-92.5 -67.5t-58 -98.5t-20 -118t20 -118t58 -98t92.5 -67t122.5 -25t122.5 25t92.5 67t58 98t20 118z" unicode="Ό"/>
<glyph glyph-name="u038E" horiz-adv-x="717" d="M0 748h67l-10 -173h-46zM452 0h-72v305l-265 403h90l213 -343l215 343h84l-265 -403v-305z" unicode="Ύ"/>
<glyph glyph-name="u038F" horiz-adv-x="809" d="M0 748h67l-10 -173h-46zM485 0v190q96 16 150 76t54 149q0 59 -19.5 104t-54 75.5t-82 46t-103.5 15.5t-103 -15.5t-81 -46t-53.5 -75.5t-19.5 -104q0 -94 54.5 -152.5t150.5 -72.5v-190h-266v66h201v76q-51 11 -91.5 36t-68 61t-42 81t-14.5 96q0 72 27 128.5t72.5 95 t106.5 59t129 20.5t128.5 -20.5t106 -59t72 -94.5t26.5 -128q0 -48 -15 -92.5t-43 -81.5t-68 -63.5t-90 -37.5v-76h201v-66h-265z" unicode="Ώ"/>
<glyph glyph-name="u0390" horiz-adv-x="250" d="M-48 571q0 17 12.5 31t32.5 14t32.5 -14t12.5 -31t-12.5 -31t-32.5 -14t-32.5 14t-12.5 31zM213 571q0 17 12.5 31t32.5 14t32.5 -14t12.5 -31t-12.5 -31t-32.5 -14t-32.5 14t-12.5 31zM93 735h67l-10 -203h-46zM159 0h-68v468h68v-468z" unicode="ΐ"/>
<glyph glyph-name="u0391" horiz-adv-x="700" d="M89 0h-79l306 708h70l304 -708h-80l-78 186h-366zM193 252h312l-156 376z" unicode="Α"/>
<glyph glyph-name="u0392" horiz-adv-x="636" d="M94 708h211q40 0 81 -8.5t73.5 -29t53 -55.5t20.5 -88q0 -56 -34 -97.5t-91 -54.5v-2q69 -8 114.5 -53.5t45.5 -123.5q0 -44 -18.5 -80.5t-52.5 -62t-83 -39.5t-110 -14h-210v708zM166 398h145q26 0 52.5 6t48.5 20.5t35.5 38.5t13.5 59q0 34 -13.5 57.5t-36.5 38.5 t-54 21.5t-66 6.5h-125v-248zM166 62h134q39 0 74.5 7.5t62 24t42.5 43t16 63.5q0 70 -47.5 104.5t-134.5 34.5h-147v-277z" unicode="Β"/>
<glyph glyph-name="u0393" horiz-adv-x="508" d="M166 0h-72v708h402v-64h-330v-644z" unicode="Γ"/>
<glyph glyph-name="u0394" horiz-adv-x="682" d="M31 0v52l270 656h74l276 -656v-52h-620zM337 631l-226 -569h455z" unicode="Δ"/>
<glyph glyph-name="u0395" horiz-adv-x="592" d="M166 64h379v-64h-451v708h439v-64h-367v-244h343v-63h-343v-273z" unicode="Ε"/>
<glyph glyph-name="u0396" d="M535 648l-413 -584h419v-64h-510v60l414 584h-403v64h493v-60z" unicode="Ζ"/>
<glyph glyph-name="u0397" horiz-adv-x="718" d="M94 708h72v-307h386v307h72v-708h-72v335h-386v-335h-72v708z" unicode="Η"/>
<glyph glyph-name="u0398" horiz-adv-x="850" d="M634 392v-66h-417v66h417zM794 354q0 -81 -28 -149t-77.5 -117.5t-117 -77.5t-146.5 -28t-146.5 28t-117 77.5t-77.5 117.5t-28 149t28 149t77.5 117.5t117 77.5t146.5 28t146.5 -28t117 -77.5t77.5 -117.5t28 -149zM718 354q0 62 -20 118t-58 98.5t-92.5 67.5t-122.5 25 t-122.5 -25t-92.5 -67.5t-58 -98.5t-20 -118t20 -118t58 -98t92.5 -67t122.5 -25t122.5 25t92.5 67t58 98t20 118z" unicode="Θ"/>
<glyph glyph-name="u0399" horiz-adv-x="260" d="M166 0h-72v708h72v-708z" unicode="Ι"/>
<glyph glyph-name="u039A" horiz-adv-x="628" d="M166 390h1l337 318h103l-357 -321l377 -387h-106l-354 377h-1v-377h-72v708h72v-318z" unicode="Κ"/>
<glyph glyph-name="u039B" horiz-adv-x="700" d="M89 0h-79l306 708h70l304 -708h-80l-261 618z" unicode="Λ"/>
<glyph glyph-name="u039C" horiz-adv-x="886" d="M444 122h1l237 586h110v-708h-72v615h-2l-256 -615h-38l-256 615h-2v-615h-72v708h110z" unicode="Μ"/>
<glyph glyph-name="u039D" horiz-adv-x="764" d="M596 105h2v603h72v-708h-90l-412 609h-2v-609h-72v708h90z" unicode="Ν"/>
<glyph glyph-name="u039E" horiz-adv-x="588" d="M529 708v-66h-482v66h482zM505 402v-66h-437v66h437zM541 66v-66h-494v66h494z" unicode="Ξ"/>
<glyph glyph-name="u039F" horiz-adv-x="850" d="M794 354q0 -81 -28 -149t-77.5 -117.5t-117 -77.5t-146.5 -28t-146.5 28t-117 77.5t-77.5 117.5t-28 149t28 149t77.5 117.5t117 77.5t146.5 28t146.5 -28t117 -77.5t77.5 -117.5t28 -149zM718 354q0 62 -20 118t-58 98.5t-92.5 67.5t-122.5 25t-122.5 -25t-92.5 -67.5 t-58 -98.5t-20 -118t20 -118t58 -98t92.5 -67t122.5 -25t122.5 25t92.5 67t58 98t20 118z" unicode="Ο"/>
<glyph glyph-name="u03A0" horiz-adv-x="698" d="M604 708v-708h-72v642h-366v-642h-72v708h510z" unicode="Π"/>
<glyph glyph-name="u03A1" horiz-adv-x="580" d="M94 708h200q54 0 98 -11.5t75.5 -35t48.5 -59t17 -83.5t-17.5 -83.5t-49 -59t-76 -35.5t-98.5 -12h-126v-329h-72v708zM166 390h122q85 0 129 33t44 96q0 66 -45.5 96.5t-127.5 30.5h-122v-256z" unicode="Ρ"/>
<glyph glyph-name="u03A3" horiz-adv-x="605" d="M54 0v45l324 309v6l-324 302v46h492v-64h-377l311 -286v-5l-304 -289h382v-64h-504z" unicode="Σ"/>
<glyph glyph-name="u03A4" horiz-adv-x="570" d="M321 0h-72v644h-237v64h546v-64h-237v-644z" unicode="Τ"/>
<glyph glyph-name="u03A5" horiz-adv-x="602" d="M337 0h-72v305l-265 403h90l213 -343l215 343h84l-265 -403v-305z" unicode="Υ"/>
<glyph glyph-name="u03A6" horiz-adv-x="838" d="M456 674q72 -5 133 -30t105 -66.5t69 -98t25 -125.5t-25 -126t-69 -98.5t-105 -66.5t-133 -30v-84h-72v84q-72 5 -133.5 30t-106 66.5t-69.5 98.5t-25 126t25 126t69.5 98.5t106 66t133.5 29.5v78h72v-78zM126 354q0 -51 17.5 -96t51 -79t81.5 -55.5t108 -26.5v514 q-60 -5 -108 -26.5t-81.5 -56t-51 -79t-17.5 -95.5zM712 354q0 51 -17.5 95.5t-50.5 78.5t-80.5 55.5t-107.5 27.5v-513q60 5 107.5 26.5t80.5 55.5t50.5 78.5t17.5 95.5z" unicode="Φ"/>
<glyph glyph-name="u03A7" horiz-adv-x="649" d="M326 422l193 286h86l-235 -337l260 -371h-90l-216 319l-215 -319h-90l260 372l-237 336h90z" unicode="Χ"/>
<glyph glyph-name="u03A8" horiz-adv-x="847" d="M459 218h25q40 0 77.5 11t66.5 35t46 61.5t17 90.5v292h72v-296q0 -64 -22.5 -112t-61.5 -80t-90.5 -48t-109.5 -16h-20v-156h-72v156h-30q-58 0 -108 16t-86.5 48t-57.5 80t-21 112v296h72v-292q0 -53 17 -90.5t45 -61.5t65 -35t78 -11h26v490h72v-490z" unicode="Ψ"/>
<glyph glyph-name="u03A9" horiz-adv-x="756" d="M432 0v190q96 16 150 76t54 149q0 59 -19.5 104t-54 75.5t-82 46t-103.5 15.5t-103 -15.5t-81 -46t-53.5 -75.5t-19.5 -104q0 -94 54.5 -152.5t150.5 -72.5v-190h-266v66h201v76q-51 11 -91.5 36t-68 61t-42 81t-14.5 96q0 72 27 128.5t72.5 95t106.5 59t129 20.5 t128.5 -20.5t106 -59t72 -94.5t26.5 -128q0 -48 -15 -92.5t-43 -81.5t-68 -63.5t-90 -37.5v-76h201v-66h-265z" unicode="Ω"/>
<glyph glyph-name="u03AA" horiz-adv-x="260" d="M166 0h-72v708h72v-708zM-17 847q0 20 14 35.5t37 15.5t37 -15.5t14 -35.5t-14 -35.5t-37 -15.5t-37 15.5t-14 35.5zM175 847q0 20 14 35.5t37 15.5t37 -15.5t14 -35.5t-14 -35.5t-37 -15.5t-37 15.5t-14 35.5z" unicode="Ϊ"/>
<glyph glyph-name="u03AB" horiz-adv-x="602" d="M337 0h-72v305l-265 403h90l213 -343l215 343h84l-265 -403v-305zM156 847q0 20 14 35.5t37 15.5t37 -15.5t14 -35.5t-14 -35.5t-37 -15.5t-37 15.5t-14 35.5zM348 847q0 20 14 35.5t37 15.5t37 -15.5t14 -35.5t-14 -35.5t-37 -15.5t-37 15.5t-14 35.5z" unicode="Ϋ"/>
<glyph glyph-name="u03AC" horiz-adv-x="630" d="M296 735h67l-10 -173h-46zM474 79q-30 -45 -78 -68t-99 -23q-55 0 -99.5 19t-76 52t-49 78t-17.5 97t17.5 97t49 78t76 52t99.5 19q51 0 99 -23.5t78 -69.5h2v81h68v-468h-68v79h-2zM127 234q0 -39 12 -73.5t34.5 -60t55.5 -40t75 -14.5q39 0 72 14.5t57 39.5t37.5 59.5 t13.5 74.5t-13.5 74.5t-37.5 60t-57 40t-72 14.5q-42 0 -75 -15t-55.5 -40.5t-34.5 -60t-12 -73.5z" unicode="ά"/>
<glyph glyph-name="u03AD" horiz-adv-x="474" d="M393 360q-10 18 -28 33q-16 13 -42 23.5t-64 10.5q-24 0 -48.5 -5t-44 -15t-31.5 -26t-12 -37t11 -36t30.5 -24.5t45.5 -14.5t56 -5h103v-56h-127q-71 0 -103 -23.5t-32 -58.5q0 -20 12.5 -35t32.5 -25t46.5 -15t54.5 -5q45 0 77.5 10.5t52.5 23.5q24 15 39 34l42 -38 q-19 -25 -50 -44q-26 -17 -67 -30.5t-100 -13.5q-45 0 -83.5 9.5t-67.5 27.5t-45.5 42.5t-16.5 54.5q0 31 13 52.5t32 35t41.5 20t40.5 8.5v2q-19 2 -38.5 9.5t-35.5 21t-26 33t-10 43.5q0 31 16.5 56t45 43t66 28t78.5 10q55 0 91.5 -14.5t58.5 -31.5q26 -20 39 -46z M276 735l-10 -173h-46l-11 173h67z" unicode="έ"/>
<glyph glyph-name="u03AE" horiz-adv-x="597" d="M268 735h67l-10 -173h-46zM151 468q2 -19 3 -42t1 -38h2q10 20 27.5 37t40 29t48 19t50.5 7q89 0 136.5 -53t47.5 -140v-527h-68v499q0 37 -6 67t-21 51.5t-41 33.5t-65 12q-31 0 -58 -11t-47 -33.5t-31.5 -57t-11.5 -81.5v-240h-68v365q0 19 -1 49t-3 54h65z" unicode="ή"/>
<glyph glyph-name="u03AF" horiz-adv-x="239" d="M149 0h-68v468h68v-468zM82 735h67l-10 -173h-46z" unicode="ί"/>
<glyph glyph-name="u03B0" horiz-adv-x="580" d="M289 -11q-54 0 -92.5 18t-63 47.5t-36 67t-11.5 77.5v269h68v-264q0 -29 7 -56.5t23 -50t42 -36t64 -13.5q37 0 63 13.5t42.5 36t23.5 50t7 56.5v264h68v-269q0 -40 -12 -77.5t-37 -67t-63.5 -47.5t-92.5 -18zM114 571q0 17 12.5 31t32.5 14t32.5 -14t12.5 -31t-12.5 -31 t-32.5 -14t-32.5 14t-12.5 31zM375 571q0 17 12.5 31t32.5 14t32.5 -14t12.5 -31t-12.5 -31t-32.5 -14t-32.5 14t-12.5 31zM255 735h67l-10 -203h-46z" unicode="ΰ"/>
<glyph glyph-name="u03B1" horiz-adv-x="630" d="M474 79q-30 -45 -78 -68t-99 -23q-55 0 -99.5 19t-76 52t-49 78t-17.5 97t17.5 97t49 78t76 52t99.5 19q51 0 99 -23.5t78 -69.5h2v81h68v-468h-68v79h-2zM127 234q0 -39 12 -73.5t34.5 -60t55.5 -40t75 -14.5q39 0 72 14.5t57 39.5t37.5 59.5t13.5 74.5t-13.5 74.5 t-37.5 60t-57 40t-72 14.5q-42 0 -75 -15t-55.5 -40.5t-34.5 -60t-12 -73.5z" unicode="α"/>
<glyph glyph-name="u03B2" horiz-adv-x="629" d="M162 85v-325h-68v776q0 54 15.5 95.5t42 70t62.5 43t78 14.5q40 0 76.5 -13t64.5 -37.5t45 -59.5t17 -79q0 -36 -10.5 -65t-28 -50t-38.5 -34t-42 -16v-3q23 0 56 -11t63.5 -34.5t52 -60.5t21.5 -90q0 -48 -18.5 -88t-50.5 -69t-74 -45t-89 -16q-49 0 -82 15t-54 33 q-25 21 -39 49zM162 529v-318q0 -41 14 -72t38 -51.5t55 -31t64 -10.5q34 0 64.5 11t53.5 31.5t36 50.5t13 69q0 79 -52.5 121t-136.5 42h-69v54h59q55 0 91 35t36 98q0 32 -10.5 58.5t-28.5 45.5t-42.5 29.5t-53.5 10.5q-57 0 -94 -42.5t-37 -130.5z" unicode="β"/>
<glyph glyph-name="u03B3" horiz-adv-x="528" d="M303 -240h-68v287l-222 421h82l175 -357l168 357h77l-212 -421v-287z" unicode="γ"/>
<glyph glyph-name="u03B4" horiz-adv-x="609" d="M88 625q0 30 17 54t48.5 41.5t75.5 26.5t98 9q47 0 83.5 -6t62.5 -13q30 -9 52 -19l-22 -62q-23 10 -52 18q-25 7 -60 13t-77 6q-29 0 -56.5 -3.5t-49 -11t-35 -20.5t-13.5 -32q0 -14 7 -25t23.5 -22t43.5 -23t68 -27q39 -15 83 -38t81.5 -58.5t62 -85t24.5 -116.5 q0 -53 -18.5 -98t-51.5 -77t-79 -50t-101 -18q-54 0 -99 18t-78 50.5t-51.5 77t-18.5 97.5t18.5 96.5t51.5 74t77.5 47.5t95.5 17l16 -1l2 3q-4 2 -16 6q-11 4 -30.5 10.5t-51.5 19.5q-15 6 -37.5 14.5t-43.5 22.5t-35.5 34.5t-14.5 49.5zM481 231q0 39 -12 72.5t-35 58 t-56 38.5t-75 14t-74.5 -14t-55 -38.5t-34 -58t-11.5 -72.5q0 -40 11.5 -73.5t34 -58t55 -38.5t74.5 -14t75 14t56 38.5t35 58t12 73.5z" unicode="δ"/>
<glyph glyph-name="u03B5" horiz-adv-x="484" d="M393 360q-10 18 -28 33q-16 13 -42 23.5t-64 10.5q-24 0 -48.5 -5t-44 -15t-31.5 -26t-12 -37t11 -36t30.5 -24.5t45.5 -14.5t56 -5h103v-56h-127q-71 0 -103 -23.5t-32 -58.5q0 -20 12.5 -35t32.5 -25t46.5 -15t54.5 -5q45 0 77.5 10.5t52.5 23.5q24 15 39 34l42 -38 q-19 -25 -50 -44q-26 -17 -67 -30.5t-100 -13.5q-45 0 -83.5 9.5t-67.5 27.5t-45.5 42.5t-16.5 54.5q0 31 13 52.5t32 35t41.5 20t40.5 8.5v2q-19 2 -38.5 9.5t-35.5 21t-26 33t-10 43.5q0 31 16.5 56t45 43t66 28t78.5 10q55 0 91.5 -14.5t58.5 -31.5q26 -20 39 -46z" unicode="ε"/>
<glyph glyph-name="u03B6" horiz-adv-x="508" d="M297 2q-42 6 -85.5 22t-78 45.5t-56.5 75t-22 112.5q0 81 30.5 148t77.5 121t103.5 97t108.5 76h-287v55h387v-54q-78 -52 -142 -103t-110 -104.5t-71 -111.5t-25 -124q0 -89 58.5 -136.5t167.5 -66.5q71 -12 102 -46.5t32 -87.5q0 -37 -20.5 -66t-49 -49.5t-58.5 -33 t-47 -15.5l-39 52q21 4 46 12.5t46 21.5t35.5 30.5t14.5 39.5q0 24 -10 40t-26.5 26t-37.5 15.5t-44 8.5z" unicode="ζ"/>
<glyph glyph-name="u03B7" horiz-adv-x="593" d="M151 468q2 -19 3 -42t1 -38h2q10 20 27.5 37t40 29t48 19t50.5 7q89 0 136.5 -53t47.5 -140v-527h-68v499q0 37 -6 67t-21 51.5t-41 33.5t-65 12q-31 0 -58 -11t-47 -33.5t-31.5 -57t-11.5 -81.5v-240h-68v365q0 19 -1 49t-3 54h65z" unicode="η"/>
<glyph glyph-name="u03B8" horiz-adv-x="604" d="M307 762q66 0 112.5 -29.5t75.5 -82t42 -124t13 -155.5t-13 -155t-42 -123t-75.5 -81.5t-112.5 -29.5t-112 29.5t-74.5 81.5t-41.5 123.5t-13 154.5t13 154.5t41.5 124t74.5 82.5t112 30zM307 707q-45 0 -77 -23.5t-52.5 -64t-31 -96.5t-11.5 -120h345q-1 62 -11 117 t-30.5 96.5t-53 66t-78.5 24.5zM135 338q1 -65 11.5 -119.5t31 -95t52.5 -63t77 -22.5q47 0 79.5 24t52.5 65t29.5 95.5t11.5 114.5z" unicode="θ"/>
<glyph glyph-name="u03B9" horiz-adv-x="222" d="M145 0h-68v468h68v-468z" unicode="ι"/>
<glyph glyph-name="u03BA" horiz-adv-x="530" d="M154 257h3l216 211h98l-236 -214l260 -254h-100l-238 246h-3v-246h-68v468h68v-211z" unicode="κ"/>
<glyph glyph-name="u03BB" horiz-adv-x="516" d="M107 0h-73l198 492l-29 77q-11 30 -20 52.5t-20.5 37t-28 21.5t-43.5 7q-22 0 -35.5 -3.5t-24.5 -7.5l-15 56q20 5 37 9t47 4q43 0 69 -10.5t42.5 -30t28 -47.5t25.5 -64l235 -593h-73l-158 420h-2z" unicode="λ"/>
<glyph glyph-name="u03BC" horiz-adv-x="582" d="M86 468h68v-259q0 -86 27.5 -123.5t99.5 -37.5q30 0 56 12t45 35t30 56.5t11 76.5v240h68v-365q0 -26 1.5 -51.5t3.5 -51.5h-73v76h-2q-22 -35 -59.5 -61.5t-82.5 -26.5q-54 0 -82.5 22.5t-40.5 58.5h-2v-309h-68v708z" unicode="μ"/>
<glyph glyph-name="u03BD" horiz-adv-x="488" d="M282 0h-75l-191 468h76l152 -396h2l153 396h73z" unicode="ν"/>
<glyph glyph-name="u03BE" horiz-adv-x="504" d="M55 185q0 45 18 77t46 54t63 34t69 17q-27 4 -59 13.5t-59 28.5t-45.5 49.5t-18.5 75.5q0 35 12.5 62t34 46.5t51 32t64.5 19.5v3h-163v57h377v-43q-70 -9 -126.5 -21t-96.5 -31.5t-61.5 -49t-21.5 -74.5q0 -35 15.5 -60.5t43 -41.5t65 -23.5t81.5 -7.5h89v-67h-121 q-37 0 -70.5 -8.5t-59 -26t-40.5 -43t-15 -58.5t13 -56t40 -39.5t69 -28t100 -21.5q72 -12 103.5 -46.5t31.5 -87.5q0 -37 -21 -66t-49.5 -49.5t-58 -33t-46.5 -15.5l-39 52q21 4 46 12.5t46 21.5t35.5 30.5t14.5 39.5q0 24 -10 40t-26.5 26t-37.5 15.5t-44 8.5 q-47 7 -90.5 19t-76.5 33t-52.5 53t-19.5 78z" unicode="ξ"/>
<glyph glyph-name="u03BF" horiz-adv-x="611" d="M555 234q0 -53 -18.5 -98t-51.5 -78t-79 -51.5t-101 -18.5q-54 0 -100 18.5t-79 51.5t-51.5 78t-18.5 98t18.5 98t51.5 78t79 51.5t100 18.5q55 0 101 -18.5t79 -51.5t51.5 -78t18.5 -98zM483 234q0 39 -12.5 73.5t-35.5 60t-56 40.5t-74 15t-73.5 -15t-55.5 -40.5 t-35.5 -60t-12.5 -73.5t12.5 -73.5t35.5 -60t55.5 -40t73.5 -14.5t74 14.5t56 40t35.5 60t12.5 73.5z" unicode="ο"/>
<glyph glyph-name="u03C0" horiz-adv-x="567" d="M154 0h-68v468h395v-468h-68v411h-259v-411z" unicode="π"/>
<glyph glyph-name="u03C1" horiz-adv-x="635" d="M158 -240h-68v474q0 61 20.5 107t55 77t78 46.5t90.5 15.5q55 0 100 -19t77 -52t50 -78t18 -97t-18 -97t-50 -78t-77 -52t-100 -19q-51 0 -97.5 23.5t-75.5 67.5h-3v-319zM507 234q0 40 -12 75t-34.5 60t-55.5 39.5t-75 14.5q-39 0 -71.5 -14.5t-56 -40t-36 -60 t-12.5 -74.5q0 -42 13 -77t36.5 -59.5t56 -38t70.5 -13.5q42 0 75 14.5t55.5 40t34.5 60t12 73.5z" unicode="ρ"/>
<glyph glyph-name="u03C2" horiz-adv-x="508" d="M327 54q22 -5 46 -12.5t43.5 -22.5t32.5 -39t13 -60q0 -37 -21 -66t-49.5 -49.5t-58 -33t-46.5 -15.5l-39 52q21 4 46 12.5t46 21.5t35.5 30.5t14.5 39.5q0 24 -9.5 39t-23.5 24t-31.5 13.5t-33.5 7.5q-14 3 -37 8t-49.5 15t-53 26.5t-48 42.5t-35 62t-13.5 85 q0 55 18.5 100.5t51 77.5t77 49.5t97.5 17.5q57 0 103.5 -20.5t76.5 -60.5l-53 -38q-16 25 -46.5 43.5t-78.5 18.5q-38 0 -70 -13t-55 -37.5t-36 -59t-13 -77.5q0 -51 17 -83t44.5 -51.5t63.5 -30t74 -17.5z" unicode="ς"/>
<glyph glyph-name="u03C3" horiz-adv-x="635" d="M487 411v-3q32 -33 50 -77.5t18 -96.5q0 -53 -18.5 -98t-51.5 -78t-79 -51.5t-101 -18.5q-54 0 -100 18.5t-79 51.5t-51.5 78t-18.5 98t18.5 98t51.5 78t79 51.5t100 18.5q26 0 44 -2l36 -4t38.5 -4t50.5 -2h151v-57h-138zM483 234q0 39 -12.5 73.5t-35.5 60t-56 40.5 t-74 15t-73.5 -15t-55.5 -40.5t-35.5 -60t-12.5 -73.5t12.5 -73.5t35.5 -60t55.5 -40t73.5 -14.5t74 14.5t56 40t35.5 60t12.5 73.5z" unicode="σ"/>
<glyph glyph-name="u03C4" horiz-adv-x="481" d="M10 468h461v-57h-197v-411h-68v411h-196v57z" unicode="τ"/>
<glyph glyph-name="u03C5" horiz-adv-x="580" d="M289 -11q-54 0 -92.5 18t-63 47.5t-36 67t-11.5 77.5v269h68v-264q0 -29 7 -56.5t23 -50t42 -36t64 -13.5q37 0 63 13.5t42.5 36t23.5 50t7 56.5v264h68v-269q0 -40 -12 -77.5t-37 -67t-63.5 -47.5t-92.5 -18z" unicode="υ"/>
<glyph glyph-name="u03C6" horiz-adv-x="799" d="M56 244q0 51 18.5 90.5t47 68t63 46.5t67.5 27l24 -53q-24 -7 -50 -21t-48 -35.5t-36 -51.5t-14 -70q0 -51 18 -88.5t50 -61.5t76.5 -36t97.5 -13v428h110q54 0 102 -16.5t84 -47t56.5 -72.5t20.5 -93q0 -64 -26.5 -112t-70 -80t-98 -48.5t-110.5 -16.5v-228h-68v228 q-66 1 -123.5 17.5t-99.5 48.5t-66.5 79.5t-24.5 110.5zM671 248q0 53 -21.5 86t-52.5 51.5t-64.5 25t-58.5 6.5h-36v-371q47 0 89.5 12t74.5 37t50.5 63t18.5 90z" unicode="φ"/>
<glyph glyph-name="u03C7" horiz-adv-x="543" d="M113 468l160 -285l159 285h71l-194 -336l214 -371h-74l-178 319l-177 -319h-74l214 372l-195 335h74z" unicode="χ"/>
<glyph glyph-name="u03C8" horiz-adv-x="784" d="M426 46q47 1 87 14.5t69.5 40t46.5 66t17 91.5v210h68v-214q0 -63 -21.5 -112.5t-59.5 -83.5t-91 -52t-116 -18v-228h-68v228q-63 0 -116 18t-91.5 52t-59.5 83.5t-21 112.5v214h68v-210q0 -52 16.5 -91t46 -66t70 -40.5t87.5 -14.5v422h68v-422z" unicode="ψ"/>
<glyph glyph-name="u03C9" horiz-adv-x="806" d="M289 423q-86 -25 -129.5 -73t-43.5 -132q0 -35 7.5 -66t23 -54t38.5 -37t54 -14q56 0 93 44t37 125v85h68v-85q0 -81 37 -124t93 -43q31 0 54 13.5t38.5 36.5t23 53.5t7.5 65.5q0 85 -43 132.5t-130 72.5l27 51q39 -9 77.5 -27.5t69 -49t50 -75.5t19.5 -108 q0 -47 -13.5 -88t-38.5 -71t-61.5 -47t-81.5 -17q-70 0 -113 41.5t-47 114.5h-4q-5 -74 -47.5 -116t-112.5 -42q-45 0 -81.5 17.5t-61.5 48t-38.5 71.5t-13.5 88q0 63 19.5 108t50 75.5t69 49t77.5 27.5z" unicode="ω"/>
<glyph glyph-name="u03CA" horiz-adv-x="250" d="M159 0h-68v468h68v-468zM-21 647q0 20 14 35.5t37 15.5t37 -15.5t14 -35.5t-14 -35.5t-37 -15.5t-37 15.5t-14 35.5zM171 647q0 20 14 35.5t37 15.5t37 -15.5t14 -35.5t-14 -35.5t-37 -15.5t-37 15.5t-14 35.5z" unicode="ϊ"/>
<glyph glyph-name="u03CB" horiz-adv-x="580" d="M139 647q0 20 14 35.5t37 15.5t37 -15.5t14 -35.5t-14 -35.5t-37 -15.5t-37 15.5t-14 35.5zM331 647q0 20 14 35.5t37 15.5t37 -15.5t14 -35.5t-14 -35.5t-37 -15.5t-37 15.5t-14 35.5zM289 -11q-54 0 -92.5 18t-63 47.5t-36 67t-11.5 77.5v269h68v-264q0 -29 7 -56.5 t23 -50t42 -36t64 -13.5q37 0 63 13.5t42.5 36t23.5 50t7 56.5v264h68v-269q0 -40 -12 -77.5t-37 -67t-63.5 -47.5t-92.5 -18z" unicode="ϋ"/>
<glyph glyph-name="u03CC" horiz-adv-x="611" d="M555 234q0 -53 -18.5 -98t-51.5 -78t-79 -51.5t-101 -18.5q-54 0 -100 18.5t-79 51.5t-51.5 78t-18.5 98t18.5 98t51.5 78t79 51.5t100 18.5q55 0 101 -18.5t79 -51.5t51.5 -78t18.5 -98zM483 234q0 39 -12.5 73.5t-35.5 60t-56 40.5t-74 15t-73.5 -15t-55.5 -40.5 t-35.5 -60t-12.5 -73.5t12.5 -73.5t35.5 -60t55.5 -40t73.5 -14.5t74 14.5t56 40t35.5 60t12.5 73.5zM274 718h67l-10 -173h-46z" unicode="ό"/>
<glyph glyph-name="u03CD" horiz-adv-x="580" d="M258 708h67l-10 -173h-46zM289 -11q-54 0 -92.5 18t-63 47.5t-36 67t-11.5 77.5v269h68v-264q0 -29 7 -56.5t23 -50t42 -36t64 -13.5q37 0 63 13.5t42.5 36t23.5 50t7 56.5v264h68v-269q0 -40 -12 -77.5t-37 -67t-63.5 -47.5t-92.5 -18z" unicode="ύ"/>
<glyph glyph-name="u03CE" horiz-adv-x="806" d="M289 423q-86 -25 -129.5 -73t-43.5 -132q0 -35 7.5 -66t23 -54t38.5 -37t54 -14q56 0 93 44t37 125v85h68v-85q0 -81 37 -124t93 -43q31 0 54 13.5t38.5 36.5t23 53.5t7.5 65.5q0 85 -43 132.5t-130 72.5l27 51q39 -9 77.5 -27.5t69 -49t50 -75.5t19.5 -108 q0 -47 -13.5 -88t-38.5 -71t-61.5 -47t-81.5 -17q-70 0 -113 41.5t-47 114.5h-4q-5 -74 -47.5 -116t-112.5 -42q-45 0 -81.5 17.5t-61.5 48t-38.5 71.5t-13.5 88q0 63 19.5 108t50 75.5t69 49t77.5 27.5zM433 708l-10 -173h-46l-11 173h67z" unicode="ώ"/>
<glyph glyph-name="u0401" horiz-adv-x="592" d="M166 64h379v-64h-451v708h439v-64h-367v-244h343v-63h-343v-273zM169 847q0 20 14 35.5t37 15.5t37 -15.5t14 -35.5t-14 -35.5t-37 -15.5t-37 15.5t-14 35.5zM361 847q0 20 14 35.5t37 15.5t37 -15.5t14 -35.5t-14 -35.5t-37 -15.5t-37 15.5t-14 35.5z" unicode="Ё"/>
<glyph glyph-name="u0402" horiz-adv-x="731" d="M12 642v66h535v-66h-257v-190h136q65 0 112 -18t78 -48.5t45.5 -71t14.5 -86.5q0 -48 -15.5 -90t-46.5 -72.5t-77.5 -48.5t-107.5 -18l-37 1v68h59q27 0 54 9.5t48.5 29t35 49t13.5 70.5q0 72 -42.5 115.5t-126.5 43.5h-143v-385h-72v642h-206z" unicode="Ђ"/>
<glyph glyph-name="u0403" horiz-adv-x="516" d="M166 0h-72v708h402v-64h-330v-644zM442 908l-132 -144h-59l100 144h91z" unicode="Ѓ"/>
<glyph glyph-name="u0404" horiz-adv-x="735" d="M690 114q-18 -27 -43.5 -51t-59 -42t-74 -28.5t-88.5 -10.5q-80 0 -148 28t-117 77.5t-76.5 117.5t-27.5 149t28 149t77.5 117.5t117 77.5t146.5 28q39 0 76.5 -8t70.5 -22.5t60 -35t45 -46.5l-60 -44q-11 17 -29.5 34t-43.5 30t-54.5 21t-63.5 8q-63 0 -114 -21 t-88.5 -57.5t-60.5 -85.5t-29 -104h424v-63h-425q3 -59 25 -111t59.5 -91t90.5 -62t118 -23q61 0 116 25t92 80z" unicode="Є"/>
<glyph glyph-name="u0405" horiz-adv-x="564" d="M437 594q-23 32 -59 51.5t-87 19.5q-26 0 -53 -8t-49 -24.5t-35.5 -41.5t-13.5 -59t13 -56t34.5 -37.5t49 -25.5t57.5 -20q37 -12 74.5 -26t67.5 -36.5t49 -57t19 -87.5t-20.5 -91.5t-53 -63.5t-74 -37t-83.5 -12q-32 0 -64 6.5t-61 19.5t-54 33t-44 46l62 46 q23 -38 64.5 -63.5t97.5 -25.5q27 0 55 8.5t50.5 26t37 43t14.5 59.5q0 37 -14.5 61.5t-38.5 41t-55 27.5t-65 22q-35 11 -69 25t-61 36.5t-43.5 55.5t-16.5 81q0 51 20.5 88t53.5 61t73 35t79 11q72 0 123 -25.5t77 -60.5z" unicode="Ѕ"/>
<glyph glyph-name="u0406" horiz-adv-x="260" d="M166 0h-72v708h72v-708z" unicode="І"/>
<glyph glyph-name="u0407" horiz-adv-x="260" d="M166 0h-72v708h72v-708zM-17 847q0 20 14 35.5t37 15.5t37 -15.5t14 -35.5t-14 -35.5t-37 -15.5t-37 15.5t-14 35.5zM175 847q0 20 14 35.5t37 15.5t37 -15.5t14 -35.5t-14 -35.5t-37 -15.5t-37 15.5t-14 35.5z" unicode="Ї"/>
<glyph glyph-name="u0408" horiz-adv-x="492" d="M92 144q8 -42 37.5 -70.5t77.5 -28.5q37 0 61 13.5t38.5 36.5t20 52.5t5.5 61.5v499h72v-504q0 -35 -7.5 -74t-28.5 -72t-58 -54.5t-95 -21.5q-77 0 -127 40.5t-63 103.5z" unicode="Ј"/>
<glyph glyph-name="u0409" horiz-adv-x="940" d="M99 0h-74l285 708h71l126 -309h135q125 0 194.5 -53.5t69.5 -157.5q0 -38 -16.5 -72t-49 -60t-80.5 -41t-110 -15h-60l-246 618zM532 336l112 -274q84 0 136.5 31.5t52.5 95.5q0 41 -16 69.5t-42.5 45.5t-62 24.5t-74.5 7.5h-106z" unicode="Љ"/>
<glyph glyph-name="u040A" horiz-adv-x="989" d="M166 708v-307h337v307h72v-307h125q54 0 98 -13.5t75.5 -39.5t48.5 -64.5t17 -87.5q0 -46 -17.5 -82t-49 -61.5t-76 -39t-98.5 -13.5h-195v335h-337v-335h-72v708h72zM575 338v-274h119q88 0 130.5 37.5t42.5 100.5q0 66 -44 101t-129 35h-119z" unicode="Њ"/>
<glyph glyph-name="u040B" horiz-adv-x="731" d="M290 384v-384h-72v642h-206v66h535v-66h-257v-192h163q54 0 94 -16t66.5 -45.5t39.5 -70.5t13 -91v-227h-72v191q0 45 -7 81t-24.5 61t-46.5 38t-73 13h-153z" unicode="Ћ"/>
<glyph glyph-name="u040C" horiz-adv-x="691" d="M94 0v708h72v-301q28 0 53.5 -2t50.5 -5l269 308h79l-272 -325q125 -38 193.5 -134.5t91.5 -248.5h-79q-16 91 -45.5 156.5t-76 107t-111.5 60.5t-153 17v-341h-72zM350 764h-59l100 144h91z" unicode="Ќ"/>
<glyph glyph-name="u040E" horiz-adv-x="649" d="M207 906q13 -36 45.5 -60.5t80.5 -24.5t80.5 24.5t45.5 60.5l51 -24q-8 -23 -23.5 -44t-37.5 -37t-51 -25t-65 -9t-65 9t-51 25t-37.5 37t-23.5 44zM27 708l270 -545q-26 -53 -53 -82t-63 -29q-26 0 -42.5 5t-27.5 12l-33 -62q16 -8 38.5 -13.5t51.5 -5.5q37 0 66 12.5 t53 34.5t44 52.5t38 66.5l271 554h-83l-221 -465l-229 465h-80z" unicode="Ў"/>
<glyph glyph-name="u040F" horiz-adv-x="698" d="M532 66v642h72v-708h-211v-139h-72v139h-227v708h72v-642h366z" unicode="Џ"/>
<glyph glyph-name="u0410" horiz-adv-x="700" d="M89 0h-79l306 708h70l304 -708h-80l-78 186h-366zM193 252h312l-156 376z" unicode="А"/>
<glyph glyph-name="u0411" horiz-adv-x="609" d="M94 0v708h402v-66h-330v-241h144q54 0 98 -13.5t75.5 -39t48.5 -63t17 -84.5q0 -48 -17.5 -85t-49 -63t-76 -39.5t-98.5 -13.5h-214zM304 66q85 0 130.5 36.5t45.5 99.5q0 66 -47 99.5t-129 33.5h-138v-269h138z" unicode="Б"/>
<glyph glyph-name="u0412" horiz-adv-x="636" d="M94 708h211q40 0 81 -8.5t73.5 -29t53 -55.5t20.5 -88q0 -56 -34 -97.5t-91 -54.5v-2q69 -8 114.5 -53.5t45.5 -123.5q0 -44 -18.5 -80.5t-52.5 -62t-83 -39.5t-110 -14h-210v708zM166 398h145q26 0 52.5 6t48.5 20.5t35.5 38.5t13.5 59q0 34 -13.5 57.5t-36.5 38.5 t-54 21.5t-66 6.5h-125v-248zM166 62h134q39 0 74.5 7.5t62 24t42.5 43t16 63.5q0 70 -47.5 104.5t-134.5 34.5h-147v-277z" unicode="В"/>
<glyph glyph-name="u0413" horiz-adv-x="516" d="M166 0h-72v708h402v-64h-330v-644z" unicode="Г"/>
<glyph glyph-name="u0414" horiz-adv-x="726" d="M72 0v-139h-72v205h88l241 642h70l239 -642h88v-205h-72v139h-582zM160 66h404l-202 562z" unicode="Д"/>
<glyph glyph-name="u0415" horiz-adv-x="592" d="M166 64h379v-64h-451v708h439v-64h-367v-244h343v-63h-343v-273z" unicode="Е"/>
<glyph glyph-name="u0416" horiz-adv-x="980" d="M454 341q-67 2 -120 -16t-93 -59t-65.5 -107t-36.5 -159h-79q32 299 228 378l-226 330h79l212 -311q23 5 48.5 7.5t52.5 2.5v301h72v-301q27 0 52.5 -2.5t48.5 -7.5l212 311h79l-227 -330q100 -40 156 -134t73 -244h-79q-11 93 -36.5 159t-65.5 107t-93 59t-120 16v-341 h-72v341z" unicode="Ж"/>
<glyph glyph-name="u0417" horiz-adv-x="623" d="M228 402h31q34 0 67 7t58.5 22.5t41.5 40.5t16 60q0 66 -42 99.5t-110 33.5q-52 0 -89.5 -26t-58.5 -67l-56 42q33 57 86.5 84.5t123.5 27.5q48 0 88.5 -12.5t69.5 -36.5t45 -59.5t16 -81.5q0 -31 -12.5 -57.5t-33 -47.5t-46 -35.5t-51.5 -21.5v-2q30 -4 62.5 -14.5 t59 -30.5t44 -52t17.5 -79q0 -49 -20 -88.5t-55 -67.5t-82.5 -43t-101.5 -15q-48 0 -86 10.5t-67 30t-50.5 47t-37.5 60.5l62 37q12 -28 27.5 -50.5t37.5 -38.5t51.5 -25t68.5 -9q87 0 134 41.5t47 110.5q0 42 -18 70t-48.5 44.5t-71 23t-86.5 6.5h-31v62z" unicode="З"/>
<glyph glyph-name="u0418" horiz-adv-x="764" d="M168 105l412 603h90v-708h-72v609h-2l-412 -609h-90v708h72v-603h2z" unicode="И"/>
<glyph glyph-name="u0419" horiz-adv-x="764" d="M580 708h90v-708h-72v609h-2l-412 -609h-90v708h72v-603h2zM256 906q13 -36 45.5 -60.5t80.5 -24.5t80.5 24.5t45.5 60.5l51 -24q-8 -23 -23.5 -44t-37.5 -37t-51 -25t-65 -9t-65 9t-51 25t-37.5 37t-23.5 44z" unicode="Й"/>
<glyph glyph-name="u041A" horiz-adv-x="691" d="M94 0v708h72v-301q28 0 53.5 -2t50.5 -5l269 308h79l-272 -325q125 -38 193.5 -134.5t91.5 -248.5h-79q-16 91 -45.5 156.5t-76 107t-111.5 60.5t-153 17v-341h-72z" unicode="К"/>
<glyph glyph-name="u041B" horiz-adv-x="680" d="M89 0h-79l306 708h70l304 -708h-80l-261 618z" unicode="Л"/>
<glyph glyph-name="u041C" horiz-adv-x="886" d="M444 122h1l237 586h110v-708h-72v615h-2l-256 -615h-38l-256 615h-2v-615h-72v708h110z" unicode="М"/>
<glyph glyph-name="u041D" horiz-adv-x="718" d="M94 708h72v-307h386v307h72v-708h-72v335h-386v-335h-72v708z" unicode="Н"/>
<glyph glyph-name="u041E" horiz-adv-x="850" d="M794 354q0 -81 -28 -149t-77.5 -117.5t-117 -77.5t-146.5 -28t-146.5 28t-117 77.5t-77.5 117.5t-28 149t28 149t77.5 117.5t117 77.5t146.5 28t146.5 -28t117 -77.5t77.5 -117.5t28 -149zM718 354q0 62 -20 118t-58 98.5t-92.5 67.5t-122.5 25t-122.5 -25t-92.5 -67.5 t-58 -98.5t-20 -118t20 -118t58 -98t92.5 -67t122.5 -25t122.5 25t92.5 67t58 98t20 118z" unicode="О"/>
<glyph glyph-name="u041F" horiz-adv-x="698" d="M604 708v-708h-72v642h-366v-642h-72v708h510z" unicode="П"/>
<glyph glyph-name="u0420" horiz-adv-x="580" d="M94 708h200q54 0 98 -11.5t75.5 -35t48.5 -59t17 -83.5t-17.5 -83.5t-49 -59t-76 -35.5t-98.5 -12h-126v-329h-72v708zM166 390h122q85 0 129 33t44 96q0 66 -45.5 96.5t-127.5 30.5h-122v-256z" unicode="Р"/>
<glyph glyph-name="u0421" horiz-adv-x="720" d="M690 114q-18 -27 -43.5 -51t-59 -42t-74 -28.5t-88.5 -10.5q-80 0 -148 28t-117 77.5t-76.5 117.5t-27.5 149t28 149t77.5 117.5t117 77.5t146.5 28q39 0 76.5 -8t70.5 -22.5t60 -35t45 -46.5l-60 -44q-11 17 -29.5 34t-43.5 30t-54.5 21t-63.5 8q-69 0 -123.5 -25 t-92.5 -67.5t-58 -98.5t-20 -118t20.5 -118t58.5 -98.5t92.5 -67.5t122.5 -25q61 0 116 25t92 80z" unicode="С"/>
<glyph glyph-name="u0422" horiz-adv-x="570" d="M321 0h-72v644h-237v64h546v-64h-237v-644z" unicode="Т"/>
<glyph glyph-name="u0423" horiz-adv-x="649" d="M107 708l229 -465l221 465h83l-271 -554q-18 -36 -38 -66.5t-44 -52.5t-53 -34.5t-66 -12.5q-29 0 -51.5 5.5t-38.5 13.5l33 62q11 -7 27.5 -12t42.5 -5q36 0 63 29t53 82l-270 545h80z" unicode="У"/>
<glyph glyph-name="u0424" horiz-adv-x="838" d="M456 674q72 -5 133 -30t105 -66.5t69 -98t25 -125.5t-25 -126t-69 -98.5t-105 -66.5t-133 -30v-84h-72v84q-72 5 -133.5 30t-106 66.5t-69.5 98.5t-25 126t25 126t69.5 98.5t106 66t133.5 29.5v78h72v-78zM126 354q0 -51 17.5 -96t51 -79t81.5 -55.5t108 -26.5v514 q-60 -5 -108 -26.5t-81.5 -56t-51 -79t-17.5 -95.5zM712 354q0 51 -17.5 95.5t-50.5 78.5t-80.5 55.5t-107.5 27.5v-513q60 5 107.5 26.5t80.5 55.5t50.5 78.5t17.5 95.5z" unicode="Ф"/>
<glyph glyph-name="u0425" horiz-adv-x="649" d="M326 422l193 286h86l-235 -337l260 -371h-90l-216 319l-215 -319h-90l260 372l-237 336h90z" unicode="Х"/>
<glyph glyph-name="u0426" horiz-adv-x="721" d="M94 0v708h72v-642h366v642h72v-642h87v-205h-72v139h-525z" unicode="Ц"/>
<glyph glyph-name="u0427" horiz-adv-x="623" d="M457 708h72v-708h-71v320h-175q-54 0 -94 16t-66.5 45.5t-39.5 70.5t-13 91v165h72v-129q0 -45 7 -81t24.5 -61t46.5 -38t73 -13h164v322z" unicode="Ч"/>
<glyph glyph-name="u0428" horiz-adv-x="989" d="M462 66v642h72v-642h289v642h72v-708h-801v708h72v-642h296z" unicode="Ш"/>
<glyph glyph-name="u0429" horiz-adv-x="1008" d="M94 0v708h72v-642h296v642h72v-642h285v642h72v-642h87v-205h-72v139h-812z" unicode="Щ"/>
<glyph glyph-name="u042A" horiz-adv-x="691" d="M277 708v-289h125q54 0 98 -15t75.5 -42t48.5 -65.5t17 -86.5t-21 -86.5t-58.5 -66t-89.5 -42.5t-114 -15h-153v642h-193v66h265zM277 64h119q84 0 128.5 42t44.5 105q0 66 -45.5 105.5t-127.5 39.5h-119v-292z" unicode="Ъ"/>
<glyph glyph-name="u042B" horiz-adv-x="768" d="M166 708v-289h124q54 0 98 -16t75.5 -45t48.5 -69t17 -88t-17.5 -85t-49 -63t-76 -39.5t-98.5 -13.5h-194v708h72zM166 64h118q85 0 129 34.5t44 112.5q0 66 -45.5 105.5t-127.5 39.5h-118v-292zM674 708v-708h-72v708h72z" unicode="Ы"/>
<glyph glyph-name="u042C" horiz-adv-x="580" d="M166 356v-292h119q84 0 128.5 42t44.5 105q0 66 -45.5 105.5t-127.5 39.5h-119zM94 708h72v-289h125q54 0 98 -15t75.5 -42t48.5 -65.5t17 -86.5t-17.5 -86.5t-49 -66t-76 -42.5t-98.5 -15h-195v708z" unicode="Ь"/>
<glyph glyph-name="u042D" horiz-adv-x="735" d="M45 114l56 36q18 -27 43.5 -47t54.5 -33t60.5 -19t61.5 -6q65 0 116 23t86.5 62t55.5 91t23 111h-425v63h424q-6 58 -27.5 107t-58 85t-87.5 56t-115 20q-44 0 -79 -10.5t-61.5 -26.5t-44.5 -35t-27 -35l-50 43q18 26 45 49t61.5 40.5t75.5 27.5t87 10q84 0 151 -28 t113 -77.5t70.5 -117.5t24.5 -149t-25.5 -149t-72.5 -117.5t-113 -77.5t-146 -28q-48 0 -90.5 10.5t-78 28.5t-63 42t-45.5 51z" unicode="Э"/>
<glyph glyph-name="u042E" horiz-adv-x="1087" d="M166 708v-320h128q5 73 34.5 135t78.5 107t114 70.5t141 25.5q79 0 146.5 -28t117 -77.5t77.5 -117.5t28 -149t-28 -149t-77.5 -117.5t-117 -77.5t-146.5 -28q-76 0 -141 25.5t-114 71t-79 107.5t-34 136h-128v-322h-72v708h72zM369 354q0 -62 20 -118t58 -98t92.5 -67 t122.5 -25t122.5 25t92.5 67t58 98t20 118t-20 118t-58 98.5t-92.5 67.5t-122.5 25t-122.5 -25t-92.5 -67.5t-58 -98.5t-20 -118z" unicode="Ю"/>
<glyph glyph-name="u042F" horiz-adv-x="640" d="M232 356q-72 12 -114.5 52.5t-43.5 111.5q0 47 18.5 82.5t52.5 59t82.5 35t108.5 11.5h210v-708h-72v330h-81q-59 0 -106.5 -16.5t-82 -55t-56 -102t-28.5 -156.5h-79q4 63 19.5 120t40.5 103t58 80t73 51v2zM474 642h-131q-94 0 -143.5 -28.5t-49.5 -93.5 q0 -60 50.5 -92t141.5 -32h132v246z" unicode="Я"/>
<glyph glyph-name="u0430" horiz-adv-x="534" d="M385 302q0 61 -32 91t-93 30q-42 0 -78 -15t-61 -40l-38 45q29 29 76.5 48t107.5 19q38 0 71 -10.5t58 -31.5t39 -53t14 -75v-205q0 -27 2 -56t6 -49h-61q-3 17 -5 37t-2 39h-2q-32 -47 -72.5 -67.5t-97.5 -20.5q-27 0 -55.5 7.5t-52 24.5t-39 44t-15.5 66 q0 54 27.5 85.5t73.5 47t105.5 20t123.5 4.5v15zM365 234q-42 0 -84.5 -3.5t-77 -14t-56.5 -30.5t-22 -53q0 -25 9.5 -42t25.5 -27.5t35.5 -15t39.5 -4.5q36 0 64 12.5t47 34t29 49.5t10 59v35h-20z" unicode="а"/>
<glyph glyph-name="u0431" horiz-adv-x="599" d="M471 224q0 39 -12 71.5t-33.5 56.5t-51.5 37t-67 13q-34 0 -65 -10.5t-55 -31.5t-38 -52.5t-14 -73.5t12.5 -76.5t35 -59t54.5 -38.5t71 -14t69.5 14t51.5 38.5t31.5 57t10.5 68.5zM311 460q51 0 94 -17t73.5 -48t47.5 -74.5t17 -96.5q0 -54 -19 -98t-51 -74.5t-75 -47 t-91 -16.5q-56 0 -100.5 18t-75.5 51.5t-48 81t-17 106.5q0 29 1.5 56t3.5 53q16 177 93.5 265t234.5 88h135v-58h-137q-73 0 -120.5 -20t-77.5 -57t-45.5 -89t-23.5 -115q26 42 74 67t107 25z" unicode="б"/>
<glyph glyph-name="u0432" horiz-adv-x="541" d="M300 0h-214v468h202q89 0 132 -34.5t43 -91.5q0 -26 -8 -43.5t-22.5 -29t-33.5 -18.5t-40 -13q26 -2 49 -9t40.5 -20.5t27.5 -34t10 -49.5q0 -57 -47 -91t-139 -34zM154 55h87q37 0 68 1.5t54 9t36 23.5t13 45q0 48 -35.5 63t-95.5 15h-127v-157zM284 261q50 0 78.5 15.5 t28.5 61.5q0 26 -11 41t-31 22.5t-48 9.5t-62 2h-85v-152h130z" unicode="в"/>
<glyph glyph-name="u0433" horiz-adv-x="388" d="M154 0h-68v468h290v-57h-222v-411z" unicode="г"/>
<glyph glyph-name="u0434" horiz-adv-x="544" d="M67 -139h-67v198h75l172 409h60l159 -409h78v-198h-66v139h-411v-139zM144 59h254l-123 327z" unicode="д"/>
<glyph glyph-name="u0435" d="M447 270q-3 66 -42.5 109.5t-112.5 43.5q-34 0 -63 -12.5t-51 -34t-35 -49t-15 -57.5h319zM516 248v-15t-1 -17h-388q1 -35 14 -66t36 -54t54 -36.5t67 -13.5q53 0 91.5 24.5t58.5 56.5l51 -40q-42 -53 -92.5 -76t-108.5 -23q-52 0 -96.5 18.5t-76.5 51.5t-50.5 78 t-18.5 98t18 98t50 78t75 51.5t93 18.5q55 0 97 -18.5t70 -50t42.5 -73.5t14.5 -90z" unicode="е"/>
<glyph glyph-name="u0436" horiz-adv-x="816" d="M374 218q-49 -1 -89 -12t-71 -36t-53 -66.5t-35 -103.5h-76q26 109 72 170t124 87l-171 211h76l157 -197q15 2 31.5 3.5t34.5 1.5v192h68v-192q17 0 33.5 -1.5t32.5 -3.5l157 197h76l-172 -211q78 -26 124 -87.5t73 -169.5h-76q-14 62 -36 103.5t-53 66.5t-70.5 36 t-88.5 12v-218h-68v218z" unicode="ж"/>
<glyph glyph-name="u0437" horiz-adv-x="463" d="M104 360l-53 32q12 26 35 46q20 17 53 31.5t84 14.5q45 0 77 -12t52 -31.5t29.5 -43t9.5 -45.5q0 -23 -9 -43t-25 -35t-38 -24t-47 -10v-3q27 0 52 -6t43.5 -19t29.5 -33t11 -48q0 -63 -51 -103t-139 -40q-54 0 -88.5 14.5t-54.5 31.5q-24 20 -35 47l55 34q8 -21 26 -37 q14 -14 39.5 -25t64.5 -11q54 0 85 24t31 64q0 33 -25.5 56.5t-86.5 23.5h-60v52h50q45 0 76 20.5t31 62.5q0 17 -6 33t-18.5 28t-32.5 19.5t-47 7.5q-36 0 -59 -11.5t-36 -25.5q-16 -16 -23 -36z" unicode="з"/>
<glyph glyph-name="u0438" horiz-adv-x="599" d="M443 381l-287 -381h-70v468h70v-367l287 367h70v-468h-70v381z" unicode="и"/>
<glyph glyph-name="u0439" horiz-adv-x="599" d="M443 0h70v468h-70l-287 -367v367h-70v-468h70l287 381v-381zM200 703q14 -41 38 -64.5t66 -23.5q44 0 67 25t37 63l49 -22q-7 -20 -18.5 -41t-30 -38.5t-44.5 -29t-60 -11.5q-33 0 -58 10t-43.5 26.5t-31 38.5t-20.5 45z" unicode="й"/>
<glyph glyph-name="u043A" horiz-adv-x="543" d="M154 276q40 0 75 -6l168 198h76l-182 -212q83 -26 129 -88.5t73 -167.5h-76q-14 62 -35.5 103.5t-54 67t-75.5 36t-98 11.5v-218h-68v468h68v-192z" unicode="к"/>
<glyph glyph-name="u043B" horiz-adv-x="497" d="M408 0l-155 386l-162 -386h-71l205 468h60l192 -468h-69z" unicode="л"/>
<glyph glyph-name="u043C" horiz-adv-x="695" d="M144 468l205 -241l202 241h58v-468h-68v369l-179 -224h-28l-180 219v-364h-68v468h58z" unicode="м"/>
<glyph glyph-name="u043D" horiz-adv-x="575" d="M154 0h-68v468h68v-189h267v189h68v-468h-68v222h-267v-222z" unicode="н"/>
<glyph glyph-name="u043E" horiz-adv-x="611" d="M555 234q0 -53 -18.5 -98t-51.5 -78t-79 -51.5t-101 -18.5q-54 0 -100 18.5t-79 51.5t-51.5 78t-18.5 98t18.5 98t51.5 78t79 51.5t100 18.5q55 0 101 -18.5t79 -51.5t51.5 -78t18.5 -98zM483 234q0 39 -12.5 73.5t-35.5 60t-56 40.5t-74 15t-73.5 -15t-55.5 -40.5 t-35.5 -60t-12.5 -73.5t12.5 -73.5t35.5 -60t55.5 -40t73.5 -14.5t74 14.5t56 40t35.5 60t12.5 73.5z" unicode="о"/>
<glyph glyph-name="u043F" horiz-adv-x="567" d="M154 0h-68v468h395v-468h-68v411h-259v-411z" unicode="п"/>
<glyph glyph-name="u0440" horiz-adv-x="635" d="M158 -240h-68v708h68v-81h3q29 46 77.5 69.5t98.5 23.5q55 0 99.5 -19t76 -52t49 -78t17.5 -97t-17.5 -97t-49 -78t-76 -52t-99.5 -19q-50 0 -98.5 23.5t-77.5 67.5h-3v-319zM507 234q0 39 -12 73.5t-34.5 60t-55.5 40.5t-75 15q-39 0 -72 -14.5t-57 -40t-37.5 -60 t-13.5 -74.5t13.5 -74.5t37.5 -59.5t57 -39.5t72 -14.5q42 0 75 14.5t55.5 40t34.5 60t12 73.5z" unicode="р"/>
<glyph glyph-name="u0441" horiz-adv-x="500" d="M427 361q-17 27 -49.5 44.5t-70.5 17.5q-41 0 -74 -14.5t-56.5 -40t-36 -60t-12.5 -74.5t12.5 -74t35.5 -59.5t56 -40t74 -14.5q45 0 76 17t51 44l51 -38q-30 -37 -73.5 -59t-104.5 -22q-57 0 -103 18.5t-78.5 51.5t-50.5 78t-18 98t18 98t50.5 78t78.5 51.5t103 18.5 q47 0 95.5 -20.5t78.5 -60.5z" unicode="с"/>
<glyph glyph-name="u0442" horiz-adv-x="431" d="M10 468h411v-57h-177v-411h-68v411h-166v57z" unicode="т"/>
<glyph glyph-name="u0443" horiz-adv-x="488" d="M251 73h2l145 395h74l-233 -589q-21 -54 -53.5 -86.5t-93.5 -32.5q-31 0 -61 6l7 62q24 -8 50 -8q35 0 55 21.5t35 61.5l38 98l-200 467h76z" unicode="у"/>
<glyph glyph-name="u0444" horiz-adv-x="667" d="M364 480q54 0 99.5 -19t78 -52t51 -78t18.5 -97q0 -53 -18 -98t-51 -77.5t-78.5 -51.5t-99.5 -19v-233h-62v233q-53 0 -98 19t-78 52t-51.5 77.5t-18.5 97.5q0 52 18 97t51 78t78 51.5t99 19.5v276h62v-276zM539 234q0 39 -12.5 73t-35 59.5t-55 40.5t-72.5 16v-377 q40 0 72.5 15t55.5 40t35 59.5t12 73.5zM128 234q0 -39 12.5 -73.5t35 -59.5t55 -40t71.5 -15v377q-40 -1 -72.5 -16t-55 -40.5t-34.5 -59.5t-12 -73z" unicode="ф"/>
<glyph glyph-name="u0445" horiz-adv-x="484" d="M200 242l-173 226h87l128 -178l128 178h82l-170 -223l186 -245h-88l-139 195l-143 -195h-82z" unicode="х"/>
<glyph glyph-name="u0446" horiz-adv-x="571" d="M86 0v468h68v-407h251v407h68v-407h78v-200h-68v139h-397z" unicode="ц"/>
<glyph glyph-name="u0447" horiz-adv-x="516" d="M50 468h68v-68q0 -46 3 -78t16.5 -52.5t42.5 -29.5t80 -9h102v237h68v-468h-68v174h-103q-65 0 -106 12t-64 36t-31 59.5t-8 81.5v105z" unicode="ч"/>
<glyph glyph-name="u0448" horiz-adv-x="797" d="M86 0v468h68v-411h210v411h68v-411h211v411h68v-468h-625z" unicode="ш"/>
<glyph glyph-name="u0449" horiz-adv-x="809" d="M86 0v468h68v-411h210v411h68v-411h211v411h68v-411h78v-196h-68v139h-635z" unicode="щ"/>
<glyph glyph-name="u044A" horiz-adv-x="552" d="M218 468v-162h96q52 0 88 -11.5t58 -32t32 -48.5t10 -60t-11.5 -60t-34.5 -49t-57.5 -33t-80.5 -12h-168v411h-140v57h208zM218 55h84q28 0 52 4.5t40.5 16t26 30.5t9.5 48t-10 48t-27.5 30t-41.5 15.5t-52 4.5h-81v-197z" unicode="ъ"/>
<glyph glyph-name="u044B" horiz-adv-x="653" d="M154 468v-162h96q52 0 88 -11.5t58 -32t32 -48.5t10 -60t-11.5 -60t-34.5 -49t-57.5 -33t-80.5 -12h-168v468h68zM154 55h84q28 0 52 4.5t40.5 16t26 30.5t9.5 48t-10 48t-27.5 30t-41.5 15.5t-52 4.5h-81v-197zM567 468v-468h-68v468h68z" unicode="ы"/>
<glyph glyph-name="u044C" horiz-adv-x="510" d="M154 468v-162h116q52 0 88.5 -11.5t59 -32t32.5 -48.5t10 -60t-12 -60t-35.5 -49t-58 -33t-80.5 -12h-188v468h68zM154 55h104q28 0 52 4.5t41.5 16t27 30.5t9.5 48t-10 48t-28 30t-42.5 15.5t-52.5 4.5h-101v-197z" unicode="ь"/>
<glyph glyph-name="u044D" horiz-adv-x="541" d="M96 341l-49 42q28 40 76.5 68.5t125.5 28.5q55 0 99 -18.5t74.5 -51.5t46.5 -78t16 -98t-18.5 -98t-50.5 -78t-76.5 -51.5t-96.5 -18.5q-58 0 -108.5 23t-92.5 76l51 40q20 -32 58.5 -56.5t91.5 -24.5q36 0 67.5 13.5t55 36.5t37.5 54t15 66h-265v54h264 q-2 30 -14.5 57.5t-34.5 49t-52 34t-68 12.5q-57 0 -95 -24.5t-57 -57.5z" unicode="э"/>
<glyph glyph-name="u044E" horiz-adv-x="807" d="M751 234q0 -53 -18.5 -98t-51.5 -78t-79 -51.5t-101 -18.5q-53 0 -98 17.5t-78 49t-52 74t-21 93.5h-98v-222h-68v468h68v-189h102q7 44 28 81t53 63.5t74 41.5t90 15q55 0 101 -18.5t79 -51.5t51.5 -78t18.5 -98zM679 234q0 39 -12.5 73.5t-35.5 60t-56 40.5t-74 15 t-73.5 -15t-55.5 -40.5t-35.5 -60t-12.5 -73.5t12.5 -73.5t35.5 -60t55.5 -40t73.5 -14.5t74 14.5t56 40t35.5 60t12.5 73.5z" unicode="ю"/>
<glyph glyph-name="u044F" horiz-adv-x="539" d="M304 201q-78 0 -119 -53.5t-49 -147.5h-76q3 39 13 75t27.5 65.5t42 51t56.5 32.5v3q-51 5 -84 30.5t-33 76.5q0 64 49.5 99t144.5 35h177v-468h-68v201h-81zM154 334q0 -24 11 -39t29.5 -22.5t42.5 -10t49 -2.5h99v149h-100q-27 0 -51 -2t-41.5 -9.5t-28 -22.5 t-10.5 -41z" unicode="я"/>
<glyph glyph-name="u0451" d="M447 270q-3 66 -42.5 109.5t-112.5 43.5q-34 0 -63 -12.5t-51 -34t-35 -49t-15 -57.5h319zM516 248v-15t-1 -17h-388q1 -35 14 -66t36 -54t54 -36.5t67 -13.5q53 0 91.5 24.5t58.5 56.5l51 -40q-42 -53 -92.5 -76t-108.5 -23q-52 0 -96.5 18.5t-76.5 51.5t-50.5 78 t-18.5 98t18 98t50 78t75 51.5t93 18.5q55 0 97 -18.5t70 -50t42.5 -73.5t14.5 -90zM152 647q0 20 14 35.5t37 15.5t37 -15.5t14 -35.5t-14 -35.5t-37 -15.5t-37 15.5t-14 35.5zM344 647q0 20 14 35.5t37 15.5t37 -15.5t14 -35.5t-14 -35.5t-37 -15.5t-37 15.5t-14 35.5z " unicode="ё"/>
<glyph glyph-name="u0452" horiz-adv-x="586" d="M265 -133q9 -7 24 -11t27 -4q64 0 90 42.5t26 127.5v237q0 37 -6 67t-20.5 51.5t-39 33.5t-61.5 12q-27 0 -52.5 -11t-45.5 -33.5t-32 -57t-12 -81.5v-240h-68v575h-105v51h105v130h68v-130h188v-51h-188v-184h2q19 41 63 65t94 24q89 0 133.5 -53t44.5 -140v-293 q0 -44 -12 -81.5t-35 -64.5t-57 -42.5t-77 -15.5q-17 0 -42.5 5t-47.5 19z" unicode="ђ"/>
<glyph glyph-name="u0453" horiz-adv-x="388" d="M154 0h-68v468h290v-57h-222v-411zM242 534h-59l100 144h91z" unicode="ѓ"/>
<glyph glyph-name="u0454" horiz-adv-x="564" d="M502 383l-49 -42q-19 33 -57 57.5t-95 24.5q-38 0 -68 -12.5t-52 -34t-34.5 -49t-14.5 -57.5h264v-54h-265q1 -35 15 -66t37.5 -54t55 -36.5t67.5 -13.5q60 0 95 24.5t55 56.5l51 -40q-42 -53 -93.5 -76t-114.5 -23q-50 0 -92.5 18.5t-74.5 51.5t-50 78t-18 98t16 98 t46.5 78t74 51.5t99.5 18.5q77 0 125.5 -28.5t76.5 -68.5z" unicode="є"/>
<glyph glyph-name="u0455" horiz-adv-x="444" d="M339 357q-15 29 -45.5 47.5t-69.5 18.5q-18 0 -36 -4t-32 -13t-22.5 -23t-8.5 -33q0 -33 27 -50.5t85 -29.5q83 -17 122.5 -49.5t39.5 -87.5q0 -40 -15.5 -67.5t-40.5 -45t-56.5 -25t-63.5 -7.5q-53 0 -103 22t-82 69l54 40q18 -31 53 -52t77 -21q22 0 42 4t35 14 t24 25.5t9 38.5q0 37 -35.5 55.5t-102.5 34.5q-21 5 -44.5 12.5t-43.5 22t-33 36.5t-13 55q0 36 14 61.5t37.5 42t53.5 24.5t62 8q49 0 95 -22t69 -62z" unicode="ѕ"/>
<glyph glyph-name="u0456" horiz-adv-x="250" d="M159 0h-68v468h68v-468zM173 648q0 -21 -15 -34.5t-33 -13.5t-33 13.5t-15 34.5t15 34.5t33 13.5t33 -13.5t15 -34.5z" unicode="і"/>
<glyph glyph-name="u0457" horiz-adv-x="250" d="M159 0h-68v468h68v-468zM-21 647q0 20 14 35.5t37 15.5t37 -15.5t14 -35.5t-14 -35.5t-37 -15.5t-37 15.5t-14 35.5zM171 647q0 20 14 35.5t37 15.5t37 -15.5t14 -35.5t-14 -35.5t-37 -15.5t-37 15.5t-14 35.5z" unicode="ї"/>
<glyph glyph-name="u0458" horiz-adv-x="251" d="M-17 -176q10 -3 21.5 -4.5t21.5 -1.5q21 0 34 7.5t20 20.5t9.5 31.5t2.5 40.5v550h68v-561q0 -28 -6 -54.5t-21 -47t-40.5 -33t-65.5 -12.5q-11 0 -26 1.5t-28 5.5zM174 648q0 -21 -15 -34.5t-33 -13.5t-33 13.5t-15 34.5t15 34.5t33 13.5t33 -13.5t15 -34.5z" unicode="ј"/>
<glyph glyph-name="u0459" horiz-adv-x="707" d="M388 0l-145 386l-152 -386h-71l195 468h60l63 -162h149q52 0 88.5 -11.5t59 -32t32.5 -48.5t10 -60t-12 -60t-35.5 -49t-58 -33t-80.5 -12h-103zM359 252l76 -197h40q28 0 52 4.5t40.5 16t26 30.5t9.5 48q0 58 -33.5 78t-97.5 20h-113z" unicode="љ"/>
<glyph glyph-name="u045A" horiz-adv-x="825" d="M154 468v-189h267v189h68v-189h96q52 0 88.5 -11.5t59 -30.5t32.5 -45t10 -54q0 -29 -12 -54t-35.5 -43.5t-58 -29.5t-80.5 -11h-168v222h-267v-222h-68v468h68zM489 55h84q28 0 52 3.5t41.5 13t27 25.5t9.5 41t-10 42t-28 27t-42.5 14t-52.5 4h-81v-170z" unicode="њ"/>
<glyph glyph-name="u045B" horiz-adv-x="586" d="M165 391q19 41 63 65t94 24q89 0 133.5 -53t44.5 -140v-287h-68v259q0 37 -6 67t-20.5 51.5t-39 33.5t-61.5 12q-27 0 -52.5 -11t-45.5 -33.5t-32 -57t-12 -81.5v-240h-68v575h-105v51h105v130h68v-130h188v-51h-188v-184h2z" unicode="ћ"/>
<glyph glyph-name="u045C" horiz-adv-x="543" d="M154 276q40 0 75 -6l168 198h76l-182 -212q83 -26 129 -88.5t73 -167.5h-76q-14 62 -35.5 103.5t-54 67t-75.5 36t-98 11.5v-218h-68v468h68v-192zM278 534h-59l100 144h91z" unicode="ќ"/>
<glyph glyph-name="u045E" horiz-adv-x="488" d="M131 701q11 -32 40 -54t73 -22t73 22t40 54l46 -22q-8 -21 -21.5 -39.5t-33.5 -32.5t-46 -22.5t-58 -8.5t-58.5 8.5t-46.5 22.5t-33.5 32.5t-20.5 39.5zM92 468h-76l200 -467l-38 -98q-15 -40 -35 -61.5t-55 -21.5q-26 0 -50 8l-7 -62q30 -6 61 -6q61 0 93.5 32.5 t53.5 86.5l233 589h-74l-145 -395h-2z" unicode="ў"/>
<glyph glyph-name="u045F" horiz-adv-x="559" d="M320 0v-139h-66v139h-168v468h68v-409h251v409h68v-468h-153z" unicode="џ"/>
<glyph glyph-name="u0490" horiz-adv-x="528" d="M166 0h-72v708h338v159h66v-223h-332v-644z" unicode="Ґ"/>
<glyph glyph-name="u0491" horiz-adv-x="406" d="M154 0h-68v468h234v166h66v-223h-232v-411z" unicode="ґ"/>
<glyph glyph-name="palochkacyrillic" horiz-adv-x="260" d="M166 0h-72v708h72v-708z" unicode="Ӏ"/>
<glyph glyph-name="Aiecyrillic" horiz-adv-x="990" d="M591 64h345v-64h-417v198h-298l-128 -198h-82l461 708h452v-64h-333v-244h309v-63h-309v-273zM519 261v383h-14l-247 -383h261z" unicode="Ӕ"/>
<glyph glyph-name="aiecyrillic" horiz-adv-x="870" d="M814 248v-17t-1 -15h-370q1 -35 13.5 -66.5t34.5 -54.5t51.5 -36.5t63.5 -13.5q51 0 87.5 24.5t55.5 56.5l49 -39q-40 -53 -88 -76t-104 -23q-66 0 -114.5 29t-71.5 80q-14 -32 -34.5 -53t-46 -33.5t-54.5 -17.5t-60 -5q-30 0 -60.5 7.5t-54.5 23.5t-39 42t-15 64 q0 50 28 79t73.5 43.5t104 18.5t118.5 4v15q0 61 -29.5 99.5t-90.5 38.5q-42 0 -79.5 -15t-64.5 -40l-39 44q30 29 81.5 48.5t111.5 19.5q56 0 96.5 -25.5t57.5 -72.5q28 45 74.5 71.5t102.5 26.5q52 0 92 -18.5t67 -50t40.5 -73.5t13.5 -90zM745 270q0 67 -38 110t-106 43 q-31 0 -58.5 -12.5t-48.5 -34t-34 -49t-14 -57.5h299zM360 216q-45 0 -87.5 -2.5t-75 -11.5t-52 -27t-19.5 -49q0 -24 9 -40t24.5 -25.5t35.5 -13.5t42 -4q72 0 107.5 38t35.5 101v34h-20z" unicode="ӕ"/>
<glyph glyph-name="Aringbelow" horiz-adv-x="700" d="M89 0h-79l306 708h70l304 -708h-80l-78 186h-366zM193 252h312l-156 376zM446 -170q0 -20 -7.5 -37.5t-21 -30.5t-31 -20t-36.5 -7q-20 0 -37 7t-30.5 20t-21 30.5t-7.5 37.5t7.5 37.5t21 30t30.5 20t37 7.5q19 0 36.5 -7.5t31 -20t21 -30t7.5 -37.5zM410 -170 q0 25 -17.5 42t-42.5 17t-42.5 -17t-17.5 -42t17.5 -42t42.5 -17t42.5 17t17.5 42z" unicode="Ḁ"/>
<glyph glyph-name="aringbelow" horiz-adv-x="534" d="M385 302q0 61 -32 91t-93 30q-42 0 -78 -15t-61 -40l-38 45q29 29 76.5 48t107.5 19q38 0 71 -10.5t58 -31.5t39 -53t14 -75v-205q0 -27 2 -56t6 -49h-61q-3 17 -5 37t-2 39h-2q-32 -47 -72.5 -67.5t-97.5 -20.5q-27 0 -55.5 7.5t-52 24.5t-39 44t-15.5 66 q0 54 27.5 85.5t73.5 47t105.5 20t123.5 4.5v15zM365 234q-42 0 -84.5 -3.5t-77 -14t-56.5 -30.5t-22 -53q0 -25 9.5 -42t25.5 -27.5t35.5 -15t39.5 -4.5q36 0 64 12.5t47 34t29 49.5t10 59v35h-20zM352 -182q0 -20 -7.5 -37.5t-21 -30.5t-31 -20t-36.5 -7q-20 0 -37 7 t-30.5 20t-21 30.5t-7.5 37.5t7.5 37.5t21 30t30.5 20t37 7.5q19 0 36.5 -7.5t31 -20t21 -30t7.5 -37.5zM316 -182q0 25 -17.5 42t-42.5 17t-42.5 -17t-17.5 -42t17.5 -42t42.5 -17t42.5 17t17.5 42z" unicode="ḁ"/>
<glyph glyph-name="uni1E02" horiz-adv-x="636" d="M94 708h211q40 0 81 -8.5t73.5 -29t53 -55.5t20.5 -88q0 -56 -34 -97.5t-91 -54.5v-2q69 -8 114.5 -53.5t45.5 -123.5q0 -44 -18.5 -80.5t-52.5 -62t-83 -39.5t-110 -14h-210v708zM166 398h145q26 0 52.5 6t48.5 20.5t35.5 38.5t13.5 59q0 34 -13.5 57.5t-36.5 38.5 t-54 21.5t-66 6.5h-125v-248zM166 62h134q39 0 74.5 7.5t62 24t42.5 43t16 63.5q0 70 -47.5 104.5t-134.5 34.5h-147v-277zM348 848q0 -21 -15 -34.5t-33 -13.5t-33 13.5t-15 34.5t15 34.5t33 13.5t33 -13.5t15 -34.5z" unicode="Ḃ"/>
<glyph glyph-name="uni1E03" horiz-adv-x="637" d="M160 79v-79h-68v756h68v-369h2q30 46 78 69.5t99 23.5q55 0 99.5 -19t76 -52t49 -78t17.5 -97t-17.5 -97t-49 -78t-76 -52t-99.5 -19q-51 0 -99 23t-78 68h-2zM509 234q0 39 -12 73.5t-34.5 60t-55.5 40.5t-75 15q-39 0 -72 -14.5t-57 -40t-37.5 -60t-13.5 -74.5 t13.5 -74.5t37.5 -59.5t57 -39.5t72 -14.5q42 0 75 14.5t55.5 40t34.5 60t12 73.5zM174 848q0 -21 -15 -34.5t-33 -13.5t-33 13.5t-15 34.5t15 34.5t33 13.5t33 -13.5t15 -34.5z" unicode="ḃ"/>
<glyph glyph-name="Bdotbelow" horiz-adv-x="636" d="M94 708h211q40 0 81 -8.5t73.5 -29t53 -55.5t20.5 -88q0 -56 -34 -97.5t-91 -54.5v-2q69 -8 114.5 -53.5t45.5 -123.5q0 -44 -18.5 -80.5t-52.5 -62t-83 -39.5t-110 -14h-210v708zM166 398h145q26 0 52.5 6t48.5 20.5t35.5 38.5t13.5 59q0 34 -13.5 57.5t-36.5 38.5 t-54 21.5t-66 6.5h-125v-248zM166 62h134q39 0 74.5 7.5t62 24t42.5 43t16 63.5q0 70 -47.5 104.5t-134.5 34.5h-147v-277zM339 -123q0 -21 -15 -34.5t-33 -13.5t-33 13.5t-15 34.5t15 34.5t33 13.5t33 -13.5t15 -34.5z" unicode="Ḅ"/>
<glyph glyph-name="bdotbelow" horiz-adv-x="637" d="M160 79v-79h-68v756h68v-369h2q30 46 78 69.5t99 23.5q55 0 99.5 -19t76 -52t49 -78t17.5 -97t-17.5 -97t-49 -78t-76 -52t-99.5 -19q-51 0 -99 23t-78 68h-2zM509 234q0 39 -12 73.5t-34.5 60t-55.5 40.5t-75 15q-39 0 -72 -14.5t-57 -40t-37.5 -60t-13.5 -74.5 t13.5 -74.5t37.5 -59.5t57 -39.5t72 -14.5q42 0 75 14.5t55.5 40t34.5 60t12 73.5zM384 -135q0 -21 -15 -34.5t-33 -13.5t-33 13.5t-15 34.5t15 34.5t33 13.5t33 -13.5t15 -34.5z" unicode="ḅ"/>
<glyph glyph-name="Blinebelow" horiz-adv-x="636" d="M94 708h211q40 0 81 -8.5t73.5 -29t53 -55.5t20.5 -88q0 -56 -34 -97.5t-91 -54.5v-2q69 -8 114.5 -53.5t45.5 -123.5q0 -44 -18.5 -80.5t-52.5 -62t-83 -39.5t-110 -14h-210v708zM166 398h145q26 0 52.5 6t48.5 20.5t35.5 38.5t13.5 59q0 34 -13.5 57.5t-36.5 38.5 t-54 21.5t-66 6.5h-125v-248zM166 62h134q39 0 74.5 7.5t62 24t42.5 43t16 63.5q0 70 -47.5 104.5t-134.5 34.5h-147v-277zM416 -129h-270v54h270v-54z" unicode="Ḇ"/>
<glyph glyph-name="blinebelow" horiz-adv-x="637" d="M160 79v-79h-68v756h68v-369h2q30 46 78 69.5t99 23.5q55 0 99.5 -19t76 -52t49 -78t17.5 -97t-17.5 -97t-49 -78t-76 -52t-99.5 -19q-51 0 -99 23t-78 68h-2zM509 234q0 39 -12 73.5t-34.5 60t-55.5 40.5t-75 15q-39 0 -72 -14.5t-57 -40t-37.5 -60t-13.5 -74.5 t13.5 -74.5t37.5 -59.5t57 -39.5t72 -14.5q42 0 75 14.5t55.5 40t34.5 60t12 73.5zM471 -141h-270v54h270v-54z" unicode="ḇ"/>
<glyph glyph-name="Ccedillaacute" horiz-adv-x="720" d="M690 114q-18 -27 -43.5 -51t-59 -42t-74 -28.5t-88.5 -10.5l-35 -57q13 4 35 4q30 0 56 -18t26 -54q0 -25 -11 -42t-28 -27t-38 -14t-41 -4t-46.5 5t-47.5 15l16 36q17 -8 35 -11t37 -3q8 0 19 2t21 7.5t17 14t7 20.5q0 20 -14.5 29.5t-39.5 9.5q-22 0 -43 -8l-18 15 l52 82q-72 7 -132.5 37.5t-104 79t-67.5 113.5t-24 140q0 81 28 149t77.5 117.5t117 77.5t146.5 28q39 0 76.5 -8t70.5 -22.5t60 -35t45 -46.5l-60 -44q-11 17 -29.5 34t-43.5 30t-54.5 21t-63.5 8q-69 0 -123.5 -25t-92.5 -67.5t-58 -98.5t-20 -118t20.5 -118t58.5 -98.5 t92.5 -67.5t122.5 -25q61 0 116 25t92 80zM417 801h-59l100 144h91z" unicode="Ḉ"/>
<glyph glyph-name="ccedillaacute" horiz-adv-x="500" d="M427 361q-17 27 -49.5 44.5t-70.5 17.5q-41 0 -74 -14.5t-56.5 -40t-36 -60t-12.5 -74.5t12.5 -74t35.5 -59.5t56 -40t74 -14.5q45 0 76 17t51 44l51 -38q-29 -36 -71 -57.5t-101 -23.5l-39 -63q13 4 35 4q30 0 56 -18t26 -54q0 -25 -11 -42t-28 -27t-38 -14t-41 -4 t-46.5 5t-47.5 15l16 36q17 -8 35 -11t37 -3q8 0 19 2t21 7.5t17 14t7 20.5q0 20 -14.5 29.5t-39.5 9.5q-22 0 -43 -8l-18 15l55 88q-49 6 -88.5 26.5t-67.5 52.5t-43 74t-15 91q0 53 18 98t50.5 78t78.5 51.5t103 18.5q47 0 95.5 -20.5t78.5 -60.5zM294 555h-59l100 144h91 z" unicode="ḉ"/>
<glyph glyph-name="uni1E0A" horiz-adv-x="757" d="M94 708h235q66 0 132.5 -22t120 -66.5t86.5 -111t33 -154.5q0 -89 -33 -155t-86.5 -110.5t-120 -66.5t-132.5 -22h-235v708zM166 64h143q80 0 139.5 25t98.5 65.5t58.5 92.5t19.5 107t-19.5 107t-58.5 92.5t-98.5 65.5t-139.5 25h-143v-580zM395 848q0 -21 -15 -34.5 t-33 -13.5t-33 13.5t-15 34.5t15 34.5t33 13.5t33 -13.5t15 -34.5z" unicode="Ḋ"/>
</font>
</defs>
</svg>
