<svg width="32" height="32" viewBox="0 0 32 32" xmlns="http://www.w3.org/2000/svg"><title>Artboard Copy 3</title><g fill="none" fill-rule="evenodd"><circle fill="#5AA057" cx="16" cy="16" r="16"/><g stroke="#FFF" stroke-linecap="round" stroke-linejoin="round"><path d="M13 17.477l.614-7.483c.104-1.474 1.41-2.619 2.986-2.619 1.576 0 2.882 1.145 2.986 2.62l.614 7.482M13.666 10.375h5.868M13.4 13.375h6.4M13.15 16.375h6.9M15.4 20.376V7.61M17.8 19.75V7.61M17.8 24.625h-1.2c-1.32 0-2.962-.865-3.648-1.922L8.6 16l-1.2-1.125 3.216.603c.431.081 1.007.412 1.28.736L17.4 22.75l.4 1.875z"/><path d="M16.2 21.25l5.2-4.875 1.2-2.25.273 2.815c.07.72-.193 1.821-.585 2.445l-2.68 4.271c-.334.533-1.148.97-1.808.97"/></g></g></svg>