<svg width="32" height="32" viewBox="0 0 32 32" xmlns="http://www.w3.org/2000/svg"><title>Artboard Copy 4</title><g fill="none" fill-rule="evenodd"><circle fill="#5AA057" cx="16" cy="16" r="16"/><g stroke="#FFF" stroke-linejoin="round"><path d="M16 23.875c1.2 0 .4.75 2.8.75s4.8-4.5 4.8-7.5-2-5.25-4.4-5.25c-2.4 0-2.4.75-3.2.75-.8 0-.8-.75-3.2-.75-2.4 0-4.4 2.25-4.4 5.25s2.4 7.5 4.8 7.5 1.6-.75 2.8-.75z"/><path d="M16 12.625v-1.5c0-.825-.72-1.5-1.6-1.5h-1.6" stroke-linecap="round"/><path d="M17.6 10.75c1.988 0 3.6-1.51 3.6-3.375-1.988 0-3.6 1.512-3.6 3.375z"/></g></g></svg>