<svg width="32" height="32" viewBox="0 0 32 32" xmlns="http://www.w3.org/2000/svg"><title>Artboard</title><g fill="none" fill-rule="evenodd"><circle fill="#5AA057" cx="16" cy="16" r="16"/><g stroke="#FFF" stroke-linejoin="round"><path d="M20.766 15.387L9.748 23.49a.885.885 0 0 1-1.238-1.238l8.104-11.018a1.02 1.02 0 0 1 1.355-.257 9.347 9.347 0 0 1 3.053 3.052c.28.454.17 1.04-.256 1.358z"/><path d="M18.742 11.472l1.145-3.083M20.529 13.26l3.136-1.177M19.685 12.335L22.592 9.4M15.932 12.287l2.122 2.121M15.46 15.587l2.14 2.128M13.576 18.415l1.297 1.306" stroke-linecap="round"/></g></g></svg>