<svg width="20" height="20" viewBox="0 0 20 20" xmlns="http://www.w3.org/2000/svg" xmlns:xlink="http://www.w3.org/1999/xlink"><title>Group 9</title><defs><path d="M12 17l-.2-.167C7.23 13.292 6 12.048 6 10.014 6 8.34 7.431 7 9.163 7c1.456 0 2.285.79 2.837 1.388C12.552 7.789 13.38 7 14.837 7 16.594 7 18 8.364 18 10.014c0 2.034-1.23 3.278-5.8 6.819L12 17z" id="a"/><mask id="b" x="0" y="0" width="12" height="10" fill="#fff"><use xlink:href="#a"/></mask></defs><g transform="translate(-2 -2)" fill="none" fill-rule="evenodd"><path d="M0 0h24v24H0z"/><path stroke="#555" stroke-linecap="round" stroke-linejoin="round" d="M21 21H3V3h18z"/><use stroke="#555" mask="url(#b)" stroke-width="2" fill-rule="nonzero" xlink:href="#a"/></g></svg>