<svg width="22" height="16" viewBox="0 0 22 16" xmlns="http://www.w3.org/2000/svg"><title>IconShipping</title><g fill="none" fill-rule="evenodd"><path d="M-1-4h24v24H-1z"/><g stroke="#333" stroke-width="1.2" stroke-linecap="round" stroke-linejoin="round"><path d="M15.167 12.924c0 .908.746 1.645 1.666 1.645.922 0 1.667-.737 1.667-1.645s-.745-1.644-1.667-1.644c-.92 0-1.666.736-1.666 1.644zM3.5 12.924c0 .908.747 1.645 1.667 1.645.921 0 1.666-.737 1.666-1.645s-.745-1.644-1.666-1.644c-.92 0-1.667.736-1.667 1.644z"/><path d="M18.5 12.924h2.083V8.401l-1.666-1.644-2.084-3.701h-3.75V1.41H1.417v11.513H3.5M15.167 12.513H6.833"/><path d="M14.75 4.7H16l1.25 2.468M13.5 3.056v8.224M20.583 10.868H1.417"/></g></g></svg>