<svg width="23" height="23" viewBox="0 0 23 23" xmlns="http://www.w3.org/2000/svg"><title>IconPhone</title><g fill="none" fill-rule="evenodd"><path d="M0-1h24v24H0z"/><path d="M8.586 6.902a2.314 2.314 0 0 0 0-3.27L6.132 1.177a2.315 2.315 0 0 0-3.272 0L1.516 2.523a3.463 3.463 0 0 0-.44 4.365 53.794 53.794 0 0 0 15.035 15.035 3.47 3.47 0 0 0 4.366-.438l1.345-1.346a2.31 2.31 0 0 0 0-3.27l-2.453-2.453a2.31 2.31 0 0 0-3.271 0l-.818.817A54.823 54.823 0 0 1 7.768 7.72l.818-.817z" stroke-linecap="round" stroke="#E13D35" stroke-linejoin="round"/></g></svg>