<svg width="20" height="22" viewBox="0 0 20 22" xmlns="http://www.w3.org/2000/svg"><title>IconUser</title><g fill="none" fill-rule="evenodd"><path d="M-2 0h24v24H-2z"/><g stroke="#E13D35" stroke-linejoin="round"><path d="M7.5 12.281v2.72l-5.009 1.788A3 3 0 0 0 .5 19.614V21.5h19v-1.886a3 3 0 0 0-1.991-2.825L12.5 15v-2.906"/><path d="M14.875 7c0 3.313-2.239 6-5 6-2.762 0-5-2.687-5-6s2.238-6 5-6c2.761 0 5 2.687 5 6z"/><path d="M14.828 6.453c-.168.02-.284.014-.453.047-1.703.328-2.797-.289-3.735-1.93-.562 1.078-2.32 1.93-3.765 1.93a4.02 4.02 0 0 1-1.936-.466"/></g></g></svg>