<svg xmlns="http://www.w3.org/2000/svg" width="24" height="24" viewBox="0 0 24 24"><title>Group 9</title><defs><clipPath id="a"><path d="M134 369l-.2-.17c-4.57-3.54-5.8-4.78-5.8-6.82 0-1.67 1.43-3.01 3.16-3.01 1.46 0 2.29.79 2.84 1.39.55-.6 1.38-1.39 2.84-1.39 1.75 0 3.16 1.36 3.16 3.01 0 2.04-1.23 3.28-5.8 6.82z" fill="#fff"/></clipPath></defs><path d="M21 21H3V3h18z" fill="none" stroke-linejoin="round" stroke-linecap="round" stroke="#555" stroke-miterlimit="50"/><path d="M134 369l-.2-.17c-4.57-3.54-5.8-4.78-5.8-6.82 0-1.67 1.43-3.01 3.16-3.01 1.46 0 2.29.79 2.84 1.39.55-.6 1.38-1.39 2.84-1.39 1.75 0 3.16 1.36 3.16 3.01 0 2.04-1.23 3.28-5.8 6.82z" fill="none" stroke="#555" stroke-miterlimit="50" stroke-width="2" clip-path="url(&amp;quot;#a&amp;quot;)" transform="translate(-122 -352)"/></svg>